<svg width="40" height="40" viewBox="0 0 40 40" fill="none" xmlns="http://www.w3.org/2000/svg">
<path d="M20 26.563C19.4825 26.563 19.0625 26.143 19.0625 25.6255V20.938H14.375C13.8575 20.938 13.4375 20.518 13.4375 20.0005C13.4375 19.483 13.8575 19.063 14.375 19.063H19.0625V14.3755C19.0625 13.858 19.4825 13.438 20 13.438C20.5175 13.438 20.9375 13.858 20.9375 14.3755V19.063H25.625C26.1425 19.063 26.5625 19.483 26.5625 20.0005C26.5625 20.518 26.1425 20.938 25.625 20.938H20.9375V25.6255C20.9375 26.143 20.5175 26.563 20 26.563Z" fill="#3B414D" class="primary"/>
<path d="M20 35.0005C11.7287 35.0005 5 28.2717 5 20.0005C5 11.7292 11.7287 5.00049 20 5.00049C28.2712 5.00049 35 11.7292 35 20.0005C35 28.2717 28.2712 35.0005 20 35.0005ZM20 6.87549C12.7625 6.87549 6.875 12.763 6.875 20.0005C6.875 27.238 12.7625 33.1255 20 33.1255C27.2375 33.1255 33.125 27.238 33.125 20.0005C33.125 12.763 27.2375 6.87549 20 6.87549Z" fill="#3B414D" class="primary"/>
</svg>
