<svg width="40" height="40" viewBox="0 0 40 40" fill="none" xmlns="http://www.w3.org/2000/svg">
<path d="M31.25 26.8755C30.7527 26.8755 30.2758 26.6779 29.9242 26.3263C29.5725 25.9747 29.375 25.4978 29.375 25.0005V18.923C29.4472 16.5493 28.6677 14.2282 27.1775 12.3792C25.6873 10.5303 23.5848 9.27548 21.25 8.84174V6.25049C21.25 5.91897 21.1183 5.60103 20.8839 5.3666C20.6495 5.13218 20.3315 5.00049 20 5.00049C19.6685 5.00049 19.3505 5.13218 19.1161 5.3666C18.8817 5.60103 18.75 5.91897 18.75 6.25049V8.84174C16.4152 9.27548 14.3127 10.5303 12.8225 12.3792C11.3323 14.2282 10.5528 16.5493 10.625 18.923V25.0005C10.625 25.4978 10.4275 25.9747 10.0758 26.3263C9.72419 26.6779 9.24728 26.8755 8.75 26.8755C8.41848 26.8755 8.10054 27.0072 7.86612 27.2416C7.6317 27.476 7.5 27.794 7.5 28.1255C7.5 28.457 7.6317 28.7749 7.86612 29.0094C8.10054 29.2438 8.41848 29.3755 8.75 29.3755H31.25C31.5815 29.3755 31.8995 29.2438 32.1339 29.0094C32.3683 28.7749 32.5 28.457 32.5 28.1255C32.5 27.794 32.3683 27.476 32.1339 27.2416C31.8995 27.0072 31.5815 26.8755 31.25 26.8755Z" fill="#3B414D"/>
<path d="M22.795 31.2505H17.205C17.1283 31.2506 17.0543 31.279 16.9971 31.3302C16.9399 31.3813 16.9036 31.4517 16.895 31.528C16.8814 31.6433 16.8747 31.7594 16.875 31.8755C16.875 32.7043 17.2042 33.4992 17.7903 34.0852C18.3764 34.6713 19.1712 35.0005 20 35.0005C20.8288 35.0005 21.6237 34.6713 22.2097 34.0852C22.7958 33.4992 23.125 32.7043 23.125 31.8755C23.1253 31.7594 23.1186 31.6433 23.105 31.528C23.097 31.4515 23.0608 31.3808 23.0035 31.3295C22.9462 31.2782 22.8719 31.2501 22.795 31.2505Z" fill="#3B414D"/>
</svg>
