<svg width="40" height="40" viewBox="0 0 40 40" fill="none" xmlns="http://www.w3.org/2000/svg">
<path d="M20.0028 35.0005C19.4153 35.0005 18.8291 34.8505 18.3078 34.5655C17.4766 34.1117 16.8716 33.3605 16.6053 32.4517C16.4591 31.9555 16.7441 31.4342 17.2403 31.288C17.3266 31.263 17.4153 31.2505 17.5041 31.2505C17.9166 31.2505 18.2866 31.5267 18.4041 31.923C18.5303 32.3517 18.8153 32.7055 19.2066 32.9205C19.4528 33.0542 19.7278 33.1255 20.0041 33.1255C20.1628 33.1255 20.3228 33.1017 20.4778 33.0567C21.0253 32.8955 21.4491 32.4717 21.6103 31.9242C21.7266 31.528 22.0966 31.2505 22.5103 31.2505C22.5991 31.2505 22.6866 31.263 22.7728 31.288C23.2691 31.4342 23.5553 31.9555 23.4091 32.4517C23.0678 33.6155 22.1691 34.5142 21.0053 34.8555C20.6778 34.9517 20.3403 35.0005 20.0028 35.0005Z" fill="#3B414D"/>
<path d="M8.75403 29.3755C8.39778 29.3755 8.06778 29.1692 7.91153 28.8492C7.75278 28.5242 7.79403 28.1455 8.01528 27.8605C8.02278 27.8492 9.69153 25.4367 9.69153 18.1255C9.69153 12.7592 13.774 8.33174 19.0665 7.85549V5.93799C19.0665 5.42049 19.4865 5.00049 20.004 5.00049C20.5215 5.00049 20.9415 5.42049 20.9415 5.93799V7.85549C26.234 8.33174 30.3165 12.7592 30.3165 18.1255C30.3165 26.0042 31.874 27.733 31.889 27.7492C32.1615 27.998 32.2603 28.4142 32.1228 28.7717C31.9803 29.138 31.639 29.3755 31.254 29.3755H8.75403ZM29.6415 27.5005C29.039 25.9605 28.4403 23.163 28.4403 18.1255C28.4403 13.473 24.6553 9.68799 20.0028 9.68799C15.3503 9.68799 11.5653 13.473 11.5653 18.1255C11.5653 23.0717 10.8403 25.9717 10.2578 27.5005H29.6415Z" fill="#3B414D"/>
</svg>
