<svg width="40" height="40" viewBox="0 0 40 40" fill="none" xmlns="http://www.w3.org/2000/svg">
<path d="M20 27.5005C20.7767 27.5005 21.4062 26.8709 21.4062 26.0942C21.4062 25.3176 20.7767 24.688 20 24.688C19.2233 24.688 18.5938 25.3176 18.5938 26.0942C18.5938 26.8709 19.2233 27.5005 20 27.5005Z" fill="#3B414D"/>
<path d="M20 22.813C19.7514 22.813 19.5129 22.7142 19.3371 22.5384C19.1613 22.3626 19.0625 22.1241 19.0625 21.8755V11.563C19.0625 11.3143 19.1613 11.0759 19.3371 10.9001C19.5129 10.7243 19.7514 10.6255 20 10.6255C20.2486 10.6255 20.4871 10.7243 20.6629 10.9001C20.8387 11.0759 20.9375 11.3143 20.9375 11.563V21.8755C20.9375 22.1241 20.8387 22.3626 20.6629 22.5384C20.4871 22.7142 20.2486 22.813 20 22.813Z" fill="#3B414D"/>
<path d="M20 35.0005C11.7287 35.0005 5 28.2717 5 20.0005C5 11.7292 11.7287 5.00049 20 5.00049C28.2712 5.00049 35 11.7292 35 20.0005C35 28.2717 28.2712 35.0005 20 35.0005ZM20 6.87549C12.7625 6.87549 6.875 12.763 6.875 20.0005C6.875 27.238 12.7625 33.1255 20 33.1255C27.2375 33.1255 33.125 27.238 33.125 20.0005C33.125 12.763 27.2375 6.87549 20 6.87549Z" fill="#3B414D"/>
</svg>
