<svg width="40" height="40" viewBox="0 0 40 40" fill="none" xmlns="http://www.w3.org/2000/svg">
<path d="M20 27.5002C20.7767 27.5002 21.4062 26.8706 21.4062 26.094C21.4062 25.3173 20.7767 24.6877 20 24.6877C19.2233 24.6877 18.5938 25.3173 18.5938 26.094C18.5938 26.8706 19.2233 27.5002 20 27.5002Z" fill="#3B414D"/>
<path d="M20 22.8127C19.7514 22.8127 19.5129 22.714 19.3371 22.5382C19.1613 22.3623 19.0625 22.1239 19.0625 21.8752V11.5627C19.0625 11.3141 19.1613 11.0756 19.3371 10.8998C19.5129 10.724 19.7514 10.6252 20 10.6252C20.2486 10.6252 20.4871 10.724 20.6629 10.8998C20.8387 11.0756 20.9375 11.3141 20.9375 11.5627V21.8752C20.9375 22.1239 20.8387 22.3623 20.6629 22.5382C20.4871 22.714 20.2486 22.8127 20 22.8127Z" fill="#3B414D"/>
<path d="M20 35.0002C11.7287 35.0002 5 28.2715 5 20.0002C5 11.729 11.7287 5.00024 20 5.00024C28.2712 5.00024 35 11.729 35 20.0002C35 28.2715 28.2712 35.0002 20 35.0002ZM20 6.87524C12.7625 6.87524 6.875 12.7627 6.875 20.0002C6.875 27.2377 12.7625 33.1252 20 33.1252C27.2375 33.1252 33.125 27.2377 33.125 20.0002C33.125 12.7627 27.2375 6.87524 20 6.87524Z" fill="#3B414D"/>
</svg>
