<svg width="40" height="40" viewBox="0 0 40 40" fill="none" xmlns="http://www.w3.org/2000/svg">
<path d="M34.6851 25.9913L20.9567 10.4043C20.8323 10.2746 20.683 10.1714 20.5177 10.1009C20.3524 10.0304 20.1746 9.99402 19.9949 9.99402C19.8152 9.99402 19.6374 10.0304 19.4721 10.1009C19.3068 10.1714 19.1575 10.2746 19.0332 10.4043L5.311 25.9913C5.20125 26.1149 5.11748 26.2594 5.06465 26.416C5.01183 26.5727 4.99104 26.7384 5.00352 26.9032C5.01599 27.0681 5.06148 27.2288 5.13727 27.3757C5.21307 27.5226 5.31763 27.6528 5.44474 27.7586L7.75697 29.7046C8.01481 29.922 8.34778 30.0292 8.68402 30.0033C9.02027 29.9773 9.33283 29.8202 9.55426 29.5658L19.7593 17.751C19.7886 17.7169 19.825 17.6895 19.8659 17.6708C19.9067 17.652 19.9512 17.6423 19.9962 17.6423C20.0411 17.6423 20.0856 17.652 20.1265 17.6708C20.1673 17.6895 20.2037 17.7169 20.233 17.751L30.4418 29.5621C30.5518 29.6887 30.6857 29.7924 30.8358 29.8673C30.986 29.9421 31.1494 29.9867 31.3167 29.9983C31.4831 30.0131 31.6508 29.9944 31.8099 29.9434C31.969 29.8923 32.1162 29.8098 32.2429 29.7008L34.5563 27.7536C34.6832 27.6476 34.7874 27.5174 34.863 27.3704C34.9386 27.2235 34.984 27.0629 34.9965 26.8982C35.0089 26.7334 34.9883 26.5678 34.9356 26.4112C34.883 26.2546 34.7995 26.1101 34.6901 25.9863L34.6851 25.9913Z" fill="#3B414D"/>
</svg>
