<svg width="21" height="20" viewBox="0 0 21 20" fill="none" xmlns="http://www.w3.org/2000/svg">
<path d="M14.7188 3.4375C14.8438 3.4375 14.9619 3.48625 15.05 3.575L17.8625 6.3875C17.9063 6.43125 17.9406 6.48313 17.9644 6.54063C17.9663 6.545 17.9681 6.55063 17.97 6.55563C17.9894 6.60625 18 6.66188 18 6.71875C18 6.77438 17.99 6.82875 17.97 6.88188C17.9675 6.88875 17.965 6.89563 17.9625 6.90125C17.9406 6.95438 17.9063 7.00625 17.8625 7.05L15.05 9.8625C14.9613 9.95125 14.8438 10 14.7188 10C14.5938 10 14.4756 9.95125 14.3875 9.8625C14.2988 9.77438 14.25 9.65625 14.25 9.53125C14.25 9.40625 14.2988 9.28813 14.3875 9.2L16.4 7.1875L8.15625 7.1875C5.83 7.1875 3.9375 9.08 3.9375 11.4062C3.9375 13.7325 5.83 15.625 8.15625 15.625L11.9063 15.625C12.165 15.625 12.375 15.835 12.375 16.0937C12.375 16.3525 12.165 16.5625 11.9063 16.5625L8.15625 16.5625C5.31313 16.5625 3 14.2494 3 11.4062C3 8.56313 5.31313 6.25 8.15625 6.25L16.3994 6.25L14.3869 4.2375C14.2988 4.14938 14.25 4.03125 14.25 3.90625C14.25 3.78125 14.2988 3.66313 14.3875 3.575C14.4756 3.48625 14.5938 3.4375 14.7188 3.4375Z" fill="#9CACCC"/>
</svg>
