<svg width="40" height="40" viewBox="0 0 40 40" fill="none" xmlns="http://www.w3.org/2000/svg">
<path d="M26.8368 35.0005C26.5868 35.0005 26.3506 34.903 26.1743 34.7255L12.7743 21.3255C12.4206 20.9717 12.2256 20.5017 12.2256 20.0017C12.2256 19.5017 12.4193 19.0305 12.7731 18.6767L26.1743 5.27549C26.3506 5.09799 26.5868 5.00049 26.8368 5.00049C27.0868 5.00049 27.3231 5.09799 27.4993 5.27549C27.6768 5.45174 27.7743 5.68799 27.7743 5.93799C27.7743 6.18799 27.6768 6.42424 27.4993 6.60049L14.0993 20.0005L27.4993 33.4005C27.6768 33.578 27.7743 33.813 27.7743 34.063C27.7743 34.313 27.6768 34.5492 27.4993 34.7255C27.3218 34.9017 27.0868 35.0005 26.8368 35.0005Z" fill="#3B414D"/>
</svg>
