<svg width="40" height="40" viewBox="0 0 40 40" fill="none" xmlns="http://www.w3.org/2000/svg">
<path d="M13.1635 35.0005C12.9135 35.0005 12.6772 34.903 12.501 34.7255C12.136 34.3605 12.136 33.7655 12.501 33.3992L25.901 20.0005L12.501 6.60049C12.3235 6.42424 12.226 6.18799 12.226 5.93799C12.226 5.68799 12.3235 5.45174 12.501 5.27549C12.6772 5.09799 12.9135 5.00049 13.1635 5.00049C13.4135 5.00049 13.6497 5.09799 13.826 5.27549L27.226 18.6755C27.956 19.4055 27.9572 20.5942 27.2272 21.3242L13.826 34.7255C13.6497 34.903 13.4135 35.0005 13.1635 35.0005Z" fill="#3B414D"/>
</svg>
