<svg width="40" height="40" viewBox="0 0 40 40" fill="none" xmlns="http://www.w3.org/2000/svg">
<path d="M14.375 34.6329C11.8713 34.6329 9.51625 33.6579 7.74625 31.8867C5.97625 30.1154 5 27.7629 5 25.2579C5 22.7529 5.975 20.3992 7.74625 18.6292L19.0163 7.36042C20.225 6.10917 21.8587 5.40042 23.6112 5.36917C23.66 5.36792 23.7113 5.36792 23.7612 5.36792C25.4475 5.36792 27.0538 6.02292 28.2838 7.21042C29.5425 8.42667 30.2525 10.0617 30.2837 11.8167C30.3137 13.5717 29.6613 15.2304 28.445 16.4892C28.3913 16.5442 28.3375 16.5992 28.2825 16.6517L17.0275 27.9142C16.315 28.6029 15.3863 28.9792 14.4062 28.9792H14.3475C13.345 28.9617 12.41 28.5554 11.7137 27.8354C10.3025 26.3754 10.3025 24.0867 11.7125 22.6254L22.9938 11.3404C23.1713 11.1629 23.4062 11.0654 23.6562 11.0654C23.9062 11.0654 24.1413 11.1629 24.3188 11.3392C24.685 11.7054 24.685 12.3004 24.3188 12.6654L13.05 23.9379C12.3538 24.6592 12.3562 25.8004 13.0612 26.5317C13.4087 26.8917 13.8763 27.0942 14.3775 27.1029H14.4175C14.9012 27.1029 15.36 26.9154 15.7125 26.5754L26.97 15.3117C27.0212 15.2629 27.0588 15.2254 27.095 15.1867C28.8913 13.3267 28.84 10.3529 26.9812 8.55792C26.1025 7.70917 24.9462 7.24167 23.7262 7.24167L23.6437 7.24292C22.3925 7.26417 21.2237 7.77292 20.3538 8.67292L9.0725 19.9529C7.655 21.3717 6.875 23.2542 6.875 25.2579C6.875 27.2617 7.655 29.1442 9.07125 30.5617C10.485 31.9754 12.3688 32.7542 14.375 32.7542C16.3813 32.7542 18.2638 31.9754 19.6788 30.5617L33.4 16.8392C33.5775 16.6617 33.8125 16.5642 34.0625 16.5642C34.3125 16.5642 34.5487 16.6617 34.725 16.8392C34.9025 17.0154 35 17.2517 35 17.5017C35 17.7517 34.9025 17.9879 34.725 18.1642L21.0037 31.8867C19.2338 33.6579 16.8787 34.6329 14.375 34.6329Z" fill="#3B414D" class="primary" />
</svg>
