<svg width="20" height="20" viewBox="0 0 20 20" fill="none" xmlns="http://www.w3.org/2000/svg">
<path fill-rule="evenodd" clip-rule="evenodd" d="M6.5101 2.82107C4.09055 3.19418 4.35999 3.15172 4.30294 3.1689C4.06986 3.23912 3.88434 3.38437 3.75704 3.59634C3.70552 3.68211 3.66242 3.80249 3.64537 3.90821C3.64013 3.94061 3.49279 4.89709 3.31791 6.03373C3.01915 7.97559 2.99996 8.10507 3 8.17881C3.00007 8.32589 3.02895 8.45154 3.09253 8.5813C3.11355 8.6242 3.14772 8.6836 3.16846 8.7133C3.2 8.75848 3.88967 9.45107 7.38872 12.9514C9.68914 15.2527 11.5969 17.1572 11.6283 17.1837C12.1236 17.6023 12.8569 17.6047 13.3504 17.1895C13.3817 17.1632 14.3702 16.1781 15.547 15.0005C17.2152 13.3313 17.696 12.8469 17.7289 12.8024C17.9785 12.4653 18.0602 12.0491 17.9554 11.6484C17.9078 11.4661 17.8086 11.2763 17.6836 11.1284C17.6571 11.097 15.7526 9.18924 13.4513 6.88883C9.95096 3.38977 9.25838 2.7001 9.2132 2.66856C9.1835 2.64782 9.1241 2.61366 9.08119 2.59263C8.9478 2.52727 8.82426 2.49966 8.67018 2.50076C8.58672 2.50136 8.49863 2.51442 6.5101 2.82107ZM6.6571 3.88435C5.57796 4.05093 4.69325 4.18901 4.69108 4.19118C4.68891 4.19336 4.55081 5.07942 4.38419 6.16021L4.08125 8.12528L8.20128 12.2461C10.4673 14.5126 12.3341 16.3753 12.3498 16.3854C12.4269 16.4352 12.5328 16.4394 12.62 16.3961C12.6515 16.3804 16.8654 12.1707 16.8886 12.1317C16.9367 12.051 16.9383 11.9422 16.8925 11.8614C16.8819 11.8426 15.5187 10.4751 12.751 7.70677C10.4818 5.4371 8.62385 3.58042 8.62219 3.58079C8.62053 3.58117 7.73624 3.71777 6.6571 3.88435ZM7.31713 5.83609C7.24743 5.84211 7.19027 5.85168 7.13412 5.86672C6.7184 5.97814 6.41487 6.31362 6.34472 6.73923C6.33131 6.82061 6.33136 6.9885 6.34483 7.06901C6.42313 7.53717 6.77536 7.88708 7.24513 7.96336C7.36764 7.98325 7.54107 7.97444 7.66983 7.94177C8.04418 7.84679 8.34669 7.54428 8.44167 7.16993C8.48447 7.00123 8.48447 6.80724 8.44167 6.63854C8.33753 6.22809 7.98994 5.91138 7.5719 5.84605C7.49862 5.8346 7.3856 5.83018 7.31713 5.83609Z" fill="#4E5666" class="primary" />
</svg>
