<svg width="40" height="40" viewBox="0 0 40 40" fill="none" xmlns="http://www.w3.org/2000/svg">
<g clip-path="url(#clip0)">
<rect x="5.00018" y="8.75061" width="29.9997" height="22.4998" fill="#2B9F5A"/>
<path fill-rule="evenodd" clip-rule="evenodd" d="M20 11.5631L7.81262 20.0005L20 28.438L32.1874 20.0005L20 11.5631Z" fill="#FFD018"/>
<path d="M25.625 20.0006C25.625 23.1071 23.1066 25.6255 20 25.6255C16.8934 25.6255 14.3751 23.1071 14.3751 20.0006C14.3751 16.894 16.8934 14.3756 20 14.3756C23.1066 14.3756 25.625 16.894 25.625 20.0006Z" fill="#41479B"/>
<mask id="mask0" mask-type="alpha" maskUnits="userSpaceOnUse" x="14" y="14" width="12" height="12">
<path d="M25.625 20.0006C25.625 23.1071 23.1066 25.6255 20 25.6255C16.8934 25.6255 14.3751 23.1071 14.3751 20.0006C14.3751 16.894 16.8934 14.3756 20 14.3756C23.1066 14.3756 25.625 16.894 25.625 20.0006Z" fill="#41479B"/>
</mask>
<g mask="url(#mask0)">
<path fill-rule="evenodd" clip-rule="evenodd" d="M13.5145 18.8245L13.4375 18.1256C13.3604 17.4267 13.3605 17.4267 13.3607 17.4267L13.3653 17.4262L13.3762 17.425L13.416 17.421C13.4502 17.4176 13.4998 17.4128 13.5635 17.4072C13.6908 17.396 13.8746 17.3813 14.1046 17.3671C14.5643 17.3387 15.2108 17.3119 15.9628 17.318C17.4554 17.3301 19.4102 17.472 21.1474 18.0153C22.8725 18.555 24.3406 19.3892 25.3724 20.0822C25.89 20.4298 26.3021 20.7448 26.5866 20.9745C26.729 21.0895 26.8397 21.1833 26.916 21.2495C26.9542 21.2826 26.9837 21.3088 27.0044 21.3273L27.0286 21.3491L27.0357 21.3555L27.0379 21.3576C27.038 21.3577 27.0392 21.3588 26.5624 21.8756C26.0856 22.3923 26.0857 22.3924 26.0858 22.3925L26.0826 22.3895L26.0662 22.3748C26.0509 22.3611 26.0269 22.3398 25.9946 22.3118C25.9299 22.2557 25.8319 22.1725 25.7032 22.0687C25.4458 21.8608 25.0669 21.5709 24.5884 21.2496C23.6281 20.6046 22.2837 19.8442 20.7276 19.3575C19.1835 18.8745 17.3883 18.7359 15.9513 18.7242C15.2384 18.7184 14.6252 18.7439 14.1913 18.7707C13.9746 18.7841 13.8031 18.7978 13.6869 18.808C13.6288 18.8131 13.5846 18.8174 13.5554 18.8203L13.5232 18.8236L13.5145 18.8245Z" fill="#F5F8FB"/>
</g>
<path d="M18.1251 22.3442C18.1251 22.6031 17.9152 22.813 17.6563 22.813C17.3974 22.813 17.1876 22.6031 17.1876 22.3442C17.1876 22.0854 17.3974 21.8755 17.6563 21.8755C17.9152 21.8755 18.1251 22.0854 18.1251 22.3442Z" fill="#F5F8FB"/>
<path d="M20.9375 23.2817C20.9375 23.5406 20.7276 23.7505 20.4687 23.7505C20.2099 23.7505 20 23.5406 20 23.2817C20 23.0229 20.2099 22.813 20.4687 22.813C20.7276 22.813 20.9375 23.0229 20.9375 23.2817Z" fill="#F5F8FB"/>
<path d="M22.8125 22.3442C22.8125 22.6031 22.6026 22.813 22.3437 22.813C22.0849 22.813 21.875 22.6031 21.875 22.3442C21.875 22.0854 22.0849 21.8755 22.3437 21.8755C22.6026 21.8755 22.8125 22.0854 22.8125 22.3442Z" fill="#F5F8FB"/>
</g>
<defs>
<clipPath id="clip0">
<rect width="40" height="39.9996" fill="white" transform="translate(0 0.000488281)"/>
</clipPath>
</defs>
</svg>
