<svg width="40" height="40" viewBox="0 0 40 40" fill="none" xmlns="http://www.w3.org/2000/svg">
<path d="M11.5625 20.0005C11.045 20.0005 10.625 19.5805 10.625 19.063V17.188C10.625 16.6705 11.045 16.2505 11.5625 16.2505C12.08 16.2505 12.5 16.6705 12.5 17.188V19.063C12.5 19.5805 12.08 20.0005 11.5625 20.0005Z" fill="#3B414D" class="primary"/>
<path d="M17.1875 20.0005C16.67 20.0005 16.25 19.5805 16.25 19.063V17.188C16.25 16.6705 16.67 16.2505 17.1875 16.2505C17.705 16.2505 18.125 16.6705 18.125 17.188V19.063C18.125 19.5805 17.705 20.0005 17.1875 20.0005Z" fill="#3B414D" class="primary"/>
<path d="M22.8125 20.0005C22.295 20.0005 21.875 19.5805 21.875 19.063V17.188C21.875 16.6705 22.295 16.2505 22.8125 16.2505C23.33 16.2505 23.75 16.6705 23.75 17.188V19.063C23.75 19.5805 23.33 20.0005 22.8125 20.0005Z" fill="#3B414D" class="primary"/>
<path d="M28.4375 20.0005C27.92 20.0005 27.5 19.5805 27.5 19.063V17.188C27.5 16.6705 27.92 16.2505 28.4375 16.2505C28.955 16.2505 29.375 16.6705 29.375 17.188V19.063C29.375 19.5805 28.955 20.0005 28.4375 20.0005Z" fill="#3B414D" class="primary"/>
<path d="M11.5625 25.6255C11.045 25.6255 10.625 25.2055 10.625 24.688V22.813C10.625 22.2955 11.045 21.8755 11.5625 21.8755C12.08 21.8755 12.5 22.2955 12.5 22.813V24.688C12.5 25.2055 12.08 25.6255 11.5625 25.6255Z" fill="#3B414D" class="primary"/>
<path d="M17.1875 25.6255C16.67 25.6255 16.25 25.2055 16.25 24.688V22.813C16.25 22.2955 16.67 21.8755 17.1875 21.8755C17.705 21.8755 18.125 22.2955 18.125 22.813V24.688C18.125 25.2055 17.705 25.6255 17.1875 25.6255Z" fill="#3B414D" class="primary"/>
<path d="M22.8125 25.6255C22.295 25.6255 21.875 25.2055 21.875 24.688V22.813C21.875 22.2955 22.295 21.8755 22.8125 21.8755C23.33 21.8755 23.75 22.2955 23.75 22.813V24.688C23.75 25.2055 23.33 25.6255 22.8125 25.6255Z" fill="#3B414D" class="primary"/>
<path d="M28.4375 25.6255C27.92 25.6255 27.5 25.2055 27.5 24.688V22.813C27.5 22.2955 27.92 21.8755 28.4375 21.8755C28.955 21.8755 29.375 22.2955 29.375 22.813V24.688C29.375 25.2055 28.955 25.6255 28.4375 25.6255Z" fill="#3B414D" class="primary"/>
<path d="M7.8125 35.0005C7.295 35.0005 6.875 34.5805 6.875 34.063V14.3755H5.9375C5.42 14.3755 5 13.9555 5 13.438C5 12.9205 5.42 12.5005 5.9375 12.5005H7.08L8.4225 7.13049C8.73625 5.87674 9.85875 5.00049 11.1512 5.00049H28.8488C30.1413 5.00049 31.2638 5.87674 31.5763 7.13049L32.9187 12.5005H34.0625C34.58 12.5005 35 12.9205 35 13.438C35 13.9555 34.58 14.3755 34.0625 14.3755H33.125V34.063C33.125 34.5805 32.705 35.0005 32.1875 35.0005H7.8125ZM31.25 33.1255V14.3755H8.75V33.1255H16.25V30.313C16.25 28.7617 17.5112 27.5005 19.0625 27.5005H20.9375C22.4888 27.5005 23.75 28.7617 23.75 30.313V33.1255H31.25ZM21.875 33.1255V30.313C21.875 29.7955 21.455 29.3755 20.9375 29.3755H19.0625C18.545 29.3755 18.125 29.7955 18.125 30.313V33.1255H21.875ZM30.9875 12.5005L29.7587 7.58549C29.6537 7.16799 29.28 6.87549 28.8488 6.87549H11.1512C10.72 6.87549 10.3462 7.16799 10.2413 7.58549L9.01375 12.5005H30.9875Z" fill="#3B414D" class="primary"/>
<path d="M11.5625 31.2505C11.045 31.2505 10.625 30.8305 10.625 30.313V28.438C10.625 27.9205 11.045 27.5005 11.5625 27.5005C12.08 27.5005 12.5 27.9205 12.5 28.438V30.313C12.5 30.8305 12.08 31.2505 11.5625 31.2505Z" fill="#3B414D" class="primary"/>
<path d="M28.4375 31.2505C27.92 31.2505 27.5 30.8305 27.5 30.313V28.438C27.5 27.9205 27.92 27.5005 28.4375 27.5005C28.955 27.5005 29.375 27.9205 29.375 28.438V30.313C29.375 30.8305 28.955 31.2505 28.4375 31.2505Z" fill="#3B414D" class="primary"/>
</svg>
