<svg width="40" height="40" viewBox="0 0 40 40" fill="none" xmlns="http://www.w3.org/2000/svg">
<path d="M21.009 34.025C19.1582 34.025 17.3515 33.6629 15.6384 32.9506C15.3912 32.8478 15.1987 32.6553 15.0972 32.4081C14.9956 32.1609 14.9956 31.8883 15.0985 31.6411C15.2549 31.2656 15.6183 31.0237 16.0246 31.0237C16.1569 31.0237 16.2865 31.0491 16.4081 31.0999C17.8767 31.7105 19.4242 32.0206 21.0117 32.0206C24.116 32.0206 27.0599 30.8393 29.3022 28.6945C31.6113 26.4842 32.9223 23.5029 32.9931 20.2984C33.0639 17.094 31.8853 14.0565 29.6764 11.7474C27.3966 9.36472 24.3204 8.05246 21.013 8.05246C17.9088 8.05246 14.9662 9.23109 12.7292 11.3732C10.5738 13.4351 9.27086 16.2026 9.05972 19.1679C8.87263 21.8405 9.56084 24.4437 11.0134 26.6366V23.0018C11.0134 22.4486 11.4624 21.9996 12.0156 21.9996C12.5689 21.9996 13.0179 22.4486 13.0179 23.0018V29.0152C13.0179 29.5684 12.5689 30.0174 12.0156 30.0174H11.6976C11.6762 30.0201 11.6562 30.0214 11.6375 30.0214C11.6147 30.0214 11.592 30.0201 11.5693 30.0174H6.00223C5.449 30.0174 5 29.5684 5 29.0152C5 28.462 5.449 28.013 6.00223 28.013H9.52476C7.84367 25.5969 6.96171 22.6904 7.02719 19.7238C7.03387 19.4151 7.05391 19.0917 7.08999 18.7069L7.09935 18.6053C7.10737 18.5171 7.11538 18.4303 7.12474 18.3421L7.13276 18.2819C7.53632 15.0681 9.03299 12.0881 11.3528 9.86851C13.9774 7.35891 17.425 5.97583 21.0598 5.97583C22.9106 5.97583 24.7186 6.3353 26.4305 7.04488C26.5641 7.09967 26.6817 7.18252 26.7779 7.28542C28.4162 8.02306 29.8781 9.05737 31.1249 10.3603C36.4581 15.934 36.2617 24.8085 30.6879 30.1417C28.0714 32.6446 24.6344 34.0237 21.0117 34.0237H21.009V34.025Z" fill="#3B414D" class="primary"/>
</svg>
