<svg width="40" height="40" viewBox="0 0 40 40" fill="none" xmlns="http://www.w3.org/2000/svg">
<path d="M31.25 35.0005C30.7325 35.0005 30.3125 34.5805 30.3125 34.063V28.438C30.3125 26.8867 29.0513 25.6255 27.5 25.6255C25.9487 25.6255 24.6875 26.8867 24.6875 28.438C24.6875 31.023 22.585 33.1255 20 33.1255C17.415 33.1255 15.3125 31.023 15.3125 28.438V25.573C11.0725 25.1042 7.8125 21.503 7.8125 17.188V13.438C7.8125 11.8867 9.07375 10.6255 10.625 10.6255H11.5625V5.93799C11.5625 5.42049 11.9825 5.00049 12.5 5.00049C13.0175 5.00049 13.4375 5.42049 13.4375 5.93799V10.6255H19.0625V5.93799C19.0625 5.42049 19.4825 5.00049 20 5.00049C20.5175 5.00049 20.9375 5.42049 20.9375 5.93799V10.6255H21.875C23.4263 10.6255 24.6875 11.8867 24.6875 13.438V17.188C24.6875 21.5017 21.4275 25.103 17.1875 25.573V28.438C17.1875 29.9892 18.4487 31.2505 20 31.2505C21.5513 31.2505 22.8125 29.9892 22.8125 28.438C22.8125 25.853 24.915 23.7505 27.5 23.7505C30.085 23.7505 32.1875 25.853 32.1875 28.438V34.063C32.1875 34.5805 31.7675 35.0005 31.25 35.0005ZM10.625 12.5005C10.1075 12.5005 9.6875 12.9205 9.6875 13.438V17.188C9.6875 20.8067 12.6312 23.7505 16.25 23.7505C19.8687 23.7505 22.8125 20.8067 22.8125 17.188V13.438C22.8125 12.9205 22.3925 12.5005 21.875 12.5005H10.625Z" fill="#3B414D" class="primary"/>
<path d="M14.375 16.2505C13.8575 16.2505 13.4375 15.8305 13.4375 15.313C13.4375 14.7955 13.8575 14.3755 14.375 14.3755H18.125C18.6425 14.3755 19.0625 14.7955 19.0625 15.313C19.0625 15.8305 18.6425 16.2505 18.125 16.2505H14.375Z" fill="#3B414D" class="primary"/>
</svg>
