<svg width="11" height="9" viewBox="0 0 11 9" fill="none" xmlns="http://www.w3.org/2000/svg">
<path d="M3.60023 7.13135L9.96565 0.765935C10.0744 0.655796 10.2018 0.599407 10.3477 0.596768C10.4936 0.594129 10.6242 0.650518 10.7396 0.765935C10.855 0.881351 10.9127 1.00955 10.9127 1.15052C10.9127 1.29163 10.8577 1.41718 10.7477 1.52718L4.08586 8.19864C3.9503 8.33531 3.79224 8.40364 3.61169 8.40364C3.43099 8.40364 3.27224 8.33531 3.13544 8.19864L0.260439 5.32364C0.150439 5.2135 0.0928002 5.08711 0.0875224 4.94448C0.0821058 4.80198 0.137106 4.67302 0.252522 4.5576C0.367939 4.44218 0.496759 4.38448 0.638981 4.38448C0.781203 4.38448 0.907731 4.44218 1.01856 4.5576L3.60023 7.13135Z" fill="white"/>
</svg>
