<svg width="40" height="40" viewBox="0 0 40 40" fill="none" xmlns="http://www.w3.org/2000/svg">
<path d="M34.8101 11.2317L31.1009 7.5118C31.0391 7.44994 30.9658 7.40086 30.8851 7.36738C30.8044 7.33389 30.7179 7.31665 30.6306 7.31665C30.5432 7.31665 30.4567 7.33389 30.376 7.36738C30.2953 7.40086 30.222 7.44994 30.1603 7.5118L14.4942 23.1885C14.4325 23.2503 14.3592 23.2994 14.2785 23.3329C14.1978 23.3664 14.1113 23.3836 14.0239 23.3836C13.9365 23.3836 13.85 23.3664 13.7693 23.3329C13.6886 23.2994 13.6153 23.2503 13.5536 23.1885L9.84435 19.4686C9.78264 19.4067 9.70934 19.3576 9.62864 19.3242C9.54794 19.2907 9.46142 19.2734 9.37405 19.2734C9.28667 19.2734 9.20016 19.2907 9.11946 19.3242C9.03876 19.3576 8.96545 19.4067 8.90375 19.4686L5.19449 23.1885C5.06996 23.313 5 23.482 5 23.6581C5 23.8343 5.06996 24.0032 5.19449 24.1278L13.5536 32.4882C13.6153 32.5501 13.6886 32.5991 13.7693 32.6326C13.85 32.6661 13.9365 32.6834 14.0239 32.6834C14.1113 32.6834 14.1978 32.6661 14.2785 32.6326C14.3592 32.5991 14.4325 32.5501 14.4942 32.4882L34.8101 12.1617C34.9318 12.0375 35 11.8706 35 11.6967C35 11.5228 34.9318 11.3559 34.8101 11.2317Z" fill="#3B414D" class="primary"/>
</svg>
