<svg width="40" height="40" viewBox="0 0 40 40" fill="none" xmlns="http://www.w3.org/2000/svg">
<path d="M16.6562 27.3965C16.2858 27.398 15.9209 27.3075 15.594 27.1332C15.2672 26.9589 14.9888 26.7062 14.7837 26.3977L11.7337 22.0702C11.6628 21.9695 11.6124 21.8558 11.5855 21.7356C11.5585 21.6155 11.5554 21.4912 11.5765 21.3698C11.5976 21.2484 11.6423 21.1324 11.7082 21.0284C11.7741 20.9243 11.8599 20.8343 11.9606 20.7633C12.0613 20.6924 12.175 20.6421 12.2952 20.6151C12.4154 20.5881 12.5397 20.5851 12.661 20.6061C12.7824 20.6272 12.8984 20.672 13.0025 20.7379C13.1065 20.8038 13.1966 20.8895 13.2675 20.9902L16.33 25.3365C16.3639 25.3927 16.4117 25.4393 16.4689 25.4717C16.526 25.5041 16.5905 25.5212 16.6562 25.5215C16.7136 25.5214 16.7702 25.5079 16.8214 25.4821C16.8726 25.4563 16.9171 25.4188 16.9512 25.3727L26.7662 12.954C26.8403 12.8513 26.9344 12.7646 27.0429 12.6993C27.1514 12.634 27.272 12.5913 27.3974 12.5739C27.5229 12.5564 27.6505 12.5646 27.7727 12.5978C27.8949 12.6311 28.0091 12.6887 28.1084 12.7673C28.2077 12.8459 28.29 12.9438 28.3504 13.0551C28.4109 13.1664 28.4481 13.2888 28.46 13.4149C28.4718 13.5409 28.458 13.6681 28.4193 13.7887C28.3806 13.9093 28.3179 14.0208 28.235 14.1165L18.4312 26.5202C18.2832 26.713 18.1046 26.8802 17.9025 27.0152C17.5344 27.2638 17.1004 27.3966 16.6562 27.3965Z" fill="#3B414D"/>
<path d="M20 35.0002C11.7287 35.0002 5 28.2715 5 20.0002C5 11.729 11.7287 5.00024 20 5.00024C28.2712 5.00024 35 11.729 35 20.0002C35 28.2715 28.2712 35.0002 20 35.0002ZM20 6.87524C12.7625 6.87524 6.875 12.7627 6.875 20.0002C6.875 27.2377 12.7625 33.1252 20 33.1252C27.2375 33.1252 33.125 27.2377 33.125 20.0002C33.125 12.7627 27.2375 6.87524 20 6.87524Z" fill="#3B414D"/>
</svg>
