<svg width="40" height="40" viewBox="0 0 40 40" fill="none" xmlns="http://www.w3.org/2000/svg">
<path d="M19.1123 23.7522C18.9548 23.7522 18.7948 23.7397 18.6398 23.7135C17.8899 23.5885 17.2336 23.1797 16.7924 22.561L12.6751 16.7962C12.3751 16.3763 12.4726 15.7888 12.8926 15.4888C13.0526 15.3751 13.24 15.3138 13.4375 15.3138C13.74 15.3138 14.025 15.4601 14.2013 15.7063L18.3186 21.4698C18.4686 21.681 18.6923 21.8198 18.9486 21.8623C19.0023 21.871 19.0573 21.876 19.1111 21.876C19.3123 21.876 19.506 21.8135 19.671 21.6948C19.7385 21.646 19.7998 21.5898 19.8523 21.526L33.3417 5.33797C33.5205 5.12298 33.7829 5.00049 34.0617 5.00049C34.2804 5.00049 34.4942 5.07799 34.6617 5.21798C34.8541 5.37797 34.9729 5.60296 34.9954 5.85295C35.0179 6.10294 34.9429 6.34543 34.7816 6.53792L21.2922 22.7272C21.136 22.9135 20.9572 23.0797 20.7597 23.221C20.2748 23.5685 19.7048 23.7522 19.1123 23.7522Z" fill="#3B414D"/>
<path d="M9.6877 35.0005C7.10281 35.0005 5.0004 32.8981 5.0004 30.3132V11.564C5.0004 8.97912 7.10281 6.87671 9.6877 6.87671H25.6245C26.142 6.87671 26.562 7.29669 26.562 7.81417C26.562 8.33165 26.142 8.75163 25.6245 8.75163H9.6877C8.13652 8.75163 6.87532 10.0141 6.87532 11.564V30.3132C6.87532 31.8644 8.13652 33.1256 9.6877 33.1256H28.4369C29.9881 33.1256 31.2493 31.8644 31.2493 30.3132V18.1262C31.2493 17.6088 31.6693 17.1888 32.1868 17.1888C32.7042 17.1888 33.1242 17.6088 33.1242 18.1262V30.3132C33.1242 32.8981 31.0218 35.0005 28.4369 35.0005H9.6877Z" fill="#3B414D"/>
</svg>
