<svg width="40" height="40" viewBox="0 0 40 40" fill="none" xmlns="http://www.w3.org/2000/svg">
<path d="M20 5.00049C17.0333 5.00049 14.1332 5.88022 11.6665 7.52844C9.19971 9.17666 7.27713 11.5193 6.14181 14.2602C5.0065 17.0011 4.70945 20.0171 5.28823 22.9268C5.86701 25.8366 7.29562 28.5093 9.3934 30.6071C11.4912 32.7049 14.1639 34.1335 17.0737 34.7123C19.9834 35.291 22.9994 34.994 25.7403 33.8587C28.4811 32.7234 30.8238 30.8008 32.472 28.334C34.1203 25.8673 35 22.9672 35 20.0005C34.9954 16.0237 33.4135 12.211 30.6015 9.399C27.7894 6.58696 23.9768 5.00512 20 5.00049V5.00049ZM28.6588 15.2505L20.1025 26.8617C20.0015 26.9958 19.8748 27.1083 19.7298 27.1929C19.5848 27.2774 19.4244 27.3322 19.258 27.3541C19.0916 27.3759 18.9225 27.3644 18.7606 27.3203C18.5987 27.2761 18.4472 27.2001 18.315 27.0967L12.205 22.2117C12.0768 22.1091 11.9701 21.9823 11.8909 21.8385C11.8117 21.6946 11.7616 21.5366 11.7435 21.3734C11.7069 21.0438 11.8028 20.7132 12.01 20.4542C12.2172 20.1953 12.5188 20.0293 12.8484 19.9927C13.178 19.9562 13.5086 20.052 13.7675 20.2592L18.8625 24.3355L26.6463 13.7717C26.74 13.6311 26.8612 13.511 27.0027 13.4185C27.1441 13.3261 27.3028 13.2633 27.4692 13.2339C27.6357 13.2046 27.8063 13.2093 27.9708 13.2477C28.1354 13.2861 28.2904 13.3576 28.4266 13.4576C28.5628 13.5577 28.6772 13.6843 28.7631 13.8298C28.8489 13.9754 28.9044 14.1368 28.9261 14.3044C28.9478 14.472 28.9353 14.6422 28.8893 14.8048C28.8434 14.9674 28.7649 15.119 28.6588 15.2505Z" fill="#3B414D"/>
</svg>
