<svg width="40" height="40" viewBox="0 0 40 40" fill="none" xmlns="http://www.w3.org/2000/svg">
<path d="M34.0592 34.9979C33.9361 34.9983 33.8142 34.9742 33.7004 34.927C33.5867 34.8798 33.4835 34.8104 33.3969 34.723L19.9995 21.3269L6.60213 34.723C6.51561 34.8108 6.4125 34.8805 6.29879 34.9281C6.18507 34.9757 6.06303 35.0002 5.93976 35.0002C5.81648 35.0002 5.69444 34.9757 5.58073 34.9281C5.46701 34.8805 5.3639 34.8108 5.27739 34.723C5.10209 34.5469 5.00367 34.3085 5.00367 34.06C5.00367 33.8115 5.10209 33.5731 5.27739 33.397L18.6748 19.9996L5.27739 6.6035C5.09992 6.42728 5.00244 6.19108 5.00244 5.94113C5.00244 5.69118 5.09992 5.45497 5.27739 5.27876C5.4536 5.10129 5.68981 5.00381 5.93976 5.00381C6.18971 5.00381 6.42591 5.10129 6.60213 5.27876L19.9995 18.6749L33.3969 5.27751C33.4834 5.18969 33.5865 5.11996 33.7002 5.07236C33.8139 5.02476 33.936 5.00024 34.0592 5.00024C34.1825 5.00024 34.3046 5.02476 34.4183 5.07236C34.532 5.11996 34.6351 5.18969 34.7216 5.27751C34.8092 5.3643 34.8787 5.46757 34.9261 5.58137C34.9735 5.69516 34.9979 5.81722 34.9979 5.9405C34.9979 6.06378 34.9735 6.18584 34.9261 6.29964C34.8787 6.41343 34.8092 6.5167 34.7216 6.6035L21.3242 20.0009L34.7216 33.3982C34.8969 33.5744 34.9953 33.8127 34.9953 34.0612C34.9953 34.3097 34.8969 34.5481 34.7216 34.7242C34.6347 34.8113 34.5315 34.8803 34.4178 34.9273C34.3041 34.9742 34.1822 34.9983 34.0592 34.9979Z" fill="#3B414D"/>
</svg>
