<svg width="40" height="40" viewBox="0 0 40 40" fill="none" xmlns="http://www.w3.org/2000/svg">
<path d="M8.77881 35.0005C7.22756 35.0005 5.96631 33.7392 5.96631 32.188V7.81299C5.96631 6.26174 7.22756 5.00049 8.77881 5.00049H27.5288C28.2663 5.00049 28.9626 5.28424 29.4926 5.79924L33.1863 9.40299C33.7251 9.93049 34.0338 10.6642 34.0338 11.4167V32.188C34.0338 33.7392 32.7726 35.0005 31.2213 35.0005H8.77881ZM8.77881 6.87549C8.26131 6.87549 7.84131 7.29549 7.84131 7.81299V32.188C7.84131 32.7055 8.26131 33.1255 8.77881 33.1255H31.2213C31.7388 33.1255 32.1588 32.7055 32.1588 32.188V11.4167C32.1588 11.1655 32.0563 10.9205 31.8763 10.7455L28.1826 7.14174C28.0076 6.97049 27.7751 6.87549 27.5288 6.87549H8.77881Z" fill="#3B414D" class="primary" />
</svg>
