<svg width="40" height="40" viewBox="0 0 40 40" fill="none" xmlns="http://www.w3.org/2000/svg">
<path d="M15.2273 5.00049H9.77275C8.64308 5.00049 7.72729 5.91627 7.72729 7.04594V32.955C7.72729 34.0847 8.64308 35.0005 9.77275 35.0005H15.2273C16.357 35.0005 17.2728 34.0847 17.2728 32.955V7.04594C17.2728 5.91627 16.357 5.00049 15.2273 5.00049Z" fill="#3B414D" class="primary" />
<path d="M30.2273 5.00049H24.7727C23.6431 5.00049 22.7273 5.91627 22.7273 7.04594V32.955C22.7273 34.0847 23.6431 35.0005 24.7727 35.0005H30.2273C31.357 35.0005 32.2728 34.0847 32.2728 32.955V7.04594C32.2728 5.91627 31.357 5.00049 30.2273 5.00049Z" fill="#3B414D" class="primary" />
</svg>
