<svg width="40" height="40" viewBox="0 0 40 40" fill="none" xmlns="http://www.w3.org/2000/svg">
<path d="M7.81312 35.0005C6.26193 35.0005 5.00073 33.7393 5.00073 32.1881V11.564C5.00073 10.0128 6.26193 8.75158 7.81312 8.75158H11.5117L11.0855 7.46914C10.9267 6.99541 10.9617 6.48793 11.1855 6.04044C11.408 5.59171 11.7917 5.25798 12.2667 5.09923C12.4604 5.03424 12.6492 5.00049 12.8254 5.00049L12.8867 5.00174H23.3862C23.8874 5.00174 24.3562 5.19548 24.7099 5.54672C25.0649 5.90045 25.2611 6.37043 25.2624 6.87041C25.2636 7.0754 25.2299 7.27789 25.1649 7.47289L24.7374 8.75158H28.4373C29.9884 8.75158 31.2496 10.0128 31.2496 11.564V15.3138C31.2496 15.8313 30.8297 16.2513 30.3122 16.2513C29.7947 16.2513 29.3747 15.8313 29.3747 15.3138V11.564C29.3747 11.0465 28.9547 10.6265 28.4373 10.6265H24.1124L23.9149 11.219C23.6587 11.9852 22.945 12.5014 22.1363 12.5014H14.1141C13.3066 12.5014 12.5917 11.9864 12.3354 11.2202L12.1367 10.6265H7.81312C7.29564 10.6265 6.87565 11.0465 6.87565 11.564V32.1881C6.87565 32.7056 7.29564 33.1256 7.81312 33.1256H15.3128C15.8303 33.1256 16.2503 33.5455 16.2503 34.063C16.2503 34.5805 15.8303 35.0005 15.3128 35.0005H7.81312ZM12.8617 6.87666L14.1129 10.6265H22.1363L23.3862 6.87666H12.8617Z" fill="#3B414D" class="primary"/>
<path d="M20.9377 35.0004C19.3865 35.0004 18.1253 33.7392 18.1253 32.188V20.9385C18.1253 19.3873 19.3865 18.1261 20.9377 18.1261H32.1872C33.7384 18.1261 34.9996 19.3873 34.9996 20.9385V32.188C34.9996 33.7392 33.7384 35.0004 32.1872 35.0004H20.9377ZM20.9377 20.001C20.4202 20.001 20.0002 20.421 20.0002 20.9385V32.188C20.0002 32.7055 20.4202 33.1255 20.9377 33.1255H32.1872C32.7047 33.1255 33.1247 32.7055 33.1247 32.188V20.9385C33.1247 20.421 32.7047 20.001 32.1872 20.001H20.9377Z" fill="#3B414D" class="primary"/>
<path d="M22.8124 23.751C22.2949 23.751 21.8749 23.331 21.8749 22.8136C21.8749 22.2961 22.2949 21.8761 22.8124 21.8761H30.3121C30.8296 21.8761 31.2495 22.2961 31.2495 22.8136C31.2495 23.331 30.8296 23.751 30.3121 23.751H22.8124Z" fill="#3B414D" class="primary"/>
<path d="M22.8124 27.5008C22.2949 27.5008 21.8749 27.0808 21.8749 26.5633C21.8749 26.0458 22.2949 25.6259 22.8124 25.6259H30.3121C30.8296 25.6259 31.2495 26.0458 31.2495 26.5633C31.2495 27.0808 30.8296 27.5008 30.3121 27.5008H22.8124Z" fill="#3B414D" class="primary"/>
<path d="M22.8124 31.2507C22.2949 31.2507 21.8749 30.8307 21.8749 30.3132C21.8749 29.7957 22.2949 29.3757 22.8124 29.3757H25.6248C26.1423 29.3757 26.5622 29.7957 26.5622 30.3132C26.5622 30.8307 26.1423 31.2507 25.6248 31.2507H22.8124Z" fill="#3B414D" class="primary"/>
</svg>
