<svg width="72" height="72" viewBox="0 0 72 72" fill="none" xmlns="http://www.w3.org/2000/svg">
<circle cx="36" cy="36" r="35.5" fill="white" stroke="#E2E6ED"/>
<path d="M36.0008 35.6667C40.0509 35.6667 43.3341 32.3834 43.3341 28.3333C43.3341 24.2832 40.0509 21 36.0008 21C31.9507 21 28.6675 24.2832 28.6675 28.3333C28.6675 32.3834 31.9507 35.6667 36.0008 35.6667Z" fill="#D0D3D9"/>
<path d="M36.0007 37.667C32.6424 37.6709 29.4229 39.0066 27.0483 41.3813C24.6736 43.7559 23.3379 46.9754 23.334 50.3337C23.334 50.5105 23.4042 50.68 23.5292 50.8051C23.6543 50.9301 23.8238 51.0003 24.0007 51.0003H48.0007C48.1775 51.0003 48.347 50.9301 48.4721 50.8051C48.5971 50.68 48.6673 50.5105 48.6673 50.3337C48.6634 46.9754 47.3277 43.7559 44.9531 41.3813C42.5784 39.0066 39.3589 37.6709 36.0007 37.667Z" fill="#D0D3D9"/>
</svg>
