<svg width="40" height="40" viewBox="0 0 40 40" fill="none" xmlns="http://www.w3.org/2000/svg">
<path d="M20 35.0005C16.0325 35.0005 12.2925 33.4617 9.4625 30.6655C9.44 30.6505 9.415 30.6305 9.39 30.6042C9.375 30.588 9.35625 30.5655 9.33875 30.5417C6.54125 27.7117 5 23.9705 5 20.0005C5 11.7292 11.7287 5.00049 20 5.00049C23.9675 5.00049 27.7087 6.53924 30.5375 9.33549C30.5588 9.35049 30.5812 9.36799 30.6038 9.39049C30.6225 9.40799 30.6425 9.43299 30.6612 9.45924C33.46 12.2892 35 16.0305 35 20.0005C35 28.2717 28.2712 35.0005 20 35.0005ZM11.4125 29.9142C13.8025 31.9892 16.8325 33.1255 20 33.1255C27.2375 33.1255 33.125 27.238 33.125 20.0005C33.125 16.833 31.9888 13.803 29.9137 11.413L11.4125 29.9142ZM20 6.87549C12.7625 6.87549 6.875 12.763 6.875 20.0005C6.875 23.168 8.0125 26.198 10.0862 28.588L28.5875 10.0867C26.1975 8.01299 23.1675 6.87549 20 6.87549Z" fill="#3B414D"/>
</svg>
