<svg width="40" height="40" viewBox="0 0 40 40" fill="none" xmlns="http://www.w3.org/2000/svg">
<path d="M20.0255 5.33637C16.4495 5.3353 12.9904 6.61004 10.2703 8.93137C7.55013 11.2527 5.74737 14.4683 5.18617 18C4.62496 21.5317 5.34212 25.1477 7.2087 28.1979C9.07527 31.2481 11.9688 33.5323 15.369 34.6398H15.732C15.9091 34.6508 16.0865 34.624 16.2525 34.5612C16.4184 34.4984 16.5691 34.401 16.6946 34.2756C16.8201 34.1501 16.9174 33.9994 16.9802 33.8334C17.043 33.6675 17.0698 33.49 17.0588 33.3129V33.0501V31.6857C17.0465 31.6037 17.0181 31.5249 16.9751 31.454C16.9321 31.3831 16.8755 31.3214 16.8085 31.2726C16.7358 31.2138 16.6508 31.172 16.5598 31.1503C16.4688 31.1287 16.3742 31.1277 16.2827 31.1474C12.9281 31.8734 12.2146 29.7705 12.1645 29.6328C11.7444 28.5201 10.9929 27.5633 10.0115 26.8915C9.95269 26.8406 9.8899 26.7946 9.82373 26.7538C9.96919 26.6755 10.1356 26.6448 10.2994 26.6662C10.614 26.7099 10.9119 26.8343 11.1642 27.0274C11.4164 27.2204 11.6144 27.4755 11.7389 27.7677C12.2231 28.6108 13.0155 29.2333 13.9494 29.5041C14.8832 29.7749 15.8857 29.673 16.7459 29.2197C16.8382 29.1794 16.9194 29.1173 16.9826 29.0389C17.0458 28.9604 17.0891 28.8679 17.1089 28.7691C17.1568 28.1901 17.4046 27.6458 17.8099 27.2294C17.8998 27.1495 17.9649 27.0454 17.9972 26.9295C18.0295 26.8136 18.0277 26.6909 17.992 26.576C17.9564 26.461 17.8884 26.3588 17.7961 26.2816C17.7039 26.2044 17.5913 26.1553 17.4719 26.1404C14.5053 25.8024 11.476 24.7635 11.476 19.6438C11.451 18.3582 11.9216 17.1121 12.7904 16.164C12.8704 16.0756 12.9235 15.9662 12.9434 15.8487C12.9634 15.7312 12.9494 15.6104 12.903 15.5006C12.5551 14.5286 12.5596 13.4654 12.9155 12.4964C14.0719 12.7014 15.1573 13.1967 16.07 13.9359C16.1453 13.9891 16.2318 14.0246 16.3228 14.0398C16.4138 14.0549 16.5071 14.0494 16.5957 14.0235C17.7139 13.7202 18.8669 13.5645 20.0255 13.5604C21.1884 13.5613 22.346 13.7171 23.4678 14.0235C23.5545 14.0474 23.6455 14.052 23.7341 14.0368C23.8228 14.0217 23.9071 13.9872 23.981 13.9359C24.895 13.199 25.9798 12.704 27.1354 12.4964C27.4762 13.4602 27.4762 14.5117 27.1354 15.4755C27.0891 15.5854 27.075 15.7061 27.095 15.8237C27.1149 15.9412 27.1681 16.0506 27.2481 16.139C28.1078 17.0776 28.5778 18.3085 28.5624 19.5813C28.5624 24.7009 25.5207 25.7273 22.5415 26.0653C22.4193 26.078 22.3036 26.1264 22.2087 26.2045C22.1138 26.2825 22.044 26.3868 22.008 26.5042C21.9719 26.6217 21.9713 26.7471 22.006 26.865C22.0408 26.9828 22.1095 27.0878 22.2035 27.1669C22.4808 27.453 22.6927 27.796 22.8245 28.172C22.9563 28.5481 23.005 28.9482 22.9671 29.3449V33.3255C22.9609 33.5211 22.9981 33.7158 23.076 33.8954C23.1539 34.075 23.2706 34.2352 23.4177 34.3644C23.6051 34.5047 23.8226 34.5992 24.053 34.6405C24.2833 34.6818 24.5202 34.6687 24.7446 34.6022C28.1219 33.4724 30.988 31.1793 32.8313 28.1321C34.6746 25.0849 35.3754 21.482 34.8084 17.966C34.2415 14.4501 32.4438 11.25 29.7361 8.9367C27.0283 6.62339 23.5868 5.34739 20.0255 5.33637Z" fill="#3B414D"/>
</svg>
