<svg width="40" height="40" viewBox="0 0 40 40" fill="none" xmlns="http://www.w3.org/2000/svg">
<path d="M20 25.6255C19.89 25.6255 19.7813 25.6055 19.675 25.5667C19.665 25.563 19.6562 25.5605 19.6475 25.5567C19.5275 25.508 19.4238 25.4392 19.3363 25.3505L13.7125 19.7255C13.535 19.5492 13.4375 19.313 13.4375 19.063C13.4375 18.813 13.535 18.5767 13.7125 18.4005C13.8888 18.223 14.125 18.1255 14.375 18.1255C14.625 18.1255 14.8613 18.223 15.0375 18.4005L19.0625 22.4255V9.68799C19.0625 9.17049 19.4825 8.75049 20 8.75049C20.5175 8.75049 20.9375 9.17049 20.9375 9.68799V22.4242L24.9625 18.3992C25.14 18.2217 25.375 18.1242 25.625 18.1242C25.875 18.1242 26.1113 18.2217 26.2875 18.3992C26.465 18.5755 26.5625 18.8117 26.5625 19.0617C26.5625 19.3117 26.465 19.548 26.2875 19.7242L20.6625 25.3492C20.575 25.4367 20.4713 25.5055 20.355 25.5542C20.345 25.558 20.3337 25.563 20.3225 25.5667C20.2162 25.6067 20.1088 25.6255 20 25.6255Z" fill="#3B414D" class="primary"/>
<path d="M9.6875 31.2505C7.1025 31.2505 5 29.148 5 26.563V24.688C5 24.1705 5.42 23.7505 5.9375 23.7505C6.455 23.7505 6.875 24.1705 6.875 24.688V26.563C6.875 28.1142 8.13625 29.3755 9.6875 29.3755H30.3125C31.8638 29.3755 33.125 28.1142 33.125 26.563V24.688C33.125 24.1705 33.545 23.7505 34.0625 23.7505C34.58 23.7505 35 24.1705 35 24.688V26.563C35 29.148 32.8975 31.2505 30.3125 31.2505H9.6875Z" fill="#3B414D" class="primary"/>
</svg>
