<svg width="40" height="40" viewBox="0 0 40 40" fill="none" xmlns="http://www.w3.org/2000/svg">
<g clip-path="url(#clip0)">
<path d="M8.00003 31C7.20459 30.9993 6.44194 30.683 5.87949 30.1206C5.31703 29.5581 5.00074 28.7955 5.00003 28V12.0001C4.99699 11.315 5.23166 10.6501 5.66403 10.1187L5.6947 10.0827C5.97527 9.74335 6.32748 9.47028 6.72605 9.28309C7.12462 9.09591 7.55969 8.99925 8.00003 9.00007H32C32.4501 8.99967 32.8944 9.10076 33.3 9.29582C33.7056 9.49089 34.062 9.7749 34.3427 10.1267L34.3667 10.1614C34.7813 10.6934 35 11.3281 35 12.0001V28C34.9993 28.7955 34.683 29.5581 34.1205 30.1206C33.5581 30.683 32.7954 30.9993 32 31H8.00003ZM7.00003 28C7.00003 28.552 7.44803 29 8.00003 29H32C32.2652 29 32.5196 28.8947 32.7071 28.7072C32.8946 28.5196 33 28.2653 33 28V12.4161L23.2987 19.8774C22.3519 20.6029 21.1928 20.997 20 20.9987C18.812 20.9987 17.64 20.6001 16.7014 19.8774L7.00003 12.4161V28ZM17.92 18.2921C18.512 18.7481 19.2507 18.9987 20 18.9987C20.7493 18.9987 21.4867 18.7481 22.0787 18.2921L31.56 10.9987H8.43869L17.92 18.2921Z" fill="#3B414D"/>
</g>
<defs>
<clipPath id="clip0">
<rect width="40" height="40" fill="white" transform="translate(0 0.000244141)"/>
</clipPath>
</defs>
</svg>
