<svg width="40" height="40" viewBox="0 0 40 40" fill="none" xmlns="http://www.w3.org/2000/svg">
<g clip-path="url(#clip0)">
<path d="M8.00003 31.0002C7.20459 30.9995 6.44194 30.6832 5.87949 30.1208C5.31703 29.5583 5.00074 28.7957 5.00003 28.0002V12.0002C4.99699 11.3152 5.23166 10.6503 5.66403 10.1189L5.6947 10.0829C5.97527 9.74354 6.32748 9.47046 6.72605 9.28327C7.12462 9.09609 7.55969 8.99944 8.00003 9.00025H32C32.4501 8.99985 32.8944 9.10094 33.3 9.296C33.7056 9.49107 34.062 9.77508 34.3427 10.1269L34.3667 10.1616C34.7813 10.6936 35 11.3282 35 12.0002V28.0002C34.9993 28.7957 34.683 29.5583 34.1205 30.1208C33.5581 30.6832 32.7954 30.9995 32 31.0002H8.00003ZM7.00003 28.0002C7.00003 28.5522 7.44803 29.0002 8.00003 29.0002H32C32.2652 29.0002 32.5196 28.8949 32.7071 28.7073C32.8946 28.5198 33 28.2654 33 28.0002V12.4162L23.2987 19.8776C22.3519 20.6031 21.1928 20.9972 20 20.9989C18.812 20.9989 17.64 20.6002 16.7014 19.8776L7.00003 12.4162V28.0002ZM17.92 18.2922C18.512 18.7482 19.2507 18.9989 20 18.9989C20.7493 18.9989 21.4867 18.7482 22.0787 18.2922L31.56 10.9989H8.43869L17.92 18.2922Z" fill="#3B414D" class="primary" />
</g>
<defs>
<clipPath id="clip0">
<rect width="40" height="40" fill="white" transform="translate(0 0.000488281)"/>
</clipPath>
</defs>
</svg>
