<svg width="40" height="40" viewBox="0 0 40 40" fill="none" xmlns="http://www.w3.org/2000/svg">
<path d="M5.9375 16.2505C5.42 16.2505 5 15.8305 5 15.313V7.81299C5 6.26174 6.26125 5.00049 7.8125 5.00049H15.3125C15.83 5.00049 16.25 5.42049 16.25 5.93799C16.25 6.45549 15.83 6.87549 15.3125 6.87549H7.8125C7.295 6.87549 6.875 7.29549 6.875 7.81299V15.313C6.875 15.8305 6.455 16.2505 5.9375 16.2505Z" fill="#3B414D" class="primary"/>
<path d="M34.0625 16.2505C33.545 16.2505 33.125 15.8305 33.125 15.313V7.81299C33.125 7.29549 32.705 6.87549 32.1875 6.87549H24.6875C24.17 6.87549 23.75 6.45549 23.75 5.93799C23.75 5.42049 24.17 5.00049 24.6875 5.00049H32.1875C33.7387 5.00049 35 6.26174 35 7.81299V15.313C35 15.8305 34.58 16.2505 34.0625 16.2505Z" fill="#3B414D" class="primary"/>
<path d="M24.6875 35.0005C24.17 35.0005 23.75 34.5805 23.75 34.063C23.75 33.5455 24.17 33.1255 24.6875 33.1255H32.1875C32.705 33.1255 33.125 32.7055 33.125 32.188V24.688C33.125 24.1705 33.545 23.7505 34.0625 23.7505C34.58 23.7505 35 24.1705 35 24.688V32.188C35 33.7392 33.7387 35.0005 32.1875 35.0005H24.6875Z" fill="#3B414D" class="primary"/>
<path d="M7.8125 35.0005C6.26125 35.0005 5 33.7392 5 32.188V20.938C5 19.3867 6.26125 18.1255 7.8125 18.1255H19.0625C20.6138 18.1255 21.875 19.3867 21.875 20.938V32.188C21.875 33.7392 20.6138 35.0005 19.0625 35.0005H7.8125ZM7.8125 20.0005C7.295 20.0005 6.875 20.4205 6.875 20.938V32.188C6.875 32.7055 7.295 33.1255 7.8125 33.1255H19.0625C19.58 33.1255 20 32.7055 20 32.188V20.938C20 20.4205 19.58 20.0005 19.0625 20.0005H7.8125Z" fill="#3B414D" class="primary"/>
</svg>
