<svg width="40" height="40" viewBox="0 0 40 40" fill="none" xmlns="http://www.w3.org/2000/svg">
<path fill-rule="evenodd" clip-rule="evenodd" d="M32.7357 8.04565C33.6311 8.04565 34.4187 8.54899 34.7906 9.35793C35.1614 10.1601 35.0333 11.0769 34.458 11.7499L24.4918 23.3321H19.9977H15.5036L5.54224 11.7499C4.967 11.0781 4.83891 10.1613 5.20855 9.35906C5.58156 8.55012 6.36916 8.04678 7.26461 8.04678L32.7357 8.04565ZM15.5036 26.6654V30.9352C15.5036 31.3498 15.4815 31.7307 15.8467 31.9262C16.0515 31.9262 16.3201 31.9262 16.5021 31.9262C16.7201 31.9262 17.0074 31.9262 17.2532 31.9262L23.9918 31.9542C24.3041 31.7453 24.4918 31.3947 24.4918 31.0195V26.6654H19.9979H15.5036Z" fill="#3B414D" class="primary"/>
</svg>
