<svg width="40" height="40" viewBox="0 0 40 40" fill="none" xmlns="http://www.w3.org/2000/svg">
<path d="M19.8222 31.9333C14.8875 31.9333 9.52286 30.5671 6.47305 28.5335C4.31694 27.0948 4.52567 22.9763 7.11301 15.943C7.93671 13.6919 9.12788 11.6133 10.654 9.7634C11.549 8.68472 12.8639 8.06726 14.2626 8.06726H18.1261C20.7109 8.06726 22.8133 10.1696 22.8133 12.7545C22.8133 15.3393 20.7109 17.4417 18.1261 17.4417H15.7437C15.135 18.1941 14.7075 19.0828 14.495 20.024C15.5312 19.3528 16.5937 19.0141 17.6623 19.0141C18.8548 19.0141 20.0372 19.4378 21.1859 20.274C22.0096 17.2742 24.7956 15.0943 27.9617 15.0918C29.8453 15.0918 31.609 15.8205 32.9351 17.1454C34.265 18.4716 34.9987 20.2365 35 22.1151C35.0012 23.82 34.3863 25.4624 33.2676 26.7461C33.2526 26.7661 33.2376 26.7861 33.2214 26.8048C30.409 30.1109 25.6493 31.9333 19.8222 31.9333ZM14.2651 9.94214C13.4251 9.94214 12.6352 10.3134 12.1002 10.9596C10.709 12.642 9.6241 14.5369 8.87415 16.588C6.4143 23.2738 6.5593 26.3361 7.51424 26.9723C10.3153 28.8397 15.0688 30.0584 19.6235 30.0759H19.731C24.9994 30.0759 29.2604 28.5072 31.7315 25.6599C31.754 25.6274 31.779 25.5962 31.8065 25.5662C32.6589 24.6175 33.1289 23.3913 33.1264 22.1151C33.1251 20.7377 32.5877 19.444 31.6127 18.4704C30.639 17.4992 29.3454 16.9642 27.9704 16.9642C25.1219 16.9679 22.812 19.2828 22.8145 22.1264C22.8145 22.5113 22.5845 22.8526 22.2283 22.9976C22.1158 23.0426 21.9983 23.0663 21.8771 23.0663C21.6233 23.0663 21.3771 22.9613 21.2009 22.7776C19.9972 21.5239 18.8073 20.8889 17.6636 20.8889C16.5149 20.8889 15.3212 21.5252 14.1151 22.7788C13.9388 22.9613 13.6926 23.0663 13.4401 23.0663C13.3351 23.0663 13.2314 23.0488 13.1326 23.0138C12.7902 22.8951 12.5439 22.5838 12.5077 22.2226C12.3014 20.184 12.8864 18.1104 14.1176 16.478C13.2826 15.0856 13.4851 13.2582 14.6525 12.0908C14.83 11.9133 15.065 11.8158 15.3162 11.8158C15.5662 11.8158 15.8012 11.9133 15.9787 12.0895C16.1562 12.267 16.2537 12.502 16.2537 12.7532C16.2537 13.0032 16.1562 13.2394 15.98 13.4157C15.405 13.9906 15.3237 14.8981 15.7587 15.5655H18.1286C19.6797 15.5655 20.9409 14.3044 20.9409 12.7532C20.9409 11.2021 19.6797 9.94089 18.1286 9.94089H14.2651V9.94214Z" fill="#3B414D" class="primary" />
</svg>
