<svg width="40" height="40" viewBox="0 0 40 40" fill="none" xmlns="http://www.w3.org/2000/svg">
<path d="M18.1254 35.0005C18.0391 35.0005 17.9541 34.988 17.8716 34.9655C17.4691 34.8517 17.1879 34.4805 17.1879 34.063V23.7505H13.7791C13.3679 23.7505 12.9666 23.6367 12.6166 23.4217C11.5766 22.7817 11.2516 21.4142 11.8916 20.3742L21.0766 5.44674C21.2454 5.17174 21.5516 5.00049 21.8754 5.00049C21.9616 5.00049 22.0479 5.01299 22.1304 5.03549C22.5316 5.14924 22.8129 5.52049 22.8129 5.93799V16.2505H26.2216C26.6316 16.2505 27.0329 16.3642 27.3816 16.5792C28.4229 17.2192 28.7491 18.5867 28.1079 19.628L18.9241 34.5542C18.7541 34.8292 18.4491 35.0005 18.1254 35.0005ZM13.4891 21.3567C13.3904 21.5167 13.4404 21.7267 13.6004 21.8255C13.6541 21.8592 13.7154 21.8767 13.7779 21.8767H18.1254C18.6429 21.8767 19.0629 22.2967 19.0629 22.8142V30.7517L26.5116 18.6467C26.6104 18.4867 26.5604 18.2755 26.3991 18.178C26.3454 18.1442 26.2829 18.1267 26.2204 18.1267H21.8754C21.3579 18.1267 20.9379 17.7067 20.9379 17.1892V9.25174L13.4891 21.3567Z" fill="#3B414D"/>
</svg>
