<svg width="40" height="40" viewBox="0 0 40 40" fill="none" xmlns="http://www.w3.org/2000/svg">
<path d="M30.5551 16.591C30.5024 16.4893 30.4228 16.4041 30.3249 16.3445C30.227 16.285 30.1147 16.2536 30.0002 16.2536H20.7816L23.1112 5.76272C23.143 5.62193 23.125 5.4745 23.0603 5.34547C22.9957 5.21644 22.8884 5.11376 22.7566 5.05487C22.6248 4.99599 22.4768 4.98452 22.3375 5.02242C22.1983 5.06033 22.0764 5.14526 21.9927 5.2628L9.49463 22.7601C9.42669 22.8535 9.38599 22.964 9.37705 23.0791C9.36811 23.1943 9.39128 23.3097 9.44398 23.4126C9.49668 23.5154 9.57685 23.6016 9.67559 23.6616C9.77433 23.7215 9.88776 23.753 10.0033 23.7524H19.2219L16.8922 34.2383C16.8605 34.379 16.8785 34.5265 16.9431 34.6555C17.0078 34.7845 17.1151 34.8872 17.2469 34.9461C17.3786 35.005 17.5267 35.0165 17.666 34.9786C17.8052 34.9407 17.9271 34.8557 18.0108 34.7382L30.5088 17.2409C30.5756 17.1473 30.6152 17.0371 30.6234 16.9225C30.6315 16.8078 30.6079 16.6931 30.5551 16.591Z" fill="#3B414D"/>
</svg>
