<svg width="40" height="40" viewBox="0 0 40 40" fill="none" xmlns="http://www.w3.org/2000/svg">
<path d="M26.8765 15.0019H21.7508L27.4066 5.95438C27.4651 5.8598 27.4973 5.75134 27.4999 5.64017C27.5025 5.529 27.4754 5.41915 27.4214 5.32195C27.3673 5.22474 27.2884 5.14371 27.1926 5.08721C27.0968 5.0307 26.9877 5.00076 26.8765 5.00049H16.8751C16.7356 5.00053 16.6002 5.04718 16.4903 5.13304C16.3805 5.21889 16.3025 5.33902 16.2687 5.47431L12.5182 20.4765C12.4952 20.5686 12.4935 20.6648 12.5132 20.7576C12.533 20.8505 12.5736 20.9377 12.632 21.0125C12.6905 21.0873 12.7652 21.1479 12.8505 21.1895C12.9359 21.2312 13.0296 21.2528 13.1245 21.2528H17.3064L13.7721 34.2135C13.7329 34.3567 13.746 34.5092 13.809 34.6437C13.872 34.7781 13.9808 34.8858 14.1159 34.9473C14.2514 35.0065 14.4032 35.0166 14.5453 34.976C14.6874 34.9354 14.811 34.8466 14.8948 34.7248L27.3966 15.9721C27.4589 15.878 27.4946 15.7687 27.4998 15.656C27.505 15.5432 27.4796 15.4312 27.4263 15.3317C27.3729 15.2322 27.2937 15.149 27.1969 15.091C27.1001 15.0329 26.9894 15.0021 26.8765 15.0019V15.0019Z" fill="#3B414D"/>
</svg>
