<svg width="40" height="40" viewBox="0 0 40 40" fill="none" xmlns="http://www.w3.org/2000/svg">
<path d="M32.6316 11.3163H17.6316C17.5257 11.3161 17.421 11.2946 17.3236 11.2531C17.2262 11.2116 17.1382 11.151 17.0647 11.0748L14.9474 8.88318C14.7257 8.65403 14.4603 8.47178 14.1668 8.34727C13.8733 8.22277 13.5578 8.15856 13.2389 8.15845H7.82C7.07262 8.15928 6.35607 8.45644 5.82744 8.98477C5.29881 9.5131 5.00125 10.2295 5 10.9769V29.0242C5.00125 29.7716 5.29881 30.488 5.82744 31.0163C6.35607 31.5447 7.07262 31.8418 7.82 31.8427H32.18C32.9274 31.8418 33.6439 31.5447 34.1726 31.0163C34.7012 30.488 34.9987 29.7716 35 29.0242V13.6848C35 13.0566 34.7505 12.4542 34.3063 12.01C33.8621 11.5659 33.2597 11.3163 32.6316 11.3163Z" fill="#3B414D" class="primary"/>
</svg>
