<svg width="40" height="40" viewBox="0 0 40 40" fill="none" xmlns="http://www.w3.org/2000/svg">
<path d="M8.21429 32.8577C6.44143 32.8577 5 31.4163 5 29.6434V10.3577C5 8.58486 6.44143 7.14343 8.21429 7.14343H13.5714C14.5771 7.14343 15.5386 7.62343 16.1429 8.42915L18.3929 11.4291H31.7857C33.5586 11.4291 35 12.8706 35 14.6434V29.6434C35 31.4163 33.5586 32.8577 31.7857 32.8577H8.21429ZM8.21429 9.28629C7.62286 9.28629 7.14286 9.76629 7.14286 10.3577V29.6434C7.14286 30.2349 7.62286 30.7149 8.21429 30.7149H31.7857C32.3771 30.7149 32.8571 30.2349 32.8571 29.6434V14.6434C32.8571 14.052 32.3771 13.572 31.7857 13.572H17.8571C17.5214 13.572 17.2014 13.412 17 13.1434L14.4286 9.71486C14.2271 9.44629 13.9071 9.28629 13.5714 9.28629H8.21429Z" fill="#3B414D" class="primary"/>
</svg>
