<svg width="40" height="40" viewBox="0 0 40 40" fill="none" xmlns="http://www.w3.org/2000/svg">
<path d="M20 9.37549C16.0231 9.37979 12.2103 10.9615 9.39815 13.7736C6.58604 16.5858 5.0043 20.3986 5 24.3755L5 27.5005C5 28.3293 5.32924 29.1241 5.91529 29.7102C6.50134 30.2962 7.2962 30.6255 8.125 30.6255H31.875C32.2854 30.6255 32.6917 30.5447 33.0709 30.3876C33.45 30.2306 33.7945 30.0004 34.0847 29.7102C34.3749 29.42 34.6051 29.0755 34.7621 28.6964C34.9192 28.3172 35 27.9109 35 27.5005V24.3755C34.9957 20.3986 33.414 16.5858 30.6019 13.7736C27.7897 10.9615 23.9769 9.37979 20 9.37549ZM31.875 25.938H29.375C29.1264 25.938 28.8879 25.8392 28.7121 25.6634C28.5363 25.4876 28.4375 25.2491 28.4375 25.0005C28.4375 24.7518 28.5363 24.5134 28.7121 24.3376C28.8879 24.1618 29.1264 24.063 29.375 24.063H31.875C32.1236 24.063 32.3621 24.1618 32.5379 24.3376C32.7137 24.5134 32.8125 24.7518 32.8125 25.0005C32.8125 25.2491 32.7137 25.4876 32.5379 25.6634C32.3621 25.8392 32.1236 25.938 31.875 25.938ZM28.4325 21.168C28.2263 21.1675 28.0261 21.0991 27.8627 20.9735C27.6992 20.8478 27.5817 20.6718 27.5282 20.4727C27.4748 20.2736 27.4883 20.0625 27.5668 19.8718C27.6453 19.6812 27.7843 19.5217 27.9625 19.418L30.1275 18.168C30.2342 18.1064 30.352 18.0665 30.4741 18.0505C30.5962 18.0344 30.7203 18.0426 30.8393 18.0745C30.9583 18.1064 31.0698 18.1615 31.1675 18.2365C31.2652 18.3115 31.3472 18.405 31.4088 18.5117C31.4703 18.6184 31.5102 18.7362 31.5263 18.8583C31.5423 18.9805 31.5342 19.1046 31.5022 19.2236C31.4703 19.3425 31.4153 19.4541 31.3402 19.5518C31.2652 19.6495 31.1717 19.7314 31.065 19.793L28.9 21.043C28.758 21.1255 28.5967 21.1686 28.4325 21.168ZM23.4375 24.3755C23.4365 25.0979 23.2075 25.8016 22.7833 26.3864C22.359 26.9712 21.7611 27.4071 21.0746 27.6322C20.3881 27.8574 19.6481 27.8601 18.9599 27.6402C18.2718 27.4202 17.6706 26.9887 17.2419 26.4072C16.8133 25.8256 16.5791 25.1237 16.5726 24.4013C16.5662 23.6788 16.7879 22.9728 17.2061 22.3837C17.6243 21.7946 18.2177 21.3525 18.9018 21.1203C19.5859 20.8881 20.3259 20.8776 21.0163 21.0905L25.6925 13.893C25.7596 13.7897 25.8465 13.7007 25.948 13.631C26.0495 13.5613 26.1638 13.5123 26.2843 13.4868C26.4048 13.4612 26.5291 13.4597 26.6502 13.4822C26.7713 13.5047 26.8867 13.5508 26.99 13.618C27.0933 13.6851 27.1823 13.7719 27.252 13.8735C27.3217 13.975 27.3707 14.0893 27.3962 14.2098C27.4218 14.3303 27.4233 14.4546 27.4008 14.5757C27.3783 14.6968 27.3321 14.8122 27.265 14.9155L22.5863 22.1155C23.1356 22.7401 23.4382 23.5437 23.4375 24.3755ZM15.24 17.3755C15.0248 17.4981 14.77 17.5315 14.5304 17.4684C14.2909 17.4053 14.0856 17.2508 13.9587 17.038L12.7087 14.873C12.5844 14.6575 12.5508 14.4015 12.6153 14.1612C12.6797 13.9209 12.837 13.7161 13.0525 13.5917C13.268 13.4674 13.524 13.4338 13.7643 13.4983C14.0046 13.5627 14.2094 13.72 14.3337 13.9355L15.5837 16.1005C15.7066 16.3153 15.7394 16.57 15.6749 16.8089C15.6105 17.0478 15.4542 17.2515 15.24 17.3755ZM11.1 21.0405L8.935 19.7905C8.71951 19.6662 8.56224 19.4613 8.49777 19.2211C8.4333 18.9808 8.46693 18.7247 8.59125 18.5092C8.71557 18.2937 8.9204 18.1365 9.16068 18.072C9.40096 18.0075 9.65701 18.0412 9.8725 18.1655L12.0375 19.4155C12.144 19.4774 12.2373 19.5597 12.3119 19.6577C12.3865 19.7558 12.4411 19.8675 12.4725 19.9867C12.5038 20.1058 12.5113 20.23 12.4946 20.352C12.4779 20.4741 12.4372 20.5917 12.375 20.698C12.2483 20.9092 12.0446 21.063 11.8067 21.1269C11.5688 21.1908 11.3155 21.1598 11.1 21.0405ZM11.5625 25.0005C11.5625 25.2491 11.4637 25.4876 11.2879 25.6634C11.1121 25.8392 10.8736 25.938 10.625 25.938H8.125C7.87636 25.938 7.6379 25.8392 7.46209 25.6634C7.28627 25.4876 7.1875 25.2491 7.1875 25.0005C7.1875 24.7518 7.28627 24.5134 7.46209 24.3376C7.6379 24.1618 7.87636 24.063 8.125 24.063H10.625C10.8736 24.063 11.1121 24.1618 11.2879 24.3376C11.4637 24.5134 11.5625 24.7518 11.5625 25.0005ZM20 11.563C20.2486 11.563 20.4871 11.6618 20.6629 11.8376C20.8387 12.0134 20.9375 12.2518 20.9375 12.5005V15.0005C20.9375 15.2491 20.8387 15.4876 20.6629 15.6634C20.4871 15.8392 20.2486 15.938 20 15.938C19.7514 15.938 19.5129 15.8392 19.3371 15.6634C19.1613 15.4876 19.0625 15.2491 19.0625 15.0005V12.5005C19.0625 12.2518 19.1613 12.0134 19.3371 11.8376C19.5129 11.6618 19.7514 11.563 20 11.563Z" fill="#3B414D" class="primary"/>
<path d="M20 25.938C20.8629 25.938 21.5625 25.2384 21.5625 24.3755C21.5625 23.5125 20.8629 22.813 20 22.813C19.1371 22.813 18.4375 23.5125 18.4375 24.3755C18.4375 25.2384 19.1371 25.938 20 25.938Z" fill="#3B414D" class="primary"/>
</svg>
