<svg width="40" height="40" viewBox="0 0 40 40" fill="none" xmlns="http://www.w3.org/2000/svg">
<path d="M20 35.0005C18.4487 35.0005 17.1875 33.7392 17.1875 32.188C17.1875 30.6367 18.4487 29.3755 20 29.3755H21.875C23.075 29.3755 24.135 30.1442 24.5263 31.2505H26.5625C28.1138 31.2505 29.375 29.9892 29.375 28.438C28.3412 28.438 27.5 27.5967 27.5 26.563V17.188C27.5 16.1705 28.3162 15.3392 29.3275 15.313C28.8563 10.5442 24.85 6.87549 20 6.87549C15.15 6.87549 11.1438 10.5442 10.6725 15.313C11.6838 15.3392 12.5 16.1705 12.5 17.188V26.563C12.5 27.5967 11.6588 28.438 10.625 28.438H9.6875C7.1025 28.438 5 26.3355 5 23.7505V20.0005C5 17.738 6.60125 15.8267 8.78375 15.4017C9.22 9.53799 14.0737 5.00049 20 5.00049C25.9263 5.00049 30.7812 9.53799 31.2162 15.4017C33.3988 15.8267 35 17.738 35 20.0005V23.7505C35 25.9992 33.415 27.9042 31.25 28.3417V28.438C31.25 31.023 29.1475 33.1255 26.5625 33.1255H24.5263C24.135 34.2317 23.075 35.0005 21.875 35.0005H20ZM20 31.2505C19.4825 31.2505 19.0625 31.6705 19.0625 32.188C19.0625 32.7055 19.4825 33.1255 20 33.1255H21.875C22.3925 33.1255 22.8125 32.7055 22.8125 32.188C22.8125 31.6705 22.3925 31.2505 21.875 31.2505H20ZM29.375 26.563H30.3125C31.8638 26.563 33.125 25.3017 33.125 23.7505V20.0005C33.125 18.4492 31.8638 17.188 30.3125 17.188H29.375V26.563ZM9.6875 17.188C8.13625 17.188 6.875 18.4492 6.875 20.0005V23.7505C6.875 25.3017 8.13625 26.563 9.6875 26.563H10.625V17.188H9.6875Z" fill="#3B414D"/>
</svg>
