<svg width="40" height="40" viewBox="0 0 40 40" fill="none" xmlns="http://www.w3.org/2000/svg">
<path d="M26.9147 34.9992C26.3972 34.9992 25.9772 34.5792 25.9772 34.0617V28.8117C25.9772 28.478 26.1572 28.1655 26.4472 27.9992C28.8397 26.623 30.6047 24.3005 31.2897 21.6267C31.9722 18.9617 31.5759 16.1905 30.1747 13.8242C28.9922 11.828 27.1847 10.3005 25.0384 9.47049V14.8742C26.2334 15.943 26.9134 17.458 26.9134 19.063C26.9134 22.1642 24.3897 24.688 21.2884 24.688C21.0559 24.688 20.8222 24.673 20.5834 24.6405C18.6909 27.5692 15.3984 29.3755 11.9134 29.3755H10.0384C9.52094 29.3755 9.10094 28.9555 9.10094 28.438C9.10094 27.9205 9.52219 27.5005 10.0384 27.5005H11.9134C14.6147 27.5005 17.1159 26.223 18.7084 24.0567C16.8409 23.0955 15.6634 21.193 15.6634 19.063C15.6634 17.4567 16.3434 15.943 17.5384 14.8742V9.28424C13.5884 10.5017 10.9772 13.6217 10.9772 17.2017V18.1392C10.9772 18.3242 10.9234 18.5042 10.8197 18.6592L8.54469 22.0705C8.48469 22.1605 8.44094 22.258 8.41594 22.363C8.35469 22.6055 8.39219 22.858 8.52094 23.073C8.64969 23.288 8.85469 23.4392 9.09719 23.5005L10.2672 23.793C10.5097 23.853 10.7147 24.0055 10.8434 24.2192C10.9722 24.4342 11.0097 24.6867 10.9484 24.9292C10.8447 25.3467 10.4709 25.6392 10.0397 25.6392C9.96344 25.6392 9.88719 25.6292 9.81344 25.6117L8.64219 25.3192C7.91344 25.1367 7.29844 24.6817 6.91219 24.0367C6.52594 23.3917 6.41344 22.6367 6.59594 21.908C6.67469 21.5942 6.80469 21.2992 6.98344 21.0305L9.10094 17.8555V17.2017C9.10094 12.658 12.5509 8.64674 17.5372 7.33424V6.87549C17.5372 5.84174 18.3784 5.00049 19.4122 5.00049H23.1622C24.1959 5.00049 25.0372 5.84174 25.0372 6.87549V7.48549C27.8759 8.39424 30.2622 10.2955 31.7859 12.8692C33.4422 15.6667 33.9109 18.943 33.1034 22.093C32.3422 25.063 30.4347 27.6905 27.8497 29.3405V34.063C27.8522 34.5792 27.4322 34.9992 26.9147 34.9992ZM21.2884 18.1255C21.8059 18.1255 22.2259 18.5455 22.2259 19.063C22.2259 20.358 21.9897 21.6142 21.5222 22.8055C23.4822 22.6842 25.0384 21.0517 25.0384 19.063C25.0384 16.9955 23.3559 15.313 21.2884 15.313C19.2209 15.313 17.5384 16.9955 17.5384 19.063C17.5384 20.5017 18.3709 21.8067 19.6484 22.4292C20.1147 21.3655 20.3509 20.2355 20.3509 19.063C20.3509 18.5455 20.7722 18.1255 21.2884 18.1255ZM21.2884 13.438C21.9334 13.438 22.5622 13.5467 23.1634 13.763V6.87549H19.4134V13.763C20.0147 13.5467 20.6434 13.438 21.2884 13.438Z" fill="#3B414D"/>
<path d="M15.6646 35.0006C15.1471 35.0006 14.7271 34.5806 14.7271 34.0631V32.3706L14.5596 32.3981C14.3034 32.4418 14.0409 32.4643 13.7821 32.4643C13.3921 32.4643 12.9996 32.4143 12.6171 32.3156C12.1171 32.1856 11.8146 31.6731 11.9446 31.1731C12.0521 30.7593 12.4259 30.4706 12.8521 30.4706C12.9309 30.4706 13.0096 30.4806 13.0859 30.5006C13.3146 30.5593 13.5484 30.5906 13.7821 30.5906C13.9371 30.5906 14.0946 30.5768 14.2496 30.5506L15.5121 30.3418C15.5621 30.3331 15.6146 30.3293 15.6671 30.3293C15.8884 30.3293 16.1034 30.4081 16.2721 30.5518C16.4821 30.7306 16.6034 30.9918 16.6034 31.2668V34.0656C16.6022 34.5806 16.1821 35.0006 15.6646 35.0006Z" fill="#3B414D"/>
</svg>
