<svg width="40" height="40" viewBox="0 0 40 40" fill="none" xmlns="http://www.w3.org/2000/svg">
<path d="M35 22.8145C35.0003 21.6519 34.6398 20.5179 33.9683 19.5689C33.2967 18.62 32.3471 17.9029 31.2506 17.5166V16.5655C31.2506 13.5822 30.0655 10.7212 27.9561 8.61178C25.8466 6.50234 22.9856 5.31726 20.0024 5.31726C17.0192 5.31726 14.1582 6.50234 12.0487 8.61178C9.93928 10.7212 8.75421 13.5822 8.75421 16.5655V17.5166C7.65652 17.9035 6.70593 18.6215 6.03351 19.5715C5.3611 20.5216 5 21.6568 5 22.8207C5 23.9846 5.3611 25.1198 6.03351 26.0699C6.70593 27.0199 7.65652 27.7379 8.75421 28.1249C9.03755 28.225 9.34082 28.2556 9.63846 28.2141C9.9361 28.1725 10.2194 28.06 10.4644 27.886C10.7095 27.712 10.9091 27.4816 11.0465 27.2144C11.1839 26.9471 11.255 26.6507 11.2538 26.3501V16.5655C11.2538 15.4166 11.4801 14.2789 11.9198 13.2175C12.3594 12.1561 13.0038 11.1916 13.8162 10.3793C14.6286 9.56688 15.593 8.92247 16.6545 8.48281C17.7159 8.04315 18.8535 7.81686 20.0024 7.81686C21.1513 7.81686 22.2889 8.04315 23.3503 8.48281C24.4118 8.92247 25.3762 9.56688 26.1886 10.3793C27.001 11.1916 27.6454 12.1561 28.0851 13.2175C28.5247 14.2789 28.751 15.4166 28.751 16.5655V26.3501C28.7537 26.6102 28.8107 26.8668 28.9183 27.1035C29.0259 27.3403 29.1818 27.5519 29.3759 27.7249V28.4348C29.3759 30.277 27.7624 30.9344 26.2514 30.9344H24.0293C23.7541 30.4579 23.3295 30.0854 22.8211 29.8749C22.3127 29.6643 21.7491 29.6274 21.2176 29.7698C20.6861 29.9122 20.2164 30.226 19.8815 30.6625C19.5465 31.0991 19.3649 31.634 19.3649 32.1842C19.3649 32.7344 19.5465 33.2693 19.8815 33.7059C20.2164 34.1424 20.6861 34.4562 21.2176 34.5986C21.7491 34.741 22.3127 34.7041 22.8211 34.4935C23.3295 34.283 23.7541 33.9105 24.0293 33.434H26.2514C29.5621 33.434 31.8755 31.3781 31.8755 28.4348V27.8374C32.8115 27.373 33.5996 26.6571 34.1515 25.7699C34.7034 24.8827 34.9972 23.8593 35 22.8145Z" fill="#3B414D" class="primary" />
</svg>
