<svg width="40" height="40" viewBox="0 0 40 40" fill="none" xmlns="http://www.w3.org/2000/svg">
<path d="M35 20.6255C35 20.1282 34.8025 19.6513 34.4508 19.2997C34.0992 18.948 33.6223 18.7505 33.125 18.7505H24.0625C23.9796 18.7505 23.9001 18.7176 23.8415 18.659C23.7829 18.6004 23.75 18.5209 23.75 18.438V16.2505C23.75 15.4217 23.4208 14.6268 22.8347 14.0408C22.2487 13.4547 21.4538 13.1255 20.625 13.1255H15.625C15.4592 13.1255 15.3003 13.0596 15.1831 12.9424C15.0658 12.8252 15 12.6662 15 12.5005V10.3117C15.0003 10.2291 15.0334 10.1499 15.092 10.0916C15.1505 10.0332 15.2298 10.0005 15.3125 10.0005H20C20.4973 10.0005 20.9742 9.80294 21.3258 9.45131C21.6775 9.09968 21.875 8.62277 21.875 8.12549V6.87549C21.875 6.37821 21.6775 5.90129 21.3258 5.54966C20.9742 5.19803 20.4973 5.00049 20 5.00049H6.875C6.37772 5.00049 5.90081 5.19803 5.54917 5.54966C5.19754 5.90129 5 6.37821 5 6.87549V8.12549C5 8.62277 5.19754 9.09968 5.54917 9.45131C5.90081 9.80294 6.37772 10.0005 6.875 10.0005H12.1875C12.2704 10.0005 12.3499 10.0334 12.4085 10.092C12.4671 10.1506 12.5 10.2301 12.5 10.313V12.5005C12.5 13.3293 12.8292 14.1241 13.4153 14.7102C14.0013 15.2962 14.7962 15.6255 15.625 15.6255H20.625C20.7908 15.6255 20.9497 15.6913 21.0669 15.8085C21.1842 15.9258 21.25 16.0847 21.25 16.2505V18.438C21.25 18.5209 21.2171 18.6004 21.1585 18.659C21.0999 18.7176 21.0204 18.7505 20.9375 18.7505H20C19.5027 18.7505 19.0258 18.948 18.6742 19.2997C18.3225 19.6513 18.125 20.1282 18.125 20.6255V21.8755C18.125 22.3728 18.3225 22.8497 18.6742 23.2013C19.0258 23.5529 19.5027 23.7505 20 23.7505H26.5625C26.6454 23.7505 26.7249 23.7834 26.7835 23.842C26.8421 23.9006 26.875 23.9801 26.875 24.063V30.6255C26.875 30.7912 26.8092 30.9502 26.6919 31.0674C26.5747 31.1846 26.4158 31.2505 26.25 31.2505H21.9438C21.8913 31.2506 21.8399 31.2358 21.7956 31.2076C21.7513 31.1795 21.7159 31.1393 21.6937 31.0917C21.5446 30.7675 21.3059 30.4926 21.0059 30.2993C20.7059 30.106 20.3569 30.0023 20 30.0005H6.875C6.37772 30.0005 5.90081 30.198 5.54917 30.5497C5.19754 30.9013 5 31.3782 5 31.8755V33.1255C5 33.6228 5.19754 34.0997 5.54917 34.4513C5.90081 34.8029 6.37772 35.0005 6.875 35.0005H20C20.3571 34.9989 20.7064 34.8954 21.0066 34.702C21.3069 34.5087 21.5457 34.2337 21.695 33.9092C21.7169 33.8615 21.7522 33.8211 21.7966 33.7929C21.8409 33.7648 21.8925 33.75 21.945 33.7505H26.25C27.0788 33.7505 27.8737 33.4212 28.4597 32.8352C29.0458 32.2491 29.375 31.4543 29.375 30.6255V24.063C29.375 23.9801 29.4079 23.9006 29.4665 23.842C29.5251 23.7834 29.6046 23.7505 29.6875 23.7505H33.125C33.6223 23.7505 34.0992 23.5529 34.4508 23.2013C34.8025 22.8497 35 22.3728 35 21.8755V20.6255Z" fill="#3B414D"/>
</svg>
