<svg width="40" height="40" viewBox="0 0 40 40" fill="none" xmlns="http://www.w3.org/2000/svg">
<path d="M22.812 33.6741C22.2945 33.6741 21.8744 33.2541 21.8744 32.7366V25.2362C21.8744 24.7187 21.4544 24.2987 20.9369 24.2987H19.0618C18.5443 24.2987 18.1243 24.7187 18.1243 25.2362V32.7366C18.1243 33.2541 17.7043 33.6741 17.1868 33.6741H9.68644C9.16892 33.6741 8.7489 33.2541 8.7489 32.7366V22.4236C8.7489 21.9061 9.16892 21.4861 9.68644 21.4861C10.204 21.4861 10.624 21.9061 10.624 22.4236V31.799H16.2492V25.2362C16.2492 23.6849 17.5105 22.4236 19.0618 22.4236H20.9369C22.4882 22.4236 23.7495 23.6849 23.7495 25.2362V31.799H29.3748V22.4236C29.3748 21.9061 29.7948 21.4861 30.3123 21.4861C30.8298 21.4861 31.2498 21.9061 31.2498 22.4236V32.7366C31.2498 33.2541 30.8298 33.6741 30.3123 33.6741H22.812Z" fill="#3B414D" class="primary"/>
<path d="M5.93629 21.4862C5.68628 21.4862 5.45002 21.3887 5.27376 21.2112C4.90875 20.8461 4.90875 20.2511 5.27376 19.8848L18.0105 7.14932C18.5406 6.61804 19.2468 6.32678 19.9994 6.32678C20.7507 6.32678 21.4569 6.61929 21.9882 7.14932L34.7262 19.8873C35.0913 20.2524 35.0913 20.8474 34.7262 21.2137C34.5487 21.3912 34.3137 21.4887 34.0637 21.4887C33.8137 21.4887 33.5774 21.3912 33.4012 21.2137L20.6632 8.47437C20.4856 8.29811 20.2506 8.20061 19.9994 8.20061C19.7481 8.20061 19.5131 8.29811 19.3368 8.47437L6.59882 21.2112C6.42256 21.3887 6.1863 21.4862 5.93629 21.4862Z" fill="#3B414D" class="primary"/>
</svg>
