<svg width="40" height="40" viewBox="0 0 40 40" fill="none" xmlns="http://www.w3.org/2000/svg">
<path d="M20 5.00049C17.0333 5.00049 14.1332 5.88022 11.6665 7.52844C9.19971 9.17666 7.27713 11.5193 6.14181 14.2602C5.0065 17.0011 4.70945 20.0171 5.28823 22.9268C5.86701 25.8366 7.29562 28.5093 9.3934 30.6071C11.4912 32.7049 14.1639 34.1335 17.0737 34.7123C19.9834 35.291 22.9994 34.994 25.7403 33.8587C28.4811 32.7234 30.8238 30.8008 32.472 28.334C34.1203 25.8673 35 22.9672 35 20.0005C34.9957 16.0236 33.414 12.2107 30.6019 9.39864C27.7897 6.58652 23.9769 5.00479 20 5.00049V5.00049ZM20.3125 11.2505C20.6833 11.2505 21.0459 11.3605 21.3542 11.5665C21.6625 11.7725 21.9029 12.0653 22.0448 12.408C22.1867 12.7506 22.2238 13.1276 22.1515 13.4913C22.0791 13.855 21.9006 14.1891 21.6383 14.4513C21.3761 14.7135 21.042 14.8921 20.6783 14.9645C20.3146 15.0368 19.9376 14.9997 19.595 14.8578C19.2524 14.7158 18.9595 14.4755 18.7535 14.1672C18.5475 13.8588 18.4375 13.4963 18.4375 13.1255C18.4375 12.6282 18.635 12.1513 18.9867 11.7997C19.3383 11.448 19.8152 11.2505 20.3125 11.2505ZM23.125 28.1255H18.125C17.7935 28.1255 17.4755 27.9938 17.2411 27.7594C17.0067 27.5249 16.875 27.207 16.875 26.8755C16.875 26.544 17.0067 26.226 17.2411 25.9916C17.4755 25.7572 17.7935 25.6255 18.125 25.6255H19.0625C19.1454 25.6255 19.2249 25.5926 19.2835 25.534C19.3421 25.4753 19.375 25.3959 19.375 25.313V19.688C19.375 19.6051 19.3421 19.5256 19.2835 19.467C19.2249 19.4084 19.1454 19.3755 19.0625 19.3755H18.125C17.7935 19.3755 17.4755 19.2438 17.2411 19.0094C17.0067 18.7749 16.875 18.457 16.875 18.1255C16.875 17.794 17.0067 17.476 17.2411 17.2416C17.4755 17.0072 17.7935 16.8755 18.125 16.8755H19.375C20.038 16.8755 20.6739 17.1389 21.1428 17.6077C21.6116 18.0766 21.875 18.7124 21.875 19.3755V25.313C21.875 25.3959 21.9079 25.4753 21.9665 25.534C22.0251 25.5926 22.1046 25.6255 22.1875 25.6255H23.125C23.4565 25.6255 23.7745 25.7572 24.0089 25.9916C24.2433 26.226 24.375 26.544 24.375 26.8755C24.375 27.207 24.2433 27.5249 24.0089 27.7594C23.7745 27.9938 23.4565 28.1255 23.125 28.1255Z" fill="#3B414D"/>
</svg>
