<svg width="40" height="40" viewBox="0 0 40 40" fill="none" xmlns="http://www.w3.org/2000/svg">
<path d="M10.625 25.6255C10.375 25.6255 10.1388 25.528 9.9625 25.3505L5.275 20.663C5.1875 20.5755 5.11875 20.4717 5.07125 20.3567C5.0675 20.348 5.06375 20.3367 5.06 20.3267C5.02125 20.2255 5 20.1142 5 20.0005C5 19.8892 5.02 19.7805 5.06 19.6742C5.0625 19.6655 5.06625 19.6567 5.07 19.648C5.12 19.5267 5.18875 19.4242 5.2775 19.3367L9.9625 14.6505C10.14 14.473 10.375 14.3755 10.625 14.3755C10.875 14.3755 11.1113 14.473 11.2875 14.6505C11.465 14.8267 11.5625 15.063 11.5625 15.313C11.5625 15.563 11.465 15.7992 11.2875 15.9755L8.2 19.063H34.0625C34.58 19.063 35 19.483 35 20.0005C35 20.518 34.58 20.938 34.0625 20.938H8.20125L11.2888 24.0255C11.4662 24.203 11.5637 24.438 11.5637 24.688C11.5637 24.938 11.4662 25.1742 11.2888 25.3505C11.1113 25.528 10.875 25.6255 10.625 25.6255Z" fill="#3B414D" class="primary"/>
</svg>
