<svg width="40" height="40" viewBox="0 0 40 40" fill="none" xmlns="http://www.w3.org/2000/svg">
<path d="M7.15925 22.8122C6.58177 22.811 6.03929 22.586 5.63181 22.1773C5.22558 21.7685 5.00184 21.2261 5.00309 20.6486V7.1629C5.00184 6.58792 5.22558 6.04419 5.63306 5.63671C6.04054 5.22798 6.58177 5.00174 7.15925 5.00049L16.9126 5.01674C18.1013 5.02174 19.0675 5.99295 19.065 7.1804V20.6486C19.0675 21.8373 18.1013 22.8085 16.9113 22.8122H16.9101H7.15925ZM7.1605 6.87541C7.08425 6.87541 7.0155 6.90416 6.96176 6.95916C6.90676 7.01415 6.87801 7.08415 6.87801 7.1604V20.6498C6.87801 20.7286 6.90676 20.7998 6.96051 20.8536C7.0155 20.9086 7.08425 20.9373 7.1605 20.9373H16.9088C17.0638 20.9373 17.1901 20.8086 17.1901 20.6511V7.17915C17.1901 7.0204 17.0626 6.89291 16.9063 6.89166L7.1605 6.87541Z" fill="#3B414D" class="primary"/>
<path d="M23.0911 15.3126C22.5136 15.3126 21.9798 15.0926 21.5749 14.6951C21.1661 14.2926 20.9386 13.7551 20.9349 13.1814V7.15665C20.9424 5.97545 21.9049 5.01674 23.0811 5.01674L32.8356 5.00049C34.0231 5.00049 34.9868 5.9567 34.9968 7.1329V13.1726C34.9881 14.3551 34.0243 15.3126 32.8481 15.3126H23.0911ZM23.0848 6.89166C22.9336 6.89166 22.8111 7.0129 22.8098 7.16165V13.1726C22.8098 13.2401 22.8386 13.3076 22.8911 13.3589C22.9561 13.4226 23.0348 13.4364 23.0898 13.4376H32.8406C32.9969 13.4376 33.1206 13.3164 33.1219 13.1664V7.1404C33.1206 6.99666 32.9969 6.87541 32.8469 6.87541C32.8469 6.87541 23.0861 6.89166 23.0848 6.89166Z" fill="#3B414D" class="primary"/>
<path d="M7.15549 34.983C5.97179 34.983 5.00933 34.0242 5.00308 32.8455V26.8295C5.00933 25.6471 5.97304 24.6871 7.15174 24.6871H16.9088C18.0938 24.6871 19.0575 25.6458 19.065 26.8245V32.8555C19.0612 33.4355 18.835 33.9742 18.4263 34.3792C18.0213 34.7792 17.4838 34.9992 16.9151 34.9992L7.15549 34.983ZM7.13549 26.5621C6.99675 26.5621 6.87925 26.6871 6.878 26.8345V32.8405C6.87925 32.9868 7.00175 33.108 7.15174 33.108L16.9101 33.1243C16.9888 33.1243 17.0413 33.1105 17.1076 33.0443C17.1613 32.9918 17.1901 32.9243 17.1901 32.8505V26.8295C17.1888 26.6833 17.0663 26.5621 16.9151 26.5621H7.13549Z" fill="#3B414D" class="primary"/>
<path d="M23.0911 34.9993C22.5136 34.998 21.9711 34.7718 21.5636 34.363C21.1574 33.9543 20.9336 33.4118 20.9349 32.8343V19.3512C20.9336 18.7774 21.1561 18.235 21.5636 17.825C21.9711 17.415 22.5123 17.1887 23.0886 17.1875H32.8406C33.4194 17.1887 33.9618 17.415 34.3693 17.825C34.7768 18.2337 34.9993 18.7774 34.9968 19.3549V32.8206C34.9993 34.0068 34.0343 34.978 32.8469 34.9843L23.0948 35.0005C23.0936 34.9993 23.0911 34.9993 23.0911 34.9993ZM23.0923 19.0624C22.9361 19.0637 22.8098 19.1912 22.8098 19.3487V32.8356C22.8098 32.9156 22.8386 32.9856 22.8923 33.0406C22.9473 33.0956 23.0161 33.1243 23.0936 33.1243L32.8394 33.1081C32.9944 33.1068 33.1219 32.9781 33.1219 32.8206V19.3512C33.1219 19.2712 33.0931 19.2012 33.0394 19.1462C32.9856 19.0912 32.9156 19.0624 32.8381 19.0624H23.0923Z" fill="#3B414D" class="primary"/>
</svg>
