<svg width="40" height="40" viewBox="0 0 40 40" fill="none" xmlns="http://www.w3.org/2000/svg">
<g clip-path="url(#clip0)">
<path d="M14.4923 14.2913C14.3444 14.2909 14.1986 14.2558 14.0668 14.1887C13.935 14.1216 13.8209 14.0244 13.7336 13.905L11.5286 10.8713C11.4279 10.7312 11.3676 10.5662 11.3545 10.3942C11.3413 10.2222 11.3757 10.0499 11.454 9.89621C11.5322 9.74249 11.6512 9.61324 11.7979 9.52264C11.9447 9.43203 12.1136 9.38355 12.2861 9.38251C12.434 9.38244 12.5799 9.4174 12.7118 9.48453C12.8437 9.55166 12.9578 9.64906 13.0448 9.76876L15.2498 12.8025C15.351 12.9424 15.4116 13.1075 15.425 13.2797C15.4384 13.4518 15.404 13.6243 15.3257 13.7782C15.2474 13.9321 15.1282 14.0614 14.9812 14.1519C14.8341 14.2425 14.665 14.2907 14.4923 14.2913Z" fill="#3B414D"/>
<path d="M11.086 18.9789C10.9879 18.9791 10.8904 18.9635 10.7973 18.9326L7.23104 17.7739C6.99487 17.6966 6.79891 17.5289 6.68601 17.3076C6.5731 17.0862 6.55244 16.8292 6.62854 16.5926C6.66623 16.4754 6.72671 16.3669 6.80651 16.2732C6.88631 16.1795 6.98384 16.1025 7.0935 16.0466C7.20317 15.9907 7.32279 15.9571 7.44551 15.9476C7.56822 15.9381 7.69159 15.953 7.80854 15.9914L11.3748 17.1501C11.5096 17.151 11.6426 17.1809 11.7648 17.2379C11.8869 17.2949 11.9953 17.3776 12.0825 17.4804C12.1698 17.5832 12.2338 17.7035 12.2702 17.8333C12.3067 17.9631 12.3147 18.0992 12.2936 18.2324C12.2726 18.3655 12.2231 18.4926 12.1484 18.6048C12.0738 18.717 11.9758 18.8118 11.8611 18.8827C11.7465 18.9536 11.6179 18.9989 11.4841 19.0155C11.3503 19.0321 11.2145 19.0196 11.086 18.9789Z" fill="#3B414D"/>
<path d="M7.51851 25.9313C7.35778 25.932 7.19958 25.8912 7.05918 25.813C6.91879 25.7347 6.80094 25.6216 6.717 25.4845C6.63307 25.3474 6.5859 25.191 6.58003 25.0304C6.57416 24.8698 6.6098 24.7103 6.68351 24.5675C6.73911 24.4575 6.81603 24.3596 6.90981 24.2795C7.00359 24.1995 7.11235 24.1389 7.22976 24.1012L10.796 22.9425C11.0325 22.8658 11.2899 22.8861 11.5114 22.9991C11.7329 23.1121 11.9005 23.3085 11.9773 23.545C12.054 23.7815 12.0336 24.0389 11.9207 24.2604C11.8077 24.4819 11.6113 24.6495 11.3748 24.7262L7.80851 25.885C7.71497 25.916 7.61704 25.9316 7.51851 25.9313Z" fill="#3B414D"/>
<path d="M12.286 32.4938C12.0878 32.4941 11.8946 32.4311 11.7348 32.3138C11.6352 32.2416 11.5508 32.1505 11.4867 32.0456C11.4225 31.9407 11.3798 31.824 11.361 31.7025C11.3415 31.5809 11.3462 31.4567 11.3749 31.337C11.4037 31.2173 11.4559 31.1044 11.5285 31.005L13.7335 27.9713C13.8059 27.8716 13.8972 27.7872 14.0022 27.7229C14.1073 27.6585 14.2239 27.6155 14.3456 27.5962C14.4672 27.5769 14.5914 27.5818 14.7112 27.6106C14.831 27.6393 14.9439 27.6914 15.0435 27.7638C15.1432 27.8362 15.2276 27.9275 15.2919 28.0325C15.3563 28.1375 15.3993 28.2541 15.4186 28.3758C15.4379 28.4974 15.433 28.6217 15.4042 28.7414C15.3755 28.8612 15.3234 28.9741 15.251 29.0738L13.0448 32.1075C12.9576 32.2271 12.8435 32.3243 12.7116 32.3915C12.5798 32.4586 12.434 32.4936 12.286 32.4938Z" fill="#3B414D"/>
<path d="M20.001 35C19.7524 35 19.5139 34.9012 19.3381 34.7254C19.1623 34.5496 19.0635 34.3111 19.0635 34.0625V30.3125C19.0635 30.0639 19.1623 29.8254 19.3381 29.6496C19.5139 29.4738 19.7524 29.375 20.001 29.375C20.2497 29.375 20.4881 29.4738 20.664 29.6496C20.8398 29.8254 20.9385 30.0639 20.9385 30.3125V34.0625C20.9385 34.3111 20.8398 34.5496 20.664 34.7254C20.4881 34.9012 20.2497 35 20.001 35Z" fill="#3B414D"/>
<path d="M27.7172 32.4938C27.5692 32.4938 27.4233 32.4589 27.2915 32.3917C27.1596 32.3246 27.0455 32.2272 26.9585 32.1075L24.7535 29.0738C24.6527 28.9336 24.5925 28.7685 24.5794 28.5964C24.5663 28.4243 24.6008 28.2519 24.6792 28.0982C24.7575 27.9444 24.8767 27.8152 25.0237 27.7247C25.1706 27.6342 25.3396 27.5858 25.5122 27.585C25.8122 27.585 26.0947 27.73 26.271 27.9713L28.476 31.005C28.5767 31.1451 28.637 31.3103 28.6501 31.4824C28.6632 31.6545 28.6286 31.8269 28.5503 31.9806C28.4719 32.1344 28.3527 32.2636 28.2058 32.3541C28.0588 32.4446 27.8898 32.493 27.7172 32.4938Z" fill="#3B414D"/>
<path d="M32.4835 25.9312C32.3855 25.9312 32.2881 25.9161 32.1947 25.8862L28.6272 24.7275C28.3907 24.6507 28.1943 24.4832 28.0813 24.2616C27.9683 24.0401 27.948 23.7828 28.0247 23.5462C28.1015 23.3097 28.269 23.1133 28.4906 23.0003C28.7121 22.8873 28.9694 22.867 29.206 22.9437L32.7735 24.1025C32.9855 24.1717 33.1659 24.3142 33.2823 24.5045C33.3987 24.6947 33.4435 24.9203 33.4086 25.1406C33.3736 25.3609 33.2613 25.5615 33.0917 25.7064C32.9222 25.8513 32.7065 25.931 32.4835 25.9312Z" fill="#3B414D"/>
<path d="M28.9173 18.9787C28.6942 18.9785 28.4785 18.8988 28.309 18.7539C28.1394 18.609 28.0271 18.4084 27.9922 18.1881C27.9572 17.9678 28.002 17.7422 28.1184 17.552C28.2348 17.3617 28.4152 17.2192 28.6273 17.15L32.1935 15.9912C32.3105 15.9528 32.434 15.9379 32.5568 15.9474C32.6796 15.9569 32.7993 15.9905 32.9091 16.0464C33.0189 16.1022 33.1165 16.1792 33.1964 16.273C33.2763 16.3667 33.3369 16.4753 33.3748 16.5925C33.4516 16.8288 33.4314 17.0861 33.3187 17.3076C33.2059 17.5291 33.0098 17.6968 32.7735 17.7737L29.2073 18.9325C29.1137 18.9632 29.0158 18.9788 28.9173 18.9787Z" fill="#3B414D"/>
<path d="M25.511 14.2914C25.3383 14.2908 25.1692 14.2426 25.0221 14.1521C24.8751 14.0616 24.7559 13.9322 24.6776 13.7784C24.5993 13.6245 24.5649 13.452 24.5783 13.2798C24.5917 13.1077 24.6523 12.9426 24.7535 12.8026L26.9585 9.76888C27.1051 9.56812 27.3252 9.43358 27.5707 9.3947C27.8162 9.35581 28.0671 9.41574 28.2685 9.56138C28.4695 9.70773 28.6043 9.92787 28.6432 10.1735C28.6821 10.4191 28.622 10.6701 28.476 10.8714L26.2697 13.9051C26.1827 14.0248 26.0686 14.1222 25.9367 14.1894C25.8049 14.2565 25.659 14.2915 25.511 14.2914Z" fill="#3B414D"/>
<path d="M20.001 14.375C19.7524 14.375 19.5139 14.2762 19.3381 14.1004C19.1623 13.9246 19.0635 13.6861 19.0635 13.4375V5.9375C19.0635 5.68886 19.1623 5.4504 19.3381 5.27459C19.5139 5.09877 19.7524 5 20.001 5C20.2497 5 20.4881 5.09877 20.664 5.27459C20.8398 5.4504 20.9385 5.68886 20.9385 5.9375V13.4375C20.9385 13.6861 20.8398 13.9246 20.664 14.1004C20.4881 14.2762 20.2497 14.375 20.001 14.375Z" fill="#3B414D"/>
</g>
<defs>
<clipPath id="clip0">
<rect width="40" height="40" fill="white" transform="translate(0 0.000244141)"/>
</clipPath>
</defs>
</svg>
