<svg width="40" height="40" viewBox="0 0 40 40" fill="none" xmlns="http://www.w3.org/2000/svg">
<g clip-path="url(#clip0)">
<path d="M14.4923 14.2916C14.3444 14.2912 14.1986 14.2561 14.0668 14.189C13.935 14.1219 13.8209 14.0247 13.7336 13.9053L11.5286 10.8716C11.4279 10.7315 11.3676 10.5665 11.3545 10.3945C11.3413 10.2225 11.3757 10.0502 11.454 9.89652C11.5322 9.74279 11.6512 9.61355 11.7979 9.52294C11.9447 9.43234 12.1136 9.38386 12.2861 9.38281C12.434 9.38274 12.5799 9.4177 12.7118 9.48484C12.8437 9.55197 12.9578 9.64937 13.0448 9.76906L15.2498 12.8028C15.351 12.9427 15.4116 13.1079 15.425 13.28C15.4384 13.4521 15.404 13.6246 15.3257 13.7785C15.2474 13.9324 15.1282 14.0617 14.9812 14.1522C14.8341 14.2428 14.665 14.291 14.4923 14.2916Z" fill="#3B414D" class="primary"/>
<path d="M11.086 18.9791C10.9879 18.9793 10.8904 18.9637 10.7973 18.9329L7.23104 17.7741C6.99487 17.6968 6.79891 17.5292 6.68601 17.3078C6.5731 17.0865 6.55244 16.8294 6.62854 16.5929C6.66623 16.4757 6.72671 16.3671 6.80651 16.2734C6.88631 16.1797 6.98384 16.1027 7.0935 16.0468C7.20317 15.991 7.32279 15.9573 7.44551 15.9478C7.56822 15.9384 7.69159 15.9532 7.80854 15.9916L11.3748 17.1504C11.5096 17.1512 11.6426 17.1812 11.7648 17.2382C11.8869 17.2952 11.9953 17.3779 12.0825 17.4806C12.1698 17.5834 12.2338 17.7038 12.2702 17.8336C12.3067 17.9633 12.3147 18.0995 12.2936 18.2326C12.2726 18.3658 12.2231 18.4928 12.1484 18.605C12.0738 18.7173 11.9758 18.8121 11.8611 18.883C11.7465 18.9538 11.6179 18.9991 11.4841 19.0157C11.3503 19.0323 11.2145 19.0198 11.086 18.9791Z" fill="#3B414D" class="primary"/>
<path d="M7.51851 25.9315C7.35778 25.9322 7.19958 25.8915 7.05918 25.8132C6.91879 25.7349 6.80094 25.6218 6.717 25.4847C6.63307 25.3477 6.5859 25.1913 6.58003 25.0306C6.57416 24.87 6.6098 24.7106 6.68351 24.5677C6.73911 24.4577 6.81603 24.3598 6.90981 24.2798C7.00359 24.1997 7.11235 24.1391 7.22976 24.1015L10.796 22.9427C11.0325 22.866 11.2899 22.8864 11.5114 22.9993C11.7329 23.1123 11.9005 23.3087 11.9773 23.5452C12.054 23.7818 12.0336 24.0391 11.9207 24.2607C11.8077 24.4822 11.6113 24.6497 11.3748 24.7265L7.80851 25.8852C7.71497 25.9162 7.61704 25.9318 7.51851 25.9315Z" fill="#3B414D" class="primary"/>
<path d="M12.286 32.4939C12.0878 32.4943 11.8946 32.4312 11.7348 32.3139C11.6352 32.2418 11.5508 32.1507 11.4867 32.0458C11.4225 31.9408 11.3798 31.8242 11.361 31.7027C11.3415 31.5811 11.3462 31.4569 11.3749 31.3372C11.4037 31.2174 11.4559 31.1046 11.5285 31.0052L13.7335 27.9714C13.8059 27.8718 13.8972 27.7874 14.0022 27.723C14.1073 27.6587 14.2239 27.6157 14.3456 27.5964C14.4672 27.5771 14.5914 27.582 14.7112 27.6107C14.831 27.6395 14.9439 27.6916 15.0435 27.7639C15.1432 27.8363 15.2276 27.9276 15.2919 28.0327C15.3563 28.1377 15.3993 28.2543 15.4186 28.376C15.4379 28.4976 15.433 28.6219 15.4042 28.7416C15.3755 28.8614 15.3234 28.9743 15.251 29.0739L13.0448 32.1077C12.9576 32.2272 12.8435 32.3245 12.7116 32.3916C12.5798 32.4588 12.434 32.4938 12.286 32.4939Z" fill="#3B414D" class="primary"/>
<path d="M20.001 35.0002C19.7524 35.0002 19.5139 34.9015 19.3381 34.7257C19.1623 34.5498 19.0635 34.3114 19.0635 34.0627V30.3127C19.0635 30.0641 19.1623 29.8256 19.3381 29.6498C19.5139 29.474 19.7524 29.3752 20.001 29.3752C20.2497 29.3752 20.4881 29.474 20.664 29.6498C20.8398 29.8256 20.9385 30.0641 20.9385 30.3127V34.0627C20.9385 34.3114 20.8398 34.5498 20.664 34.7257C20.4881 34.9015 20.2497 35.0002 20.001 35.0002Z" fill="#3B414D" class="primary"/>
<path d="M27.7172 32.4941C27.5692 32.4941 27.4233 32.4592 27.2915 32.3921C27.1596 32.3249 27.0455 32.2275 26.9585 32.1078L24.7535 29.0741C24.6527 28.934 24.5925 28.7688 24.5794 28.5967C24.5663 28.4246 24.6008 28.2522 24.6792 28.0985C24.7575 27.9447 24.8767 27.8155 25.0237 27.725C25.1706 27.6345 25.3396 27.5861 25.5122 27.5853C25.8122 27.5853 26.0947 27.7303 26.271 27.9716L28.476 31.0053C28.5767 31.1454 28.637 31.3106 28.6501 31.4827C28.6632 31.6548 28.6286 31.8272 28.5503 31.9809C28.4719 32.1347 28.3527 32.2639 28.2058 32.3544C28.0588 32.4449 27.8898 32.4933 27.7172 32.4941Z" fill="#3B414D" class="primary"/>
<path d="M32.4835 25.9315C32.3855 25.9315 32.2881 25.9163 32.1947 25.8865L28.6272 24.7277C28.3907 24.651 28.1943 24.4834 28.0813 24.2619C27.9683 24.0403 27.948 23.783 28.0247 23.5465C28.1015 23.3099 28.269 23.1136 28.4906 23.0006C28.7121 22.8876 28.9694 22.8672 29.206 22.944L32.7735 24.1027C32.9855 24.1719 33.1659 24.3144 33.2823 24.5047C33.3987 24.695 33.4435 24.9205 33.4086 25.1408C33.3736 25.3611 33.2613 25.5617 33.0917 25.7066C32.9222 25.8516 32.7065 25.9313 32.4835 25.9315Z" fill="#3B414D" class="primary"/>
<path d="M28.9173 18.9789C28.6942 18.9787 28.4785 18.899 28.309 18.7541C28.1394 18.6092 28.0271 18.4085 27.9922 18.1882C27.9572 17.9679 28.002 17.7424 28.1184 17.5521C28.2348 17.3619 28.4152 17.2193 28.6273 17.1502L32.1935 15.9914C32.3105 15.953 32.434 15.9381 32.5568 15.9476C32.6796 15.9571 32.7993 15.9907 32.9091 16.0466C33.0189 16.1024 33.1165 16.1794 33.1964 16.2731C33.2763 16.3669 33.3369 16.4754 33.3748 16.5927C33.4516 16.829 33.4314 17.0862 33.3187 17.3078C33.2059 17.5293 33.0098 17.6969 32.7735 17.7739L29.2073 18.9327C29.1137 18.9634 29.0158 18.979 28.9173 18.9789Z" fill="#3B414D" class="primary"/>
<path d="M25.511 14.2916C25.3383 14.291 25.1692 14.2428 25.0221 14.1522C24.8751 14.0617 24.7559 13.9324 24.6776 13.7785C24.5993 13.6246 24.5649 13.4521 24.5783 13.28C24.5917 13.1079 24.6523 12.9427 24.7535 12.8028L26.9585 9.76907C27.1051 9.56831 27.3252 9.43377 27.5707 9.39488C27.8162 9.35599 28.0671 9.41593 28.2685 9.56157C28.4695 9.70792 28.6043 9.92805 28.6432 10.1736C28.6821 10.4193 28.622 10.6703 28.476 10.8716L26.2697 13.9053C26.1827 14.025 26.0686 14.1224 25.9367 14.1895C25.8049 14.2567 25.659 14.2916 25.511 14.2916Z" fill="#3B414D" class="primary"/>
<path d="M20.001 14.3752C19.7524 14.3752 19.5139 14.2765 19.3381 14.1007C19.1623 13.9248 19.0635 13.6864 19.0635 13.4377V5.93774C19.0635 5.6891 19.1623 5.45065 19.3381 5.27483C19.5139 5.09902 19.7524 5.00024 20.001 5.00024C20.2497 5.00024 20.4881 5.09902 20.664 5.27483C20.8398 5.45065 20.9385 5.6891 20.9385 5.93774V13.4377C20.9385 13.6864 20.8398 13.9248 20.664 14.1007C20.4881 14.2765 20.2497 14.3752 20.001 14.3752Z" fill="#3B414D" class="primary"/>
</g>
<defs>
<clipPath id="clip0">
<rect width="40" height="40" fill="white" transform="translate(0 0.000488281)"/>
</clipPath>
</defs>
</svg>
