<svg width="40" height="40" viewBox="0 0 40 40" fill="none" xmlns="http://www.w3.org/2000/svg">
<path d="M11.5625 35.0005C10.8168 34.9998 10.1018 34.7033 9.57449 34.176C9.04719 33.6487 8.75066 32.9337 8.75 32.188V19.063C8.75066 18.3173 9.04719 17.6023 9.57449 17.075C10.1018 16.5477 10.8168 16.2512 11.5625 16.2505H12.5V12.5005C12.5 8.36549 15.865 5.00049 20 5.00049C24.135 5.00049 27.5 8.36549 27.5 12.5005V16.2505H28.4375C29.1832 16.2512 29.8982 16.5477 30.4255 17.075C30.9528 17.6023 31.2493 18.3173 31.25 19.063V32.188C31.2493 32.9337 30.9528 33.6487 30.4255 34.176C29.8982 34.7033 29.1832 34.9998 28.4375 35.0005H11.5625ZM11.5625 18.1255C11.3139 18.1255 11.0754 18.2243 10.8996 18.4001C10.7238 18.5759 10.625 18.8143 10.625 19.063V32.188C10.625 32.7055 11.045 33.1255 11.5625 33.1255H28.4375C28.6861 33.1255 28.9246 33.0267 29.1004 32.8509C29.2762 32.6751 29.375 32.4366 29.375 32.188V19.063C29.375 18.8143 29.2762 18.5759 29.1004 18.4001C28.9246 18.2243 28.6861 18.1255 28.4375 18.1255H11.5625ZM25.625 16.2505V12.5005C25.625 9.39924 23.1012 6.87549 20 6.87549C18.5087 6.87714 17.0789 7.47031 16.0244 8.52484C14.9698 9.57937 14.3767 11.0092 14.375 12.5005V16.2505H25.625Z" fill="#3B414D"/>
<path d="M20 26.5629C19.225 26.5629 18.5938 25.9317 18.5938 25.1567C18.5947 24.8786 18.6779 24.607 18.8329 24.3761C18.9879 24.1453 19.2078 23.9654 19.4649 23.8593C19.7219 23.7532 20.0046 23.7255 20.2773 23.7798C20.5501 23.834 20.8006 23.9678 20.9975 24.1642C21.1931 24.3614 21.326 24.612 21.3795 24.8846C21.4329 25.1571 21.4045 25.4394 21.2979 25.6959C21.1912 25.9523 21.0111 26.1715 20.7801 26.3258C20.5492 26.4801 20.2777 26.5626 20 26.5629Z" fill="#3B414D"/>
</svg>
