<svg width="40" height="40" viewBox="0 0 40 40" fill="none" xmlns="http://www.w3.org/2000/svg">
<path d="M11.5625 35.0002C10.8168 34.9996 10.1018 34.7031 9.57449 34.1758C9.04719 33.6484 8.75066 32.9335 8.75 32.1877V19.0627C8.75066 18.317 9.04719 17.602 9.57449 17.0747C10.1018 16.5474 10.8168 16.2509 11.5625 16.2502H12.5V12.5002C12.5 8.36524 15.865 5.00024 20 5.00024C24.135 5.00024 27.5 8.36524 27.5 12.5002V16.2502H28.4375C29.1832 16.2509 29.8982 16.5474 30.4255 17.0747C30.9528 17.602 31.2493 18.317 31.25 19.0627V32.1877C31.2493 32.9335 30.9528 33.6484 30.4255 34.1758C29.8982 34.7031 29.1832 34.9996 28.4375 35.0002H11.5625ZM11.5625 18.1252C11.3139 18.1252 11.0754 18.224 10.8996 18.3998C10.7238 18.5756 10.625 18.8141 10.625 19.0627V32.1877C10.625 32.7052 11.045 33.1252 11.5625 33.1252H28.4375C28.6861 33.1252 28.9246 33.0265 29.1004 32.8507C29.2762 32.6748 29.375 32.4364 29.375 32.1877V19.0627C29.375 18.8141 29.2762 18.5756 29.1004 18.3998C28.9246 18.224 28.6861 18.1252 28.4375 18.1252H11.5625ZM25.625 16.2502V12.5002C25.625 9.39899 23.1012 6.87524 20 6.87524C18.5087 6.8769 17.0789 7.47006 16.0244 8.5246C14.9698 9.57913 14.3767 11.0089 14.375 12.5002V16.2502H25.625Z" fill="#3B414D"/>
<path d="M20 26.5627C19.225 26.5627 18.5938 25.9315 18.5938 25.1565C18.5947 24.8784 18.6779 24.6068 18.8329 24.376C18.9879 24.1451 19.2078 23.9653 19.4649 23.8591C19.7219 23.753 20.0046 23.7253 20.2773 23.7796C20.5501 23.8338 20.8006 23.9676 20.9975 24.164C21.1931 24.3612 21.326 24.6118 21.3795 24.8844C21.4329 25.1569 21.4045 25.4392 21.2979 25.6957C21.1912 25.9521 21.0111 26.1713 20.7801 26.3256C20.5492 26.4799 20.2777 26.5624 20 26.5627Z" fill="#3B414D"/>
</svg>
