<svg width="40" height="40" viewBox="0 0 40 40" fill="none" xmlns="http://www.w3.org/2000/svg">
<path d="M29.3764 25.6303C29.1264 25.6303 28.8902 25.5328 28.7139 25.3553C28.3489 24.9903 28.3489 24.3953 28.7139 24.0291L31.8013 20.9418H14.3772C13.8597 20.9418 13.4398 20.5218 13.4398 20.0043C13.4398 19.4869 13.8597 19.0669 14.3772 19.0669H31.8L28.7127 15.9796C28.5352 15.8033 28.4377 15.5671 28.4377 15.3171C28.4377 15.0671 28.5352 14.8309 28.7127 14.6546C28.8902 14.4784 29.1251 14.3796 29.3751 14.3796C29.6251 14.3796 29.8614 14.4771 30.0376 14.6546L34.7248 19.3419C34.7686 19.3856 34.8073 19.4331 34.8423 19.4844C34.8511 19.4969 34.8611 19.5156 34.8698 19.5319C34.8911 19.5669 34.9098 19.6031 34.9261 19.6406C34.9348 19.6606 34.9461 19.6968 34.9523 19.7168C34.9623 19.7418 34.9736 19.7806 34.9811 19.8218C34.9923 19.8756 34.9998 19.9393 34.9998 20.0043C34.9998 20.0668 34.9936 20.1293 34.9811 20.1893C34.9736 20.2268 34.9623 20.2631 34.9498 20.2993C34.9448 20.3193 34.9348 20.3468 34.9236 20.3718C34.9123 20.4006 34.8923 20.4381 34.8698 20.4756C34.8686 20.4793 34.8573 20.5018 34.8436 20.5218C34.8161 20.5618 34.7911 20.593 34.7636 20.623C34.7623 20.6268 34.7448 20.648 34.7248 20.6668L30.0376 25.354C29.8614 25.5328 29.6264 25.6303 29.3764 25.6303Z" fill="#3B414D"/>
<path d="M7.62025 34.0623C6.11034 33.9861 4.9354 32.7061 5.00415 31.2075L5.0029 8.75119C4.93415 7.28627 6.09784 6.01509 7.59775 5.94009L22.9844 5.93884C24.5193 6.01384 25.693 7.29502 25.6255 8.79369L25.6268 14.3759C25.6268 14.8934 25.2068 15.3133 24.6893 15.3133C24.1718 15.3133 23.7519 14.8934 23.7519 14.3759V8.75119C23.7744 8.24747 23.4081 7.83624 22.9369 7.81249L7.644 7.81374C7.21777 7.83624 6.85529 8.24622 6.87654 8.70869L6.87779 31.25C6.85529 31.7537 7.22152 32.1649 7.6915 32.1887L22.9844 32.1874C23.4106 32.1649 23.7744 31.7549 23.7531 31.2924L23.7519 25.6253C23.7519 25.1078 24.1718 24.6878 24.6893 24.6878C25.2068 24.6878 25.6268 25.1078 25.6268 25.6253V31.25C25.6943 32.7161 24.5293 33.9861 23.0307 34.061L7.644 34.0623C7.6365 34.0623 7.62775 34.0623 7.62025 34.0623Z" fill="#3B414D"/>
</svg>
