<svg width="40" height="40" viewBox="0 0 40 40" fill="none" xmlns="http://www.w3.org/2000/svg">
<path d="M20 6.09277C11.7291 6.09277 5 11.6363 5 18.4502C5.0255 20.0882 5.40948 21.7008 6.12494 23.1745C6.84041 24.6482 7.86999 25.9474 9.1413 26.9806L6.1413 32.9636C6.08053 33.0848 6.05901 33.2218 6.07972 33.3558C6.10044 33.4897 6.16237 33.6139 6.2569 33.711C6.35144 33.8081 6.47388 33.8734 6.60721 33.8977C6.74054 33.922 6.87814 33.9042 7.00087 33.8467L15.0213 30.1136C16.6399 30.5785 18.316 30.8126 20 30.8089C28.2709 30.8089 35 25.2654 35 18.4502C35 11.6349 28.2709 6.09277 20 6.09277Z" fill="#3B414D" class="primary"/>
</svg>
