<svg width="40" height="40" viewBox="0 0 40 40" fill="none" xmlns="http://www.w3.org/2000/svg">
<path d="M18.125 26.563C15.54 26.563 13.4375 24.4605 13.4375 21.8755V9.68799C13.4375 7.10299 15.54 5.00049 18.125 5.00049H21.875C24.46 5.00049 26.5625 7.10299 26.5625 9.68799V21.8755C26.5625 24.4605 24.46 26.563 21.875 26.563H18.125ZM18.125 6.87549C16.5738 6.87549 15.3125 8.13674 15.3125 9.68799V21.8755C15.3125 23.4267 16.5738 24.688 18.125 24.688H21.875C23.4263 24.688 24.6875 23.4267 24.6875 21.8755V9.68799C24.6875 8.13674 23.4263 6.87549 21.875 6.87549H18.125Z" fill="#3B414D" class="primary" />
<path d="M20 35.0005C19.4825 35.0005 19.0625 34.5805 19.0625 34.063V30.2705C13.77 29.7942 9.6875 25.3667 9.6875 20.0005V17.188C9.6875 16.6705 10.1075 16.2505 10.625 16.2505C11.1425 16.2505 11.5625 16.6705 11.5625 17.188V20.0005C11.5625 24.653 15.3475 28.438 20 28.438C24.6525 28.438 28.4375 24.653 28.4375 20.0005V17.188C28.4375 16.6705 28.8575 16.2505 29.375 16.2505C29.8925 16.2505 30.3125 16.6705 30.3125 17.188V20.0005C30.3125 25.3667 26.23 29.7942 20.9375 30.2705V34.063C20.9375 34.5805 20.5175 35.0005 20 35.0005Z" fill="#3B414D" class="primary" />
</svg>
