<svg width="40" height="40" viewBox="0 0 40 40" fill="none" xmlns="http://www.w3.org/2000/svg">
<path d="M11.5625 31.2505C10.0112 31.2505 8.75 29.9892 8.75 28.438V7.81299C8.75 6.26174 10.0112 5.00049 11.5625 5.00049H32.1875C33.7388 5.00049 35 6.26174 35 7.81299V28.438C35 29.9892 33.7388 31.2505 32.1875 31.2505H11.5625ZM11.5625 6.87549C11.045 6.87549 10.625 7.29549 10.625 7.81299V28.438C10.625 28.9555 11.045 29.3755 11.5625 29.3755H32.1875C32.705 29.3755 33.125 28.9555 33.125 28.438V7.81299C33.125 7.29549 32.705 6.87549 32.1875 6.87549H11.5625V6.87549Z" fill="#3B414D"/>
<path d="M7.8125 35.0005C6.26125 35.0005 5 33.7392 5 32.188V9.68799C5 9.17049 5.42 8.75049 5.9375 8.75049C6.455 8.75049 6.875 9.17174 6.875 9.68799V32.188C6.875 32.7055 7.295 33.1255 7.8125 33.1255H30.3125C30.83 33.1255 31.25 33.5455 31.25 34.063C31.25 34.5805 30.83 35.0005 30.3125 35.0005H7.8125Z" fill="#3B414D"/>
<path d="M15.3125 14.3755C14.795 14.3755 14.375 13.9555 14.375 13.438C14.375 12.9205 14.795 12.5005 15.3125 12.5005H28.4375C28.955 12.5005 29.375 12.9205 29.375 13.438C29.375 13.9555 28.955 14.3755 28.4375 14.3755H15.3125Z" fill="#3B414D"/>
<path d="M15.3125 18.1255C14.795 18.1255 14.375 17.7055 14.375 17.188C14.375 16.6705 14.795 16.2505 15.3125 16.2505H28.4375C28.955 16.2505 29.375 16.6705 29.375 17.188C29.375 17.7055 28.955 18.1255 28.4375 18.1255H15.3125Z" fill="#3B414D"/>
<path d="M15.3125 21.8755C14.795 21.8755 14.375 21.4555 14.375 20.938C14.375 20.4205 14.795 20.0005 15.3125 20.0005H24.6875C25.205 20.0005 25.625 20.4205 25.625 20.938C25.625 21.4555 25.205 21.8755 24.6875 21.8755H15.3125Z" fill="#3B414D"/>
</svg>
