<svg width="40" height="40" viewBox="0 0 40 40" fill="none" xmlns="http://www.w3.org/2000/svg">
<path d="M16.6671 24.2717C16.4171 24.2717 16.1809 24.1742 16.0046 23.9967C15.7971 23.7892 15.6984 23.4917 15.7396 23.2017L16.4021 18.5605C16.4309 18.3605 16.5246 18.173 16.6671 18.0305L28.5996 6.09799C29.3071 5.39049 30.2484 5.00049 31.2509 5.00049C32.2534 5.00049 33.1959 5.39049 33.9021 6.09799C35.3646 7.56049 35.3646 9.93924 33.9021 11.4017L21.9696 23.3342C21.8271 23.4767 21.6396 23.5705 21.4409 23.5992L16.7996 24.263C16.7534 24.268 16.7096 24.2717 16.6671 24.2717ZM17.7721 22.2292L20.8659 21.7867L30.5884 12.0642L27.9359 9.41299L18.2134 19.1355L17.7721 22.2292ZM31.9134 10.738L32.5771 10.0742C33.3084 9.34299 33.3084 8.15424 32.5771 7.42299C32.2234 7.06924 31.7534 6.87549 31.2509 6.87549C30.7496 6.87549 30.2784 7.07049 29.9246 7.42424L29.2609 8.08799L31.9134 10.738Z" fill="#3B414D" class="primary"/>
<path d="M7.81335 35.0005C6.2621 35.0005 5.00085 33.7392 5.00085 32.188V13.438C5.00085 11.8867 6.2621 10.6255 7.81335 10.6255H17.1884C17.7059 10.6255 18.1259 11.0455 18.1259 11.563C18.1259 12.0805 17.7059 12.5005 17.1884 12.5005H7.81335C7.29585 12.5005 6.87585 12.9205 6.87585 13.438V32.188C6.87585 32.7055 7.29585 33.1255 7.81335 33.1255H26.5634C27.0809 33.1255 27.5009 32.7055 27.5009 32.188V22.813C27.5009 22.2955 27.9209 21.8755 28.4384 21.8755C28.9559 21.8755 29.3759 22.2955 29.3759 22.813V32.188C29.3759 33.7392 28.1146 35.0005 26.5634 35.0005H7.81335Z" fill="#3B414D" class="primary"/>
</svg>
