<svg width="40" height="40" viewBox="0 0 40 40" fill="none" xmlns="http://www.w3.org/2000/svg">
<path d="M33.4378 21.2505C33.4378 20.919 33.3061 20.601 33.0717 20.3666C32.8373 20.1322 32.5194 20.0005 32.1878 20.0005H31.2503C29.179 20.0028 27.1932 20.8266 25.7286 22.2913C24.264 23.7559 23.4401 25.7417 23.4378 27.813V28.7505C23.4378 29.7451 23.0427 30.6989 22.3395 31.4021C21.6362 32.1054 20.6824 32.5005 19.6878 32.5005C18.6933 32.5005 17.7394 32.1054 17.0362 31.4021C16.3329 30.6989 15.9378 29.7451 15.9378 28.7505V26.5417C15.9379 26.4666 15.965 26.394 16.014 26.3371C16.0631 26.2802 16.131 26.2428 16.2053 26.2317C16.6517 26.1674 17.06 25.9443 17.3552 25.6034C17.6505 25.2624 17.8129 24.8265 17.8128 24.3755V22.2005C17.8127 22.1371 17.8319 22.0751 17.8679 22.0229C17.9038 21.9706 17.9548 21.9306 18.0141 21.908C19.4349 21.4016 20.6616 20.4633 21.5222 19.2245C22.3828 17.9857 22.8341 16.5087 22.8128 15.0005V11.2505C22.8128 10.7532 22.6153 10.2763 22.2637 9.92466C21.912 9.57303 21.4351 9.37549 20.9378 9.37549H20.0003C19.9175 9.37549 19.838 9.34256 19.7794 9.28396C19.7208 9.22535 19.6878 9.14587 19.6878 9.06299V6.25049C19.6878 5.91897 19.5561 5.60103 19.3217 5.3666C19.0873 5.13218 18.7694 5.00049 18.4378 5.00049C18.1063 5.00049 17.7884 5.13218 17.5539 5.3666C17.3195 5.60103 17.1878 5.91897 17.1878 6.25049V9.06299C17.1878 9.14587 17.1549 9.22535 17.0963 9.28396C17.0377 9.34256 16.9582 9.37549 16.8753 9.37549H12.5003C12.4175 9.37549 12.338 9.34256 12.2794 9.28396C12.2208 9.22535 12.1878 9.14587 12.1878 9.06299V6.25049C12.1878 5.91897 12.0561 5.60103 11.8217 5.3666C11.5873 5.13218 11.2694 5.00049 10.9378 5.00049C10.6063 5.00049 10.2884 5.13218 10.054 5.3666C9.81953 5.60103 9.68783 5.91897 9.68783 6.25049V9.06299C9.68783 9.14587 9.65491 9.22535 9.5963 9.28396C9.5377 9.34256 9.45821 9.37549 9.37533 9.37549H8.43783C7.94055 9.37549 7.46364 9.57303 7.11201 9.92466C6.76038 10.2763 6.56283 10.7532 6.56283 11.2505V15.0005C6.54184 16.5085 6.99327 17.9852 7.85384 19.2238C8.71441 20.4623 9.94097 21.4004 11.3616 21.9067C11.4208 21.9293 11.4718 21.9694 11.5078 22.0216C11.5437 22.0739 11.5629 22.1358 11.5628 22.1992V24.3755C11.563 24.8263 11.7256 25.2619 12.0209 25.6026C12.3161 25.9433 12.7242 26.1662 13.1703 26.2305C13.2448 26.2413 13.3128 26.2786 13.3619 26.3356C13.4111 26.3925 13.438 26.4653 13.4378 26.5405V28.7505C13.4378 30.4081 14.0963 31.9978 15.2684 33.1699C16.4405 34.342 18.0302 35.0005 19.6878 35.0005C21.3454 35.0005 22.9351 34.342 24.1072 33.1699C25.2794 31.9978 25.9378 30.4081 25.9378 28.7505V27.813C25.9395 26.4045 26.4997 25.0542 27.4957 24.0583C28.4916 23.0624 29.8419 22.5021 31.2503 22.5005H32.1878C32.5194 22.5005 32.8373 22.3688 33.0717 22.1344C33.3061 21.9 33.4378 21.582 33.4378 21.2505ZM18.1253 13.7505C18.1253 13.9991 18.0266 14.2376 17.8507 14.4134C17.6749 14.5892 17.4365 14.688 17.1878 14.688H12.1878C11.9392 14.688 11.7007 14.5892 11.5249 14.4134C11.3491 14.2376 11.2503 13.9991 11.2503 13.7505C11.2503 13.5018 11.3491 13.2634 11.5249 13.0876C11.7007 12.9118 11.9392 12.813 12.1878 12.813H17.1878C17.4365 12.813 17.6749 12.9118 17.8507 13.0876C18.0266 13.2634 18.1253 13.5018 18.1253 13.7505Z" fill="#3B414D" class="primary"/>
</svg>
