<svg width="40" height="40" viewBox="0 0 40 40" fill="none" xmlns="http://www.w3.org/2000/svg">
<path d="M24.375 29.378H15.625C13.1937 29.378 10.23 27.5468 6.78875 23.9256C6.7457 23.8804 6.69012 23.8491 6.62915 23.8358C6.56819 23.8225 6.50463 23.8277 6.44667 23.8509C6.38871 23.874 6.33901 23.914 6.30396 23.9656C6.2689 24.0172 6.25011 24.0781 6.25 24.1406V30.003C6.25 31.1634 6.71094 32.2762 7.53141 33.0966C8.35188 33.9171 9.46468 34.378 10.625 34.378H29.375C30.5353 34.378 31.6481 33.9171 32.4686 33.0966C33.2891 32.2762 33.75 31.1634 33.75 30.003V24.1406C33.7499 24.0781 33.7311 24.0172 33.696 23.9656C33.661 23.914 33.6113 23.874 33.5533 23.8509C33.4954 23.8277 33.4318 23.8225 33.3708 23.8358C33.3099 23.8491 33.2543 23.8804 33.2113 23.9256C29.77 27.5468 26.8062 29.378 24.375 29.378Z" fill="#3B414D"/>
<path d="M35 15.0029C35 14.5056 34.8025 14.0287 34.4508 13.6771C34.0992 13.3255 33.6223 13.1279 33.125 13.1279H6.875C6.37772 13.1279 5.90081 13.3255 5.54917 13.6771C5.19754 14.0287 5 14.5056 5 15.0029V17.8779C5.00041 18.6 5.25085 19.2996 5.70875 19.8579C8.05 22.7129 12.4538 27.5029 15.625 27.5029H24.375C27.5462 27.5029 31.95 22.7129 34.2913 19.8579C34.7492 19.2996 34.9996 18.6 35 17.8779V15.0029ZM29.6875 18.4404C29.6875 18.6891 29.5887 18.9275 29.4129 19.1033C29.2371 19.2792 28.9986 19.3779 28.75 19.3779H11.5625C11.3139 19.3779 11.0754 19.2792 10.8996 19.1033C10.7238 18.9275 10.625 18.6891 10.625 18.4404C10.625 18.1918 10.7238 17.9533 10.8996 17.7775C11.0754 17.6017 11.3139 17.5029 11.5625 17.5029H28.75C28.9986 17.5029 29.2371 17.6017 29.4129 17.7775C29.5887 17.9533 29.6875 18.1918 29.6875 18.4404Z" fill="#3B414D"/>
<path d="M15.4063 11.878C15.4782 11.8779 15.5479 11.853 15.6035 11.8075C15.6591 11.7619 15.6972 11.6985 15.7113 11.628C15.7376 11.503 15.7701 11.378 15.8063 11.253C16.0756 10.3502 16.629 9.55844 17.3844 8.99548C18.1398 8.43251 19.0567 8.12841 19.9988 8.12841C20.9409 8.12841 21.8578 8.43251 22.6132 8.99548C23.3686 9.55844 23.922 10.3502 24.1913 11.253C24.2276 11.378 24.2601 11.503 24.2863 11.628C24.3005 11.6985 24.3386 11.7619 24.3942 11.8075C24.4498 11.853 24.5194 11.8779 24.5913 11.878L26.4951 11.8855C26.54 11.8856 26.5844 11.876 26.6252 11.8574C26.6661 11.8388 26.7025 11.8116 26.7319 11.7777C26.7613 11.7438 26.7831 11.7039 26.7957 11.6608C26.8083 11.6177 26.8115 11.5724 26.8051 11.528C26.7913 11.4355 26.7763 11.343 26.7601 11.2517C26.4687 9.67104 25.6328 8.24237 24.3975 7.21402C23.1622 6.18568 21.6056 5.62265 19.9983 5.6228C18.391 5.62295 16.8345 6.18626 15.5994 7.21484C14.3643 8.24341 13.5286 9.67223 13.2376 11.253C13.2213 11.3417 13.2063 11.4305 13.1938 11.5205C13.1878 11.5644 13.1912 11.6092 13.2037 11.6517C13.2161 11.6943 13.2375 11.7338 13.2663 11.7675C13.2951 11.8013 13.3307 11.8286 13.3707 11.8476C13.4108 11.8666 13.4545 11.877 13.4988 11.878H15.4063Z" fill="#3B414D"/>
</svg>
