<svg width="40" height="40" viewBox="0 0 40 40" fill="none" xmlns="http://www.w3.org/2000/svg">
<path fill-rule="evenodd" clip-rule="evenodd" d="M11.3462 10.2288C10.6691 10.2288 10.1202 10.7776 10.1202 11.4547C10.1202 12.1318 10.6691 12.6807 11.3462 12.6807C12.0233 12.6807 12.5722 12.1318 12.5722 11.4547C12.5722 10.7776 12.0233 10.2288 11.3462 10.2288ZM8.24524 11.4547C8.24524 9.74211 9.63359 8.35376 11.3462 8.35376C13.0588 8.35376 14.4472 9.74211 14.4472 11.4547C14.4472 13.1673 13.0588 14.5557 11.3462 14.5557C9.63359 14.5557 8.24524 13.1673 8.24524 11.4547Z" fill="#3B414D" class="primary" />
<path fill-rule="evenodd" clip-rule="evenodd" d="M13.6538 11.4546C13.6538 10.9368 14.0735 10.5171 14.5913 10.5171L34.0625 10.5171C34.5802 10.5171 35 10.9368 35 11.4546C35 11.9724 34.5802 12.3921 34.0625 12.3921L14.5913 12.3921C14.0735 12.3921 13.6538 11.9724 13.6538 11.4546Z" fill="#3B414D" class="primary" />
<path fill-rule="evenodd" clip-rule="evenodd" d="M11.3462 27.3201C10.6691 27.3201 10.1202 27.8689 10.1202 28.546C10.1202 29.2231 10.6691 29.772 11.3462 29.772C12.0233 29.772 12.5722 29.2231 12.5722 28.546C12.5722 27.8689 12.0233 27.3201 11.3462 27.3201ZM8.24524 28.546C8.24524 26.8334 9.63359 25.4451 11.3462 25.4451C13.0588 25.4451 14.4472 26.8334 14.4472 28.546C14.4472 30.2586 13.0588 31.647 11.3462 31.647C9.63359 31.647 8.24524 30.2586 8.24524 28.546Z" fill="#3B414D" class="primary" />
<path fill-rule="evenodd" clip-rule="evenodd" d="M13.6538 28.5459C13.6538 28.0281 14.0735 27.6084 14.5913 27.6084L34.0625 27.6084C34.5802 27.6084 35 28.0281 35 28.5459C35 29.0637 34.5802 29.4834 34.0625 29.4834L14.5913 29.4834C14.0735 29.4834 13.6538 29.0637 13.6538 28.5459Z" fill="#3B414D" class="primary" />
<path fill-rule="evenodd" clip-rule="evenodd" d="M28.6538 18.7744C27.9767 18.7744 27.4279 19.3233 27.4279 20.0004C27.4279 20.6775 27.9767 21.2263 28.6538 21.2263C29.3309 21.2263 29.8798 20.6775 29.8798 20.0004C29.8798 19.3233 29.3309 18.7744 28.6538 18.7744ZM25.5529 20.0004C25.5529 18.2878 26.9412 16.8994 28.6538 16.8994C30.3664 16.8994 31.7548 18.2878 31.7548 20.0004C31.7548 21.713 30.3664 23.1013 28.6538 23.1013C26.9412 23.1013 25.5529 21.713 25.5529 20.0004Z" fill="#3B414D" class="primary" />
<path fill-rule="evenodd" clip-rule="evenodd" d="M5 20.0002C5 19.4825 5.41973 19.0627 5.9375 19.0627L25.4087 19.0627C25.9264 19.0627 26.3462 19.4825 26.3462 20.0002C26.3462 20.518 25.9264 20.9377 25.4087 20.9377L5.9375 20.9377C5.41973 20.9377 5 20.518 5 20.0002Z" fill="#3B414D" class="primary" />
<path fill-rule="evenodd" clip-rule="evenodd" d="M5 11.4546C5 10.9368 5.41973 10.5171 5.9375 10.5171H9.18269C9.70046 10.5171 10.1202 10.9368 10.1202 11.4546C10.1202 11.9724 9.70046 12.3921 9.18269 12.3921H5.9375C5.41973 12.3921 5 11.9724 5 11.4546Z" fill="#3B414D" class="primary" />
<path fill-rule="evenodd" clip-rule="evenodd" d="M29.8798 20.0002C29.8798 19.4825 30.2995 19.0627 30.8173 19.0627H34.0625C34.5802 19.0627 35 19.4825 35 20.0002C35 20.518 34.5802 20.9377 34.0625 20.9377H30.8173C30.2995 20.9377 29.8798 20.518 29.8798 20.0002Z" fill="#3B414D" class="primary" />
<path fill-rule="evenodd" clip-rule="evenodd" d="M5 28.5459C5 28.0281 5.41973 27.6084 5.9375 27.6084H9.18269C9.70046 27.6084 10.1202 28.0281 10.1202 28.5459C10.1202 29.0637 9.70046 29.4834 9.18269 29.4834H5.9375C5.41973 29.4834 5 29.0637 5 28.5459Z" fill="#3B414D" class="primary" />
</svg>
