<svg width="40" height="40" viewBox="0 0 40 40" fill="none" xmlns="http://www.w3.org/2000/svg">
<path d="M10.7692 13.0773C12.0437 13.0773 13.0769 12.0441 13.0769 10.7696C13.0769 9.4951 12.0437 8.46191 10.7692 8.46191C9.49474 8.46191 8.46155 9.4951 8.46155 10.7696C8.46155 12.0441 9.49474 13.0773 10.7692 13.0773Z" stroke="#3B414D" class="primary-stroke" stroke-width="0.8" stroke-miterlimit="10" stroke-linejoin="round"/>
<path d="M14.2307 10.7695L34.9999 10.7695" stroke="#3B414D" class="primary-stroke" stroke-width="0.8" stroke-miterlimit="10" stroke-linecap="round" stroke-linejoin="round"/>
<path d="M10.7692 31.5387C12.0437 31.5387 13.0769 30.5055 13.0769 29.231C13.0769 27.9565 12.0437 26.9233 10.7692 26.9233C9.49474 26.9233 8.46155 27.9565 8.46155 29.231C8.46155 30.5055 9.49474 31.5387 10.7692 31.5387Z" stroke="#3B414D" class="primary-stroke" stroke-width="0.8" stroke-miterlimit="10" stroke-linejoin="round"/>
<path d="M14.2307 29.2312L34.9999 29.2312" stroke="#3B414D" class="primary-stroke" stroke-width="0.8" stroke-miterlimit="10" stroke-linecap="round" stroke-linejoin="round"/>
<path d="M29.2308 22.308C30.5053 22.308 31.5385 21.2748 31.5385 20.0003C31.5385 18.7258 30.5053 17.6926 29.2308 17.6926C27.9563 17.6926 26.9231 18.7258 26.9231 20.0003C26.9231 21.2748 27.9563 22.308 29.2308 22.308Z" stroke="#3B414D" class="primary-stroke" stroke-width="0.8" stroke-miterlimit="10" stroke-linejoin="round"/>
<path d="M25.7692 20.0005L5 20.0005" stroke="#3B414D" class="primary-stroke" stroke-width="0.8" stroke-miterlimit="10" stroke-linecap="round" stroke-linejoin="round"/>
<path d="M8.46154 10.7695H5" stroke="#3B414D" class="primary-stroke" stroke-width="0.8" stroke-miterlimit="10" stroke-linecap="round" stroke-linejoin="round"/>
<path d="M31.5385 20.0005H35" stroke="#3B414D" class="primary-stroke" stroke-width="0.8" stroke-miterlimit="10" stroke-linecap="round" stroke-linejoin="round"/>
<path d="M8.46154 29.2312H5" stroke="#3B414D" class="primary-stroke" stroke-width="0.8" stroke-miterlimit="10" stroke-linecap="round" stroke-linejoin="round"/>
</svg>
