<svg width="40" height="40" viewBox="0 0 40 40" fill="none" xmlns="http://www.w3.org/2000/svg">
<g clip-path="url(#clip0)">
<path d="M19.9994 34.9995C18.029 35.0049 16.0771 34.6194 14.2567 33.8654C12.4363 33.1114 10.7835 32.0039 9.39397 30.6068C7.99672 29.2174 6.88892 27.5647 6.1347 25.7442C5.38049 23.9238 4.99483 21.9719 5.00005 20.0014C5.00005 15.995 6.56011 12.2286 9.39272 9.39477C12.2266 6.56216 15.993 5.00085 19.9994 5.00085C24.0058 5.00085 27.7722 6.56091 30.606 9.39352C32.0034 10.7831 33.1113 12.436 33.8655 14.2567C34.6198 16.0773 35.0053 18.0295 34.9999 20.0002V22.8128C34.9986 24.0556 34.5043 25.2472 33.6255 26.126C32.7467 27.0048 31.5551 27.4991 30.3123 27.5005C29.3754 27.4959 28.4612 27.2122 27.6864 26.6856C26.9115 26.159 26.3112 25.4135 25.9621 24.5441C25.2622 25.4619 24.3601 26.206 23.326 26.7187C22.2919 27.2314 21.1536 27.4989 19.9994 27.5005C15.8642 27.5005 12.4991 24.1353 12.4991 20.0002C12.4991 15.865 15.8642 12.4999 19.9994 12.4999C24.1345 12.4999 27.4997 15.865 27.4997 20.0002V22.8128C27.4997 24.3641 28.761 25.6254 30.3123 25.6254C31.8636 25.6254 33.1249 24.3641 33.1249 22.8128V20.0002C33.1249 16.495 31.7598 13.1987 29.281 10.7198C28.0648 9.49731 26.6183 8.52811 25.0251 7.86831C23.432 7.20851 21.7238 6.87121 19.9994 6.87593C18.2752 6.87124 16.5672 7.20856 14.9742 7.86836C13.3812 8.52816 11.9349 9.49735 10.719 10.7198C9.49655 11.9357 8.52736 13.382 7.86756 14.975C7.20776 16.568 6.87044 18.276 6.87512 20.0002C6.87037 21.7244 7.20766 23.4324 7.86746 25.0254C8.52727 26.6184 9.49649 28.0647 10.719 29.2805C11.9348 30.5028 13.3809 31.4718 14.9736 32.1314C16.5664 32.791 18.2742 33.1281 19.9981 33.1232C22.8195 33.1232 25.6158 32.1906 27.8722 30.4981C27.9706 30.4242 28.0826 30.3704 28.2018 30.3399C28.321 30.3093 28.445 30.3025 28.5668 30.3198C28.6887 30.3372 28.8059 30.3783 28.9118 30.441C29.0177 30.5036 29.1102 30.5865 29.1841 30.685C29.258 30.7834 29.3117 30.8954 29.3423 31.0146C29.3729 31.1337 29.3797 31.2578 29.3624 31.3796C29.345 31.5014 29.3038 31.6187 29.2412 31.7246C29.1785 31.8305 29.0956 31.923 28.9972 31.9969C26.3996 33.9407 23.2438 34.9938 19.9994 34.9995ZM19.9994 14.375C16.898 14.375 14.3742 16.8988 14.3742 20.0002C14.3742 23.1015 16.898 25.6254 19.9994 25.6254C23.1007 25.6254 25.6246 23.1015 25.6246 20.0002C25.6246 16.8988 23.1007 14.375 19.9994 14.375Z" fill="#3B414D" class="primary" />
</g>
<defs>
<clipPath id="clip0">
<rect width="40" height="40" fill="white" transform="translate(0 0.000488281)"/>
</clipPath>
</defs>
</svg>
