<svg width="40" height="40" viewBox="0 0 40 40" fill="none" xmlns="http://www.w3.org/2000/svg">
<g clip-path="url(#clip0)">
<path d="M19.9994 34.9993C18.029 35.0046 16.0771 34.6192 14.2567 33.8652C12.4363 33.1112 10.7835 32.0036 9.39397 30.6066C7.99672 29.2172 6.88892 27.5644 6.1347 25.744C5.38049 23.9236 4.99483 21.9716 5.00005 20.0012C5.00005 15.9948 6.56011 12.2284 9.39272 9.39453C12.2266 6.56192 15.993 5.00061 19.9994 5.00061C24.0058 5.00061 27.7722 6.56067 30.606 9.39328C32.0034 10.7828 33.1113 12.4358 33.8655 14.2564C34.6198 16.0771 35.0053 18.0293 34.9999 19.9999V22.8125C34.9986 24.0554 34.5043 25.2469 33.6255 26.1258C32.7467 27.0046 31.5551 27.4989 30.3123 27.5002C29.3754 27.4956 28.4612 27.2119 27.6864 26.6854C26.9115 26.1588 26.3112 25.4132 25.9621 24.5439C25.2622 25.4616 24.3601 26.2057 23.326 26.7185C22.2919 27.2312 21.1536 27.4987 19.9994 27.5002C15.8642 27.5002 12.4991 24.1351 12.4991 19.9999C12.4991 15.8648 15.8642 12.4996 19.9994 12.4996C24.1345 12.4996 27.4997 15.8648 27.4997 19.9999V22.8125C27.4997 24.3638 28.761 25.6251 30.3123 25.6251C31.8636 25.6251 33.1249 24.3638 33.1249 22.8125V19.9999C33.1249 16.4948 31.7598 13.1984 29.281 10.7196C28.0648 9.49707 26.6183 8.52787 25.0251 7.86807C23.432 7.20827 21.7238 6.87097 19.9994 6.87568C18.2752 6.87099 16.5672 7.20831 14.9742 7.86812C13.3812 8.52792 11.9349 9.4971 10.719 10.7196C9.49655 11.9355 8.52736 13.3818 7.86756 14.9748C7.20776 16.5677 6.87044 18.2757 6.87512 19.9999C6.87037 21.7241 7.20766 23.4322 7.86746 25.0251C8.52727 26.6181 9.49649 28.0644 10.719 29.2803C11.9348 30.5025 13.3809 31.4715 14.9736 32.1311C16.5664 32.7907 18.2742 33.1278 19.9981 33.1229C22.8195 33.1229 25.6158 32.1904 27.8722 30.4978C27.9706 30.424 28.0826 30.3702 28.2018 30.3396C28.321 30.309 28.445 30.3022 28.5668 30.3196C28.6887 30.3369 28.8059 30.3781 28.9118 30.4407C29.0177 30.5034 29.1102 30.5863 29.1841 30.6847C29.258 30.7831 29.3117 30.8951 29.3423 31.0143C29.3729 31.1335 29.3797 31.2576 29.3624 31.3794C29.345 31.5012 29.3038 31.6184 29.2412 31.7243C29.1785 31.8302 29.0956 31.9228 28.9972 31.9966C26.3996 33.9405 23.2438 34.9936 19.9994 34.9993ZM19.9994 14.3747C16.898 14.3747 14.3742 16.8986 14.3742 19.9999C14.3742 23.1013 16.898 25.6251 19.9994 25.6251C23.1007 25.6251 25.6246 23.1013 25.6246 19.9999C25.6246 16.8986 23.1007 14.3747 19.9994 14.3747Z" fill="#3B414D"/>
</g>
<defs>
<clipPath id="clip0">
<rect width="40" height="40" fill="white" transform="translate(0 0.000244141)"/>
</clipPath>
</defs>
</svg>
