<svg width="20" height="20" viewBox="0 0 20 20" fill="none" xmlns="http://www.w3.org/2000/svg">
<mask id="path-1-inside-1_14511_41733" fill="white">
<path d="M12.8127 11.8754C10.2284 11.8754 8.12537 9.77233 8.12537 7.18805C8.12537 4.60378 10.2284 2.50073 12.8127 2.50073C15.397 2.50073 17.5 4.60378 17.5 7.18805C17.5 9.77233 15.3976 11.8754 12.8127 11.8754ZM12.8127 3.12571C10.5728 3.12571 8.75034 4.94814 8.75034 7.18805C8.75034 9.42797 10.5728 11.2504 12.8127 11.2504C15.0526 11.2504 16.875 9.42797 16.875 7.18805C16.875 4.94814 15.0532 3.12571 12.8127 3.12571Z"/>
</mask>
<path d="M12.8127 11.8754C10.2284 11.8754 8.12537 9.77233 8.12537 7.18805C8.12537 4.60378 10.2284 2.50073 12.8127 2.50073C15.397 2.50073 17.5 4.60378 17.5 7.18805C17.5 9.77233 15.3976 11.8754 12.8127 11.8754ZM12.8127 3.12571C10.5728 3.12571 8.75034 4.94814 8.75034 7.18805C8.75034 9.42797 10.5728 11.2504 12.8127 11.2504C15.0526 11.2504 16.875 9.42797 16.875 7.18805C16.875 4.94814 15.0532 3.12571 12.8127 3.12571Z" fill="#3B414D" class="primary"/>
<path d="M12.8127 10.5754C10.9464 10.5754 9.42537 9.05436 9.42537 7.18805H6.82537C6.82537 10.4903 9.51044 13.1754 12.8127 13.1754V10.5754ZM9.42537 7.18805C9.42537 5.32175 10.9464 3.80073 12.8127 3.80073V1.20073C9.51044 1.20073 6.82537 3.88581 6.82537 7.18805H9.42537ZM12.8127 3.80073C14.679 3.80073 16.2 5.32175 16.2 7.18805H18.8C18.8 3.88581 16.1149 1.20073 12.8127 1.20073V3.80073ZM16.2 7.18805C16.2 9.05447 14.6795 10.5754 12.8127 10.5754V13.1754C16.1157 13.1754 18.8 10.4902 18.8 7.18805H16.2ZM12.8127 1.82571C9.8548 1.82571 7.45034 4.23017 7.45034 7.18805H10.0503C10.0503 5.66611 11.2907 4.42571 12.8127 4.42571V1.82571ZM7.45034 7.18805C7.45034 10.1459 9.8548 12.5504 12.8127 12.5504V9.9504C11.2907 9.9504 10.0503 8.71 10.0503 7.18805H7.45034ZM12.8127 12.5504C15.7706 12.5504 18.175 10.1459 18.175 7.18805H15.575C15.575 8.71 14.3346 9.9504 12.8127 9.9504V12.5504ZM18.175 7.18805C18.175 4.2303 15.7713 1.82571 12.8127 1.82571V4.42571C14.3351 4.42571 15.575 5.66598 15.575 7.18805H18.175Z" fill="#3B414D" class="primary" mask="url(#path-1-inside-1_14511_41733)"/>
<mask id="path-3-inside-2_14511_41733" fill="white">
<path d="M12.8127 7.50057C12.729 7.50057 12.6509 7.46807 12.5915 7.40932C12.5321 7.35057 12.5002 7.27183 12.5002 7.18808V4.68755C12.5002 4.51506 12.6402 4.37506 12.8127 4.37506C12.9852 4.37506 13.1252 4.51506 13.1252 4.68755V6.87559L14.687 6.87497C14.8595 6.87497 14.9995 7.01496 14.9995 7.18745C14.9995 7.35932 14.8595 7.49994 14.687 7.49994L12.8127 7.50057ZM2.81249 17.4996C2.63999 17.4996 2.5 17.3589 2.5 17.1871V10.9373C2.5 10.7648 2.63999 10.6248 2.81249 10.6248C2.98498 10.6248 3.12498 10.7648 3.12498 10.9373V11.8748H7.18732C8.27478 11.8748 9.19912 12.6872 9.35224 13.7497H12.8121C14.0183 13.7497 14.9995 14.7309 14.9995 15.9371C14.9995 16.1096 14.8595 16.2496 14.687 16.2496H3.12498V17.1871C3.12498 17.3589 2.98498 17.4996 2.81249 17.4996ZM14.3433 15.6246C14.1964 14.9115 13.5552 14.3747 12.8127 14.3747H7.18795C7.01483 14.3747 6.87483 14.2341 6.87483 14.0622C6.87483 13.8903 7.01483 13.7497 7.18732 13.7497H8.71726C8.57039 13.0366 7.92917 12.4998 7.18732 12.4998H3.12498V15.6246H14.3433Z"/>
</mask>
<path d="M12.8127 7.50057C12.729 7.50057 12.6509 7.46807 12.5915 7.40932C12.5321 7.35057 12.5002 7.27183 12.5002 7.18808V4.68755C12.5002 4.51506 12.6402 4.37506 12.8127 4.37506C12.9852 4.37506 13.1252 4.51506 13.1252 4.68755V6.87559L14.687 6.87497C14.8595 6.87497 14.9995 7.01496 14.9995 7.18745C14.9995 7.35932 14.8595 7.49994 14.687 7.49994L12.8127 7.50057ZM2.81249 17.4996C2.63999 17.4996 2.5 17.3589 2.5 17.1871V10.9373C2.5 10.7648 2.63999 10.6248 2.81249 10.6248C2.98498 10.6248 3.12498 10.7648 3.12498 10.9373V11.8748H7.18732C8.27478 11.8748 9.19912 12.6872 9.35224 13.7497H12.8121C14.0183 13.7497 14.9995 14.7309 14.9995 15.9371C14.9995 16.1096 14.8595 16.2496 14.687 16.2496H3.12498V17.1871C3.12498 17.3589 2.98498 17.4996 2.81249 17.4996ZM14.3433 15.6246C14.1964 14.9115 13.5552 14.3747 12.8127 14.3747H7.18795C7.01483 14.3747 6.87483 14.2341 6.87483 14.0622C6.87483 13.8903 7.01483 13.7497 7.18732 13.7497H8.71726C8.57039 13.0366 7.92917 12.4998 7.18732 12.4998H3.12498V15.6246H14.3433Z" fill="#3B414D" class="primary"/>
<path d="M12.8127 7.50057L12.8127 8.80057L12.8132 8.80057L12.8127 7.50057ZM13.1252 6.87559H11.8252V8.17611L13.1257 8.17559L13.1252 6.87559ZM14.687 6.87497L14.687 5.57497L14.6865 5.57497L14.687 6.87497ZM14.687 7.49994L14.687 6.19994L14.6866 6.19994L14.687 7.49994ZM3.12498 11.8748H1.82498V13.1748H3.12498V11.8748ZM9.35224 13.7497L8.06553 13.9351L8.22616 15.0497H9.35224V13.7497ZM3.12498 16.2496V14.9496H1.82498V16.2496H3.12498ZM14.3433 15.6246V16.9246H15.9383L15.6166 15.3624L14.3433 15.6246ZM8.71726 13.7497V15.0497H10.3123L9.99054 13.4875L8.71726 13.7497ZM3.12498 12.4998V11.1998H1.82498V12.4998H3.12498ZM3.12498 15.6246H1.82498V16.9246H3.12498V15.6246ZM12.8127 6.20057C13.075 6.20057 13.3244 6.30569 13.5059 6.48523L11.6771 8.33341C11.9773 8.63045 12.383 8.80057 12.8127 8.80057V6.20057ZM13.5059 6.48523C13.7011 6.67839 13.8002 6.9358 13.8002 7.18808H11.2002C11.2002 7.60785 11.3632 8.02275 11.6771 8.33341L13.5059 6.48523ZM13.8002 7.18808V4.68755H11.2002V7.18808H13.8002ZM13.8002 4.68755C13.8002 5.23303 13.3582 5.67506 12.8127 5.67506V3.07506C11.9223 3.07506 11.2002 3.79709 11.2002 4.68755H13.8002ZM12.8127 5.67506C12.2673 5.67506 11.8252 5.23303 11.8252 4.68755H14.4252C14.4252 3.79709 13.7032 3.07506 12.8127 3.07506V5.67506ZM11.8252 4.68755V6.87559H14.4252V4.68755H11.8252ZM13.1257 8.17559L14.6876 8.17497L14.6865 5.57497L13.1247 5.57559L13.1257 8.17559ZM14.687 8.17497C14.1416 8.17497 13.6995 7.73293 13.6995 7.18745H16.2995C16.2995 6.29699 15.5775 5.57497 14.687 5.57497V8.17497ZM13.6995 7.18745C13.6995 6.64304 14.1399 6.19994 14.687 6.19994V8.79994C15.5792 8.79994 16.2995 8.0756 16.2995 7.18745H13.6995ZM14.6866 6.19994L12.8123 6.20057L12.8132 8.80057L14.6875 8.79994L14.6866 6.19994ZM2.81249 16.1996C3.35966 16.1996 3.8 16.6427 3.8 17.1871H1.2C1.2 18.0752 1.92033 18.7996 2.81249 18.7996V16.1996ZM3.8 17.1871V10.9373H1.2V17.1871H3.8ZM3.8 10.9373C3.8 11.4828 3.35796 11.9248 2.81249 11.9248V9.32482C1.92202 9.32482 1.2 10.0468 1.2 10.9373H3.8ZM2.81249 11.9248C2.26701 11.9248 1.82498 11.4828 1.82498 10.9373H4.42498C4.42498 10.0468 3.70295 9.32482 2.81249 9.32482V11.9248ZM1.82498 10.9373V11.8748H4.42498V10.9373H1.82498ZM3.12498 13.1748H7.18732V10.5748H3.12498V13.1748ZM7.18732 13.1748C7.62361 13.1748 8.00392 13.5076 8.06553 13.9351L10.6389 13.5643C10.3943 11.8669 8.92595 10.5748 7.18732 10.5748V13.1748ZM9.35224 15.0497H12.8121V12.4497H9.35224V15.0497ZM12.8121 15.0497C13.3003 15.0497 13.6995 15.4489 13.6995 15.9371H16.2995C16.2995 14.0129 14.7363 12.4497 12.8121 12.4497V15.0497ZM13.6995 15.9371C13.6995 15.3916 14.1416 14.9496 14.687 14.9496V17.5496C15.5775 17.5496 16.2995 16.8276 16.2995 15.9371H13.6995ZM14.687 14.9496H3.12498V17.5496H14.687V14.9496ZM1.82498 16.2496V17.1871H4.42498V16.2496H1.82498ZM1.82498 17.1871C1.82498 16.6427 2.26532 16.1996 2.81249 16.1996V18.7996C3.70464 18.7996 4.42498 18.0752 4.42498 17.1871H1.82498ZM15.6166 15.3624C15.3473 14.0552 14.1824 13.0747 12.8127 13.0747V15.6747C12.8666 15.6747 12.9239 15.6938 12.9754 15.7361C13.028 15.7794 13.0593 15.8346 13.07 15.8869L15.6166 15.3624ZM12.8127 13.0747H7.18795V15.6747H12.8127V13.0747ZM7.18795 13.0747C7.7328 13.0747 8.17483 13.5161 8.17483 14.0622H5.57483C5.57483 14.952 6.29686 15.6747 7.18795 15.6747V13.0747ZM8.17483 14.0622C8.17483 14.6066 7.73449 15.0497 7.18732 15.0497V12.4497C6.29517 12.4497 5.57483 13.174 5.57483 14.0622H8.17483ZM7.18732 15.0497H8.71726V12.4497H7.18732V15.0497ZM9.99054 13.4875C9.72138 12.1806 8.55666 11.1998 7.18732 11.1998V13.7998C7.24063 13.7998 7.29777 13.8187 7.34932 13.8611C7.40196 13.9044 7.43322 13.9597 7.44399 14.0119L9.99054 13.4875ZM7.18732 11.1998H3.12498V13.7998H7.18732V11.1998ZM1.82498 12.4998V15.6246H4.42498V12.4998H1.82498ZM3.12498 16.9246H14.3433V14.3246H3.12498V16.9246Z" fill="#3B414D" class="primary" mask="url(#path-3-inside-2_14511_41733)"/>
</svg>
