<svg width="40" height="40" viewBox="0 0 40 40" fill="none" xmlns="http://www.w3.org/2000/svg">
<path d="M20 20.0002C15.865 20.0002 12.5 16.6352 12.5 12.5002C12.5 8.36524 15.865 5.00024 20 5.00024C24.135 5.00024 27.5 8.36524 27.5 12.5002C27.5 16.6352 24.135 20.0002 20 20.0002ZM20 6.87524C16.8988 6.87524 14.375 9.39899 14.375 12.5002C14.375 15.6015 16.8988 18.1252 20 18.1252C23.1012 18.1252 25.625 15.6015 25.625 12.5002C25.625 9.39899 23.1012 6.87524 20 6.87524Z" fill="#3B414D"/>
<path d="M32.1875 35.0002C31.9389 35.0002 31.7004 34.9015 31.5246 34.7257C31.3488 34.5498 31.25 34.3114 31.25 34.0627C31.25 27.859 26.2038 22.8127 20 22.8127C13.7963 22.8127 8.75 27.859 8.75 34.0627C8.75 34.3114 8.65123 34.5498 8.47541 34.7257C8.2996 34.9015 8.06114 35.0002 7.8125 35.0002C7.56386 35.0002 7.3254 34.9015 7.14959 34.7257C6.97377 34.5498 6.875 34.3114 6.875 34.0627C6.875 26.8252 12.7625 20.9377 20 20.9377C27.2375 20.9377 33.125 26.8252 33.125 34.0627C33.125 34.3114 33.0262 34.5498 32.8504 34.7257C32.6746 34.9015 32.4361 35.0002 32.1875 35.0002Z" fill="#3B414D"/>
</svg>
