<svg width="40" height="40" viewBox="0 0 40 40" fill="none" xmlns="http://www.w3.org/2000/svg">
<path d="M20 20.0005C15.865 20.0005 12.5 16.6355 12.5 12.5005C12.5 8.36549 15.865 5.00049 20 5.00049C24.135 5.00049 27.5 8.36549 27.5 12.5005C27.5 16.6355 24.135 20.0005 20 20.0005ZM20 6.87549C16.8988 6.87549 14.375 9.39924 14.375 12.5005C14.375 15.6017 16.8988 18.1255 20 18.1255C23.1012 18.1255 25.625 15.6017 25.625 12.5005C25.625 9.39924 23.1012 6.87549 20 6.87549Z" fill="#3B414D"/>
<path d="M32.1875 35.0005C31.9389 35.0005 31.7004 34.9017 31.5246 34.7259C31.3488 34.5501 31.25 34.3116 31.25 34.063C31.25 27.8592 26.2038 22.813 20 22.813C13.7963 22.813 8.75 27.8592 8.75 34.063C8.75 34.3116 8.65123 34.5501 8.47541 34.7259C8.2996 34.9017 8.06114 35.0005 7.8125 35.0005C7.56386 35.0005 7.3254 34.9017 7.14959 34.7259C6.97377 34.5501 6.875 34.3116 6.875 34.063C6.875 26.8255 12.7625 20.938 20 20.938C27.2375 20.938 33.125 26.8255 33.125 34.063C33.125 34.3116 33.0262 34.5501 32.8504 34.7259C32.6746 34.9017 32.4361 35.0005 32.1875 35.0005Z" fill="#3B414D"/>
</svg>
