<svg width="40" height="40" viewBox="0 0 40 40" fill="none" xmlns="http://www.w3.org/2000/svg">
<path d="M26.875 5.00049H13.125C10.9711 5.00379 8.90643 5.86088 7.38341 7.3839C5.86039 8.90691 5.00331 10.9716 5 13.1255V26.8755C5.00331 29.0294 5.86039 31.0941 7.38341 32.6171C8.90643 34.1401 10.9711 34.9972 13.125 35.0005H26.875C29.0289 34.9972 31.0936 34.1401 32.6166 32.6171C34.1396 31.0941 34.9967 29.0294 35 26.8755V13.1255C34.9967 10.9716 34.1396 8.90691 32.6166 7.3839C31.0936 5.86088 29.0289 5.00379 26.875 5.00049V5.00049ZM20 26.8755C18.6403 26.8755 17.311 26.4723 16.1805 25.7168C15.0499 24.9614 14.1687 23.8877 13.6483 22.6314C13.128 21.3752 12.9918 19.9929 13.2571 18.6592C13.5224 17.3256 14.1772 16.1006 15.1386 15.1391C16.1001 14.1776 17.3251 13.5229 18.6588 13.2576C19.9924 12.9923 21.3747 13.1285 22.6309 13.6488C23.8872 14.1692 24.9609 15.0504 25.7164 16.1809C26.4718 17.3115 26.875 18.6407 26.875 20.0005C26.875 21.8239 26.1507 23.5725 24.8614 24.8618C23.572 26.1512 21.8234 26.8755 20 26.8755ZM28.125 13.1255C27.7542 13.1255 27.3916 13.0155 27.0833 12.8095C26.775 12.6035 26.5346 12.3106 26.3927 11.968C26.2508 11.6254 26.2137 11.2484 26.286 10.8847C26.3584 10.521 26.537 10.1869 26.7992 9.92466C27.0614 9.66244 27.3955 9.48386 27.7592 9.41152C28.1229 9.33917 28.4999 9.3763 28.8425 9.51821C29.1851 9.66013 29.478 9.90045 29.684 10.2088C29.89 10.5171 30 10.8796 30 11.2505C30 11.7478 29.8025 12.2247 29.4508 12.5763C29.0992 12.9279 28.6223 13.1255 28.125 13.1255Z" fill="#3B414D" class="primary" />
</svg>
