<svg width="40" height="40" viewBox="0 0 40 40" fill="none" xmlns="http://www.w3.org/2000/svg">
<path d="M12.6315 14.2497C12.7561 14.347 12.913 14.3935 13.0706 14.3796C13.2281 14.3657 13.3745 14.2925 13.4801 14.1748C14.2871 13.2717 15.2731 12.5463 16.3755 12.0446C17.4779 11.543 18.6726 11.276 19.8836 11.2608C21.0947 11.2455 22.2957 11.4823 23.4104 11.956C24.5251 12.4297 25.529 13.1301 26.3586 14.0126C26.4166 14.071 26.4856 14.1175 26.5616 14.1491C26.6377 14.1808 26.7192 14.1971 26.8016 14.1971C26.8839 14.1971 26.9655 14.1808 27.0415 14.1491C27.1176 14.1175 27.1866 14.071 27.2446 14.0126L30.8885 10.5933C30.947 10.5353 30.9934 10.4663 31.0251 10.3902C31.0567 10.3142 31.0731 10.2326 31.0731 10.1503C31.0731 10.0679 31.0567 9.98634 31.0251 9.91031C30.9934 9.83427 30.947 9.76526 30.8885 9.70726C29.4497 8.1798 27.7059 6.97179 25.7702 6.16155C23.8345 5.35132 21.7501 4.95695 19.6522 5.00401C17.5543 5.05108 15.4898 5.53852 13.5923 6.43475C11.6949 7.33098 10.0071 8.61597 8.63819 10.2064C8.5809 10.2732 8.5384 10.3514 8.51346 10.4358C8.48853 10.5202 8.48173 10.6089 8.49352 10.6961C8.50531 10.7833 8.53541 10.8671 8.58185 10.9418C8.62829 11.0166 8.69001 11.0807 8.76298 11.1299L12.6315 14.2497Z" fill="#EB4335"/>
<path d="M11.5583 23.4718C11.6487 23.3905 11.7133 23.2846 11.7444 23.1671C11.7754 23.0496 11.7714 22.9256 11.733 22.8104C11.1159 21.0064 11.1159 19.0486 11.733 17.2447C11.774 17.1236 11.7769 16.9928 11.7412 16.8701C11.7055 16.7473 11.6329 16.6385 11.5333 16.5583L7.45265 13.3013C7.37973 13.2432 7.29473 13.2022 7.20388 13.1813C7.11304 13.1603 7.01866 13.16 6.92768 13.1804C6.8367 13.2007 6.75145 13.2412 6.67817 13.2988C6.60489 13.3565 6.54546 13.4298 6.50424 13.5134C5.50373 15.5918 4.99984 17.8742 5.03232 20.1806C5.06481 22.487 5.63278 24.7543 6.69142 26.8037C6.73541 26.8885 6.79829 26.9621 6.87522 27.0188C6.95214 27.0755 7.04106 27.1137 7.13511 27.1306C7.22916 27.1475 7.32583 27.1425 7.41767 27.1162C7.50951 27.0898 7.59406 27.0426 7.6648 26.9784L11.5583 23.4718Z" fill="#FBBC05"/>
<path d="M34.9692 18.1181C34.9692 17.9526 34.9034 17.7939 34.7864 17.6769C34.6694 17.5599 34.5107 17.4941 34.3452 17.4941H21.8661C21.7006 17.4941 21.5419 17.5599 21.4249 17.6769C21.3078 17.7939 21.2421 17.9526 21.2421 18.1181V23.1098C21.2421 23.2752 21.3078 23.4339 21.4249 23.551C21.5419 23.668 21.7006 23.7337 21.8661 23.7337H27.906C27.5384 24.4955 27.0589 25.198 26.4834 25.8177C26.3799 25.9324 26.3226 26.0813 26.3226 26.2358C26.3226 26.3902 26.3799 26.5392 26.4834 26.6538L29.8153 30.3976C29.8736 30.4599 29.9442 30.5096 30.0225 30.5436C30.1009 30.5776 30.1854 30.5951 30.2708 30.5951C30.3562 30.5951 30.4407 30.5776 30.519 30.5436C30.5974 30.5096 30.6679 30.4599 30.7263 30.3976C33.2654 27.7992 34.7733 24.3664 34.9692 20.7387V18.1181Z" fill="#4285F4"/>
<path d="M24.3868 28.0515C24.2979 27.9527 24.1797 27.8849 24.0495 27.858C23.9193 27.831 23.7839 27.8464 23.663 27.9018C21.9831 28.6929 20.0931 28.9222 18.2727 28.5559C16.4523 28.1896 14.7981 27.247 13.5549 25.8677C13.4383 25.7534 13.2815 25.6893 13.1182 25.6893C12.9549 25.6893 12.798 25.7534 12.6814 25.8677L8.93766 29.2121C8.87918 29.2701 8.83276 29.3391 8.80108 29.4152C8.76941 29.4912 8.7531 29.5727 8.7531 29.6551C8.7531 29.7375 8.76941 29.819 8.80108 29.8951C8.83276 29.9711 8.87918 30.0401 8.93766 30.0981C11.2574 32.6499 14.3867 34.3229 17.7972 34.8345C21.2076 35.3461 24.6901 34.6649 27.6564 32.9059C27.7352 32.8591 27.8027 32.7955 27.8541 32.7196C27.9055 32.6437 27.9396 32.5574 27.9539 32.4669C27.9682 32.3763 27.9624 32.2838 27.9368 32.1957C27.9113 32.1077 27.8667 32.0264 27.8061 31.9575L24.3868 28.0515Z" fill="#34A853"/>
</svg>
