<svg width="40" height="40" viewBox="0 0 40 40" fill="none" xmlns="http://www.w3.org/2000/svg">
<path d="M28.1301 13.963C28.0723 13.8971 28.0012 13.8441 27.9215 13.8075C27.8418 13.7709 27.7553 13.7515 27.6676 13.7505H22.9551V11.988C22.9551 11.638 23.0301 11.238 23.5926 11.238H27.3426C27.4249 11.2415 27.507 11.2265 27.5827 11.194C27.6584 11.1616 27.7259 11.1125 27.7801 11.0505C27.8903 10.9362 27.9529 10.7842 27.9551 10.6255V5.62549C27.9551 5.45973 27.8893 5.30076 27.7721 5.18355C27.6549 5.06634 27.4959 5.00049 27.3301 5.00049H21.9176C15.9176 5.00049 15.4551 10.1255 15.4551 11.688V13.7505H12.3301C12.1644 13.7505 12.0054 13.8163 11.8882 13.9335C11.771 14.0508 11.7051 14.2097 11.7051 14.3755V19.3755C11.7051 19.5412 11.771 19.7002 11.8882 19.8174C12.0054 19.9346 12.1644 20.0005 12.3301 20.0005H15.4551V34.3755C15.4551 34.5412 15.521 34.7002 15.6382 34.8174C15.7554 34.9346 15.9144 35.0005 16.0801 35.0005H22.3301C22.4959 35.0005 22.6549 34.9346 22.7721 34.8174C22.8893 34.7002 22.9551 34.5412 22.9551 34.3755V20.0005H27.1426C27.2981 20.0013 27.4483 19.9441 27.5639 19.8401C27.6794 19.736 27.7521 19.5927 27.7676 19.438L28.2926 14.438C28.2999 14.3519 28.2891 14.2652 28.2612 14.1835C28.2332 14.1017 28.1886 14.0266 28.1301 13.963Z" fill="#3B414D"/>
</svg>
