<svg width="40" height="40" viewBox="0 0 40 40" fill="none" xmlns="http://www.w3.org/2000/svg">
<path d="M20 8.75049C19.4825 8.75049 19.0625 8.33049 19.0625 7.81299V5.93799C19.0625 5.42049 19.4825 5.00049 20 5.00049C20.5175 5.00049 20.9375 5.42049 20.9375 5.93799V7.81299C20.9375 8.33049 20.5175 8.75049 20 8.75049Z" fill="#3B414D" class="primary" />
<path d="M27.9545 12.0484C27.7045 12.0484 27.4683 11.9509 27.292 11.7734C27.1145 11.5959 27.017 11.3609 27.017 11.1109C27.017 10.8609 27.1145 10.6247 27.292 10.4484L28.6183 9.12217C28.7958 8.94467 29.0308 8.84717 29.2808 8.84717C29.5308 8.84717 29.767 8.94467 29.9433 9.12217C30.1208 9.29967 30.2183 9.53467 30.2183 9.78467C30.2183 10.0347 30.1208 10.2709 29.9433 10.4472L28.617 11.7734C28.4408 11.9509 28.2045 12.0484 27.9545 12.0484Z" fill="#3B414D" class="primary" />
<path d="M31.25 20.0005C30.7325 20.0005 30.3125 19.5805 30.3125 19.063C30.3125 18.5455 30.7325 18.1255 31.25 18.1255H33.125C33.6425 18.1255 34.0625 18.5455 34.0625 19.063C34.0625 19.5805 33.6425 20.0005 33.125 20.0005H31.25Z" fill="#3B414D" class="primary" />
<path d="M29.2815 29.2821C29.0315 29.2821 28.7953 29.1846 28.619 29.0071L27.2928 27.6808C26.9278 27.3158 26.9278 26.7208 27.2928 26.3546C27.4703 26.1771 27.7053 26.0796 27.9553 26.0796C28.2053 26.0796 28.4415 26.1771 28.6178 26.3546L29.944 27.6808C30.309 28.0458 30.309 28.6408 29.944 29.0071C29.7678 29.1846 29.5315 29.2821 29.2815 29.2821Z" fill="#3B414D" class="primary" />
<path d="M12.0445 12.0484C11.7945 12.0484 11.5582 11.9509 11.382 11.7734L10.0557 10.4472C9.8782 10.2709 9.7807 10.0347 9.7807 9.78467C9.7807 9.53467 9.8782 9.29842 10.0557 9.12217C10.232 8.94467 10.4682 8.84717 10.7182 8.84717C10.9682 8.84717 11.2045 8.94467 11.3807 9.12217L12.707 10.4484C12.8845 10.6247 12.982 10.8609 12.982 11.1109C12.982 11.3609 12.8845 11.5972 12.707 11.7734C12.5307 11.9509 12.2957 12.0484 12.0445 12.0484Z" fill="#3B414D" class="primary" />
<path d="M6.875 20.0005C6.3575 20.0005 5.9375 19.5805 5.9375 19.063C5.9375 18.5455 6.3575 18.1255 6.875 18.1255H8.75C9.2675 18.1255 9.6875 18.5455 9.6875 19.063C9.6875 19.5805 9.2675 20.0005 8.75 20.0005H6.875Z" fill="#3B414D" class="primary" />
<path d="M10.719 29.2821C10.469 29.2821 10.2327 29.1846 10.0565 29.0071C9.69146 28.6421 9.69146 28.0471 10.0565 27.6808L11.3827 26.3546C11.5602 26.1771 11.7952 26.0796 12.0452 26.0796C12.2952 26.0796 12.5315 26.1771 12.7077 26.3546C13.0727 26.7196 13.0727 27.3146 12.7077 27.6808L11.3815 29.0071C11.2052 29.1846 10.969 29.2821 10.719 29.2821Z" fill="#3B414D" class="primary" />
<path d="M20 35.0005C19.4825 35.0005 19.0625 34.5805 19.0625 34.063V33.0267C16.8975 32.5892 15.3125 30.6842 15.3125 28.4355V26.073C12.9587 24.498 11.5625 21.8967 11.5625 19.063C11.5625 14.4105 15.3475 10.6255 20 10.6255C24.6525 10.6255 28.4375 14.4105 28.4375 19.063C28.4375 21.8967 27.0413 24.498 24.6875 26.073V28.4355C24.6875 30.6842 23.1025 32.5892 20.9375 33.0267V34.063C20.9375 34.5805 20.5175 35.0005 20 35.0005ZM17.1875 28.4355C17.1875 29.9867 18.4487 31.248 20 31.248C21.5513 31.248 22.8125 29.9867 22.8125 28.4355V27.0167C21.91 27.338 20.9675 27.5005 20 27.5005C19.0325 27.5005 18.09 27.338 17.1875 27.0167V28.4355ZM20 12.5005C16.3813 12.5005 13.4375 15.4442 13.4375 19.063C13.4375 22.6817 16.3813 25.6255 20 25.6255C23.6187 25.6255 26.5625 22.6817 26.5625 19.063C26.5625 15.4442 23.6187 12.5005 20 12.5005Z" fill="#3B414D" class="primary" />
</svg>
