<svg width="16" height="16" viewBox="0 0 16 16" fill="none" xmlns="http://www.w3.org/2000/svg">
<path d="M3.87495 14C3.25448 14 2.75 13.4955 2.75 12.875V4.62539C2.75 4.00492 3.25448 3.50044 3.87495 3.50044H5.35439L5.1839 2.98746C5.1204 2.79797 5.1344 2.59498 5.2239 2.41598C5.31289 2.23649 5.46639 2.103 5.65638 2.0395C5.70988 2.0215 5.79187 2 5.88037 2L5.90437 2.0005H10.1042C10.3047 2.0005 10.4922 2.078 10.6337 2.21849C10.7757 2.35998 10.8542 2.54798 10.8547 2.74797C10.8552 2.82997 10.8417 2.91096 10.8157 2.98896L10.6447 3.50044H12.1246C12.7451 3.50044 13.2496 4.00492 13.2496 4.62539V12.875C13.2496 13.4955 12.7451 14 12.1246 14H3.87495ZM3.87495 4.25041C3.66796 4.25041 3.49997 4.4184 3.49997 4.62539V12.875C3.49997 13.082 3.66796 13.25 3.87495 13.25H12.1246C12.3316 13.25 12.4996 13.082 12.4996 12.875V4.62539C12.4996 4.4184 12.3316 4.25041 12.1246 4.25041H10.3947L10.3157 4.4874C10.2132 4.79388 9.9277 5.00038 9.60421 5.00038H6.39535C6.07236 5.00038 5.78637 4.79438 5.68388 4.4879L5.60438 4.25041H3.87495ZM5.89437 2.75047L6.39485 4.25041H9.60421L10.1042 2.75047H5.89437Z" fill="#4E5666" class="primary" />
<path d="M4.99997 12.5001C4.58649 12.5001 4.25 12.1636 4.25 11.7501V5.37535C4.25 5.16836 4.41799 5.00037 4.62498 5.00037C4.83198 5.00037 4.99997 5.16836 4.99997 5.37535V11.7501H8.74981V10.6251C8.74981 10.0047 9.25429 9.50018 9.87477 9.50018H10.9997V5.37535C10.9997 5.16836 11.1677 5.00037 11.3747 5.00037C11.5817 5.00037 11.7497 5.16836 11.7497 5.37535V10.3141C11.7497 10.6146 11.6332 10.8971 11.4207 11.1096L10.3592 12.1701C10.1473 12.3826 9.86477 12.4996 9.56428 12.5001H4.99997ZM9.56428 11.7501C9.66278 11.7501 9.75927 11.7101 9.82877 11.6401L10.8902 10.5796C10.9607 10.5086 10.9997 10.4146 10.9997 10.3146V10.2506H9.87477C9.66777 10.2506 9.49978 10.4186 9.49978 10.6256V11.7506H9.56428V11.7501Z" fill="#4E5666" class="primary" />
</svg>
