<svg width="40" height="40" viewBox="0 0 40 40" fill="none" xmlns="http://www.w3.org/2000/svg">
<path d="M26.5625 35.0005C21.91 35.0005 18.125 31.2155 18.125 26.563C18.125 21.9105 21.91 18.1255 26.5625 18.1255C31.215 18.1255 35 21.9105 35 26.563C35 31.2155 31.215 35.0005 26.5625 35.0005ZM26.5625 20.0005C22.9437 20.0005 20 22.9442 20 26.563C20 30.1817 22.9437 33.1255 26.5625 33.1255C30.1812 33.1255 33.125 30.1817 33.125 26.563C33.125 22.9442 30.1812 20.0005 26.5625 20.0005Z" fill="#3B414D" class="primary"/>
<path d="M26.5625 27.5004C26.045 27.5004 25.625 27.0804 25.625 26.5629V23.2479C25.625 22.7304 26.045 22.3104 26.5625 22.3104C27.08 22.3104 27.5 22.7304 27.5 23.2479V25.6254H29.8775C30.395 25.6254 30.815 26.0454 30.815 26.5629C30.815 27.0804 30.395 27.5004 29.8775 27.5004H26.5625Z" fill="#3B414D" class="primary"/>
<path d="M11.5625 19.063C11.045 19.063 10.625 18.643 10.625 18.1255C10.625 17.608 11.045 17.188 11.5625 17.188H18.125C18.6425 17.188 19.0625 17.608 19.0625 18.1255C19.0625 18.643 18.6425 19.063 18.125 19.063H11.5625Z" fill="#3B414D" class="primary"/>
<path d="M11.5625 23.7505C11.045 23.7505 10.625 23.3305 10.625 22.813C10.625 22.2955 11.045 21.8755 11.5625 21.8755H15.3125C15.83 21.8755 16.25 22.2955 16.25 22.813C16.25 23.3305 15.83 23.7505 15.3125 23.7505H11.5625Z" fill="#3B414D" class="primary"/>
<path d="M11.5625 28.438C11.045 28.438 10.625 28.018 10.625 27.5005C10.625 26.983 11.045 26.563 11.5625 26.563H15.3125C15.83 26.563 16.25 26.983 16.25 27.5005C16.25 28.018 15.83 28.438 15.3125 28.438H11.5625Z" fill="#3B414D" class="primary"/>
<path d="M7.8125 35.0005C6.26125 35.0005 5 33.7392 5 32.188V12.5005C5 10.9492 6.26125 9.68799 7.8125 9.68799H11.6413C12.0938 7.02674 14.4513 5.00049 17.1875 5.00049C19.925 5.00049 22.2825 7.02674 22.7337 9.68799H26.5625C28.1138 9.68799 29.375 10.9492 29.375 12.5005V15.313C29.375 15.8305 28.955 16.2505 28.4375 16.2505C27.92 16.2505 27.5 15.8305 27.5 15.313V12.5005C27.5 11.983 27.08 11.563 26.5625 11.563H21.875C21.3575 11.563 20.9375 11.143 20.9375 10.6255C20.9375 8.55799 19.255 6.87549 17.1875 6.87549C15.12 6.87549 13.4375 8.55799 13.4375 10.6255C13.4375 11.143 13.0175 11.563 12.5 11.563H7.8125C7.295 11.563 6.875 11.983 6.875 12.5005V32.188C6.875 32.7055 7.295 33.1255 7.8125 33.1255H17.1875C17.705 33.1255 18.125 33.5455 18.125 34.063C18.125 34.5805 17.705 35.0005 17.1875 35.0005H7.8125Z" fill="#3B414D" class="primary"/>
<path d="M17.1875 11.563C17.9642 11.563 18.5938 10.9334 18.5938 10.1567C18.5938 9.38009 17.9642 8.75049 17.1875 8.75049C16.4108 8.75049 15.7812 9.38009 15.7812 10.1567C15.7812 10.9334 16.4108 11.563 17.1875 11.563Z" fill="#3B414D" class="primary"/>
</svg>
