<svg width="21" height="20" viewBox="0 0 21 20" fill="none" xmlns="http://www.w3.org/2000/svg">
<path d="M3.46875 17.5C3.21 17.5 3 17.29 3 17.0312C3 16.7725 3.21 16.5625 3.46875 16.5625H6.46875L13.4688 3.4375H10.9688C10.71 3.4375 10.5 3.2275 10.5 2.96875C10.5 2.71 10.71 2.5 10.9688 2.5H17.5312C17.79 2.5 18 2.71 18 2.96875C18 3.2275 17.79 3.4375 17.5312 3.4375H14.5312L7.53125 16.5625H10.0312C10.29 16.5625 10.5 16.7725 10.5 17.0312C10.5 17.29 10.29 17.5 10.0312 17.5H3.46875Z" fill="#9CACCC" class="primary" />
</svg>
