<svg width="21" height="20" viewBox="0 0 21 20" fill="none" xmlns="http://www.w3.org/2000/svg">
<path d="M5.34375 17.5C5.085 17.5 4.875 17.29 4.875 17.0312C4.875 16.7725 5.085 16.5625 5.34375 16.5625H6.75V3.4375H5.34375C5.085 3.4375 4.875 3.2275 4.875 2.96875C4.875 2.71 5.085 2.5 5.34375 2.5H11.9062C13.7156 2.5 15.1875 3.97187 15.1875 5.78125C15.1875 6.95937 14.5438 8.045 13.5419 8.62437C15.1063 9.41437 16.125 11.0369 16.125 12.8125C16.125 15.3969 14.0219 17.5 11.4375 17.5H5.34375ZM11.4375 16.5625C13.505 16.5625 15.1875 14.88 15.1875 12.8125C15.1875 10.745 13.505 9.0625 11.4375 9.0625H7.6875V16.5625H11.4375ZM11.9062 8.125C13.1988 8.125 14.25 7.07375 14.25 5.78125C14.25 4.48875 13.1988 3.4375 11.9062 3.4375H7.6875V8.125H11.9062Z" fill="#9CACCC" class="primary" />
</svg>
