<svg width="21" height="20" viewBox="0 0 21 20" fill="none" xmlns="http://www.w3.org/2000/svg">
<path d="M3.46875 4.84375C3.21 4.84375 3 4.63375 3 4.375C3 4.11625 3.21 3.90625 3.46875 3.90625H17.5312C17.79 3.90625 18 4.11625 18 4.375C18 4.63375 17.79 4.84375 17.5312 4.84375H3.46875Z" fill="#9CACCC"/>
<path d="M3.46875 7.65625C3.21 7.65625 3 7.44625 3 7.1875C3 6.92875 3.21 6.71875 3.46875 6.71875H17.5312C17.79 6.71875 18 6.92875 18 7.1875C18 7.44625 17.79 7.65625 17.5312 7.65625H3.46875Z" fill="#9CACCC"/>
<path d="M3.46875 10.4688C3.21 10.4688 3 10.2588 3 10C3 9.74125 3.21 9.53125 3.46875 9.53125H17.5312C17.79 9.53125 18 9.74125 18 10C18 10.2588 17.79 10.4688 17.5312 10.4688H3.46875Z" fill="#9CACCC"/>
<path d="M3.46875 13.2812C3.21 13.2812 3 13.0713 3 12.8125C3 12.5538 3.21 12.3438 3.46875 12.3438H17.5312C17.79 12.3438 18 12.5538 18 12.8125C18 13.0713 17.79 13.2812 17.5312 13.2812H3.46875Z" fill="#9CACCC"/>
<path d="M3.46875 16.0938C3.21 16.0938 3 15.8838 3 15.625C3 15.3662 3.21 15.1562 3.46875 15.1562H14.7188C14.9775 15.1562 15.1875 15.3662 15.1875 15.625C15.1875 15.8838 14.9775 16.0938 14.7188 16.0938H3.46875Z" fill="#9CACCC"/>
</svg>
