<svg width="21" height="20" viewBox="0 0 21 20" fill="none" xmlns="http://www.w3.org/2000/svg">
<path d="M4.40625 4.84375C4.1475 4.84375 3.9375 4.63375 3.9375 4.375C3.9375 4.11625 4.1475 3.90625 4.40625 3.90625H16.5938C16.8525 3.90625 17.0625 4.11625 17.0625 4.375C17.0625 4.63375 16.8525 4.84375 16.5938 4.84375H4.40625Z" fill="#9CACCC" class="primary" />
<path d="M6.28125 7.65625C6.0225 7.65625 5.8125 7.44625 5.8125 7.1875C5.8125 6.92875 6.0225 6.71875 6.28125 6.71875H14.7188C14.9775 6.71875 15.1875 6.92875 15.1875 7.1875C15.1875 7.44625 14.9775 7.65625 14.7188 7.65625H6.28125Z" fill="#9CACCC" class="primary" />
<path d="M3.46875 10.4688C3.21 10.4688 3 10.2588 3 10C3 9.74125 3.21 9.53125 3.46875 9.53125H17.5312C17.79 9.53125 18 9.74125 18 10C18 10.2588 17.79 10.4688 17.5312 10.4688H3.46875Z" fill="#9CACCC" class="primary" />
<path d="M6.28125 13.2812C6.0225 13.2812 5.8125 13.0712 5.8125 12.8125C5.8125 12.5537 6.0225 12.3438 6.28125 12.3438H14.7188C14.9775 12.3438 15.1875 12.5537 15.1875 12.8125C15.1875 13.0712 14.9775 13.2812 14.7188 13.2812H6.28125Z" fill="#9CACCC" class="primary" />
<path d="M4.40625 16.0938C4.1475 16.0938 3.9375 15.8838 3.9375 15.625C3.9375 15.3662 4.1475 15.1562 4.40625 15.1562H16.5938C16.8525 15.1562 17.0625 15.3662 17.0625 15.625C17.0625 15.8838 16.8525 16.0938 16.5938 16.0938H4.40625Z" fill="#9CACCC" class="primary" />
</svg>
