<svg width="40" height="40" viewBox="0 0 40 40" fill="none" xmlns="http://www.w3.org/2000/svg">
<path d="M20 35.0005C11.7293 35.0005 5 28.2712 5 20.0005C5 11.7298 11.7293 5.00049 20 5.00049C28.2707 5.00049 35 11.7298 35 20.0005C35 28.2712 28.2707 35.0005 20 35.0005ZM20 7.00049C12.832 7.00049 7 12.8325 7 20.0005C7 27.1685 12.832 33.0005 20 33.0005C27.168 33.0005 33 27.1685 33 20.0005C33 12.8325 27.168 7.00049 20 7.00049Z" fill="#3B414D"/>
<path d="M26.2495 27.2512C25.9828 27.2512 25.7308 27.1472 25.5428 26.9578L19.2935 20.7072C19.2001 20.6138 19.1268 20.5045 19.0761 20.3805C19.0721 20.3698 19.0681 20.3578 19.0641 20.3472C19.0215 20.2325 19.0015 20.1178 19.0015 20.0005V15.0005C19.0015 14.4485 19.4495 14.0005 20.0015 14.0005C20.5535 14.0005 21.0015 14.4485 21.0015 15.0005V19.5858L26.9575 25.5432C27.1468 25.7325 27.2508 25.9832 27.2508 26.2498C27.2508 26.5165 27.1468 26.7685 26.9575 26.9565C26.7681 27.1445 26.5161 27.2512 26.2495 27.2512Z" fill="#3B414D"/>
</svg>
