<svg width="40" height="40" viewBox="0 0 40 40" fill="none" xmlns="http://www.w3.org/2000/svg">
<path d="M34.0613 16.1744C33.6688 16.1744 33.3151 15.9269 33.1801 15.5582C32.2263 12.9408 29.8614 11.0709 27.1378 10.6984L28.4927 12.9558C28.6215 13.1708 28.659 13.422 28.5977 13.6658C28.5365 13.9082 28.3853 14.1132 28.1703 14.242C28.0253 14.3295 27.8578 14.3757 27.689 14.3757C27.3615 14.3757 27.0528 14.2007 26.8853 13.9207L24.0729 9.23343C23.9442 9.01844 23.9067 8.7672 23.9679 8.52346C24.0292 8.28097 24.1804 8.07598 24.3954 7.94723L29.0827 5.13484C29.2277 5.04735 29.3952 5.0011 29.564 5.0011C29.8914 5.0011 30.2002 5.17609 30.3689 5.45733C30.4977 5.67107 30.5352 5.92356 30.4739 6.1673C30.4127 6.40979 30.2614 6.61478 30.0464 6.74353L26.6616 8.77345C30.3752 8.98469 33.6613 11.3983 34.9425 14.9157C35.0287 15.1507 35.0175 15.4057 34.9112 15.6319C34.805 15.8594 34.6175 16.0307 34.3825 16.1169C34.2788 16.1557 34.1713 16.1744 34.0613 16.1744Z" fill="#3B414D"/>
<path d="M10.4347 34.9998C10.1072 34.9998 9.7985 34.8249 9.63101 34.5449C9.50226 34.3299 9.46476 34.0786 9.52601 33.8349C9.58726 33.5912 9.7385 33.3874 9.95349 33.2587L13.3296 31.2325C9.62101 31.0175 6.33989 28.6013 5.05744 25.084C4.97119 24.849 4.98244 24.594 5.08869 24.3678C5.19493 24.1403 5.38243 23.9678 5.61742 23.8828C5.71991 23.8453 5.82866 23.8265 5.93865 23.8265C6.33114 23.8265 6.68487 24.074 6.81862 24.4428C7.77108 27.0564 10.1347 28.9251 12.8596 29.3001L11.5072 27.0452C11.3784 26.8302 11.3409 26.5789 11.4022 26.3352C11.4634 26.0914 11.6147 25.8877 11.8297 25.759C11.9747 25.6715 12.1409 25.6252 12.3109 25.6252C12.6384 25.6252 12.9459 25.799 13.1146 26.0802L15.927 30.7675C16.0558 30.9825 16.0932 31.2337 16.032 31.4775C15.9708 31.7212 15.8195 31.925 15.6045 32.0537L10.9172 34.8661C10.7722 34.9536 10.6047 34.9998 10.4347 34.9998Z" fill="#3B414D"/>
<path d="M7.81239 21.8754C6.2612 21.8754 5 20.6142 5 19.063V7.81349C5 6.2623 6.2612 5.0011 7.81239 5.0011H19.0619C20.6131 5.0011 21.8743 6.2623 21.8743 7.81349V19.063C21.8743 20.6142 20.6131 21.8754 19.0619 21.8754H7.81239ZM7.81239 6.87602C7.29491 6.87602 6.87493 7.29601 6.87493 7.81349V19.063C6.87493 19.5805 7.29491 20.0005 7.81239 20.0005H19.0619C19.5794 20.0005 19.9994 19.5805 19.9994 19.063V7.81349C19.9994 7.29601 19.5794 6.87602 19.0619 6.87602H7.81239Z" fill="#3B414D"/>
<path d="M20.937 34.9999C19.3858 34.9999 18.1246 33.7387 18.1246 32.1876V24.6879C18.1246 24.1704 18.5446 23.7504 19.062 23.7504C19.5795 23.7504 19.9995 24.1704 19.9995 24.6879V32.1876C19.9995 32.705 20.4195 33.125 20.937 33.125H32.1865C32.704 33.125 33.124 32.705 33.124 32.1876V20.938C33.124 20.4205 32.704 20.0005 32.1865 20.0005H24.6868C24.1693 20.0005 23.7493 19.5806 23.7493 19.0631C23.7493 18.5456 24.1693 18.1256 24.6868 18.1256H32.1865C33.7377 18.1256 34.9989 19.3868 34.9989 20.938V32.1876C34.9989 33.7387 33.7377 34.9999 32.1865 34.9999H20.937Z" fill="#3B414D"/>
<path d="M28.4365 31.2501C27.919 31.2501 27.4991 30.8301 27.4991 30.3127V29.3752H25.6241V30.3127C25.6241 30.8301 25.2041 31.2501 24.6867 31.2501C24.1692 31.2501 23.7492 30.8289 23.7492 30.3127V24.6879C23.7492 23.1367 25.0104 21.8755 26.5616 21.8755C28.1128 21.8755 29.374 23.1367 29.374 24.6879V30.3127C29.374 30.8289 28.954 31.2501 28.4365 31.2501ZM27.4991 27.5003V24.6879C27.4991 24.1704 27.0791 23.7504 26.5616 23.7504C26.0441 23.7504 25.6241 24.1704 25.6241 24.6879V27.5003H27.4991Z" fill="#3B414D"/>
<path d="M17.1209 18.123C15.7347 18.0292 14.4097 17.428 13.416 16.4555C12.2835 17.5643 11.0311 18.1255 9.6874 18.1255C9.16992 18.1255 8.74994 17.7055 8.74994 17.188C8.74994 16.6705 9.16992 16.2506 9.6874 16.2506C10.7286 16.2506 11.7286 15.6593 12.6623 14.4931C12.6823 14.4631 12.706 14.4344 12.7298 14.4069C13.231 13.7632 13.6247 13.0582 13.8972 12.5007H9.6874C9.16992 12.5007 8.74994 12.0795 8.74994 11.5632C8.74994 11.047 9.16992 10.6258 9.6874 10.6258H12.4998V9.68832C12.4998 9.17084 12.9198 8.75085 13.4373 8.75085C13.9547 8.75085 14.3747 9.17084 14.3747 9.68832V10.6258H17.1871C17.7046 10.6258 18.1246 11.0458 18.1246 11.5632C18.1246 12.0807 17.7046 12.5007 17.1871 12.5007H15.9584C15.7009 13.1232 15.2609 14.0619 14.6222 14.9981C15.3097 15.7318 16.2496 16.1843 17.2496 16.2531C17.7646 16.2881 18.1558 16.7368 18.1208 17.2518C18.0871 17.7417 17.6771 18.1255 17.1859 18.1255C17.1646 18.1255 17.1434 18.1242 17.1209 18.123Z" fill="#3B414D"/>
</svg>
