<svg width="40" height="40" viewBox="0 0 40 40" fill="none" xmlns="http://www.w3.org/2000/svg">
<path d="M7.8125 29.3755C6.26125 29.3755 5 28.1142 5 26.563V13.438C5 11.8867 6.26125 10.6255 7.8125 10.6255H32.1875C33.7388 10.6255 35 11.8867 35 13.438V26.563C35 28.1142 33.7388 29.3755 32.1875 29.3755H7.8125ZM7.8125 12.5005C7.295 12.5005 6.875 12.9205 6.875 13.438V26.563C6.875 27.0805 7.295 27.5005 7.8125 27.5005H32.1875C32.705 27.5005 33.125 27.0805 33.125 26.563V13.438C33.125 12.9205 32.705 12.5005 32.1875 12.5005H7.8125Z" fill="#3B414D" class="primary" />
<path d="M11.5625 25.6255C11.045 25.6255 10.625 25.2055 10.625 24.688C10.625 24.1705 11.045 23.7505 11.5625 23.7505H12.5V16.2505H11.5625C11.045 16.2505 10.625 15.8305 10.625 15.313C10.625 14.7955 11.045 14.3755 11.5625 14.3755H15.3125C15.83 14.3755 16.25 14.7955 16.25 15.313C16.25 15.8305 15.83 16.2505 15.3125 16.2505H14.375V23.7505H15.3125C15.83 23.7505 16.25 24.1705 16.25 24.688C16.25 25.2055 15.83 25.6255 15.3125 25.6255H11.5625Z" fill="#3B414D" class="primary" />
</svg>
