<svg width="21" height="20" viewBox="0 0 21 20" fill="none" xmlns="http://www.w3.org/2000/svg">
<path d="M4.875 6.25C3.84125 6.25 3 5.40875 3 4.375C3 3.34125 3.84125 2.5 4.875 2.5C5.90875 2.5 6.75 3.34125 6.75 4.375C6.75 5.40875 5.90875 6.25 4.875 6.25ZM4.875 3.4375C4.35812 3.4375 3.9375 3.85812 3.9375 4.375C3.9375 4.89188 4.35812 5.3125 4.875 5.3125C5.39188 5.3125 5.8125 4.89188 5.8125 4.375C5.8125 3.85812 5.39188 3.4375 4.875 3.4375Z" fill="#9CACCC" class="primary" />
<path d="M4.875 11.875C3.84125 11.875 3 11.0338 3 10C3 8.96625 3.84125 8.125 4.875 8.125C5.90875 8.125 6.75 8.96625 6.75 10C6.75 11.0338 5.90875 11.875 4.875 11.875ZM4.875 9.0625C4.35812 9.0625 3.9375 9.48312 3.9375 10C3.9375 10.5169 4.35812 10.9375 4.875 10.9375C5.39188 10.9375 5.8125 10.5169 5.8125 10C5.8125 9.48312 5.39188 9.0625 4.875 9.0625Z" fill="#9CACCC" class="primary" />
<path d="M4.875 17.5C3.84125 17.5 3 16.6588 3 15.625C3 14.5912 3.84125 13.75 4.875 13.75C5.90875 13.75 6.75 14.5912 6.75 15.625C6.75 16.6588 5.90875 17.5 4.875 17.5ZM4.875 14.6875C4.35812 14.6875 3.9375 15.1081 3.9375 15.625C3.9375 16.1419 4.35812 16.5625 4.875 16.5625C5.39188 16.5625 5.8125 16.1419 5.8125 15.625C5.8125 15.1081 5.39188 14.6875 4.875 14.6875Z" fill="#9CACCC" class="primary" />
<path d="M8.15625 5.3125C7.8975 5.3125 7.6875 5.1025 7.6875 4.84375C7.6875 4.585 7.8975 4.375 8.15625 4.375H17.5312C17.79 4.375 18 4.585 18 4.84375C18 5.1025 17.79 5.3125 17.5312 5.3125H8.15625Z" fill="#9CACCC" class="primary" />
<path d="M8.15625 10.9375C7.8975 10.9375 7.6875 10.7275 7.6875 10.4688C7.6875 10.21 7.8975 10 8.15625 10H17.5312C17.79 10 18 10.21 18 10.4688C18 10.7275 17.79 10.9375 17.5312 10.9375H8.15625Z" fill="#9CACCC" class="primary" />
<path d="M8.15625 16.5625C7.8975 16.5625 7.6875 16.3525 7.6875 16.0938C7.6875 15.835 7.8975 15.625 8.15625 15.625H17.5312C17.79 15.625 18 15.835 18 16.0938C18 16.3525 17.79 16.5625 17.5312 16.5625H8.15625Z" fill="#9CACCC" class="primary" />
</svg>
