<svg width="40" height="40" viewBox="0 0 40 40" fill="none" xmlns="http://www.w3.org/2000/svg">
<path d="M20 25.6255C19.4825 25.6255 19.0625 25.2055 19.0625 24.688V11.9517L15.0375 15.9767C14.8613 16.153 14.625 16.2505 14.375 16.2505C14.125 16.2505 13.8888 16.153 13.7125 15.9755C13.535 15.7992 13.4375 15.563 13.4375 15.313C13.4375 15.063 13.535 14.8267 13.7125 14.6505L19.3363 9.02549C19.4238 8.93799 19.5263 8.86924 19.6425 8.82174C19.6525 8.81799 19.6625 8.81424 19.6737 8.81049C19.7812 8.77049 19.89 8.75049 20 8.75049C20.1113 8.75049 20.2213 8.77049 20.3263 8.81049C20.335 8.81299 20.3437 8.81674 20.3512 8.81924C20.4725 8.86924 20.575 8.93799 20.6637 9.02674L26.2875 14.6505C26.465 14.8267 26.5625 15.063 26.5625 15.313C26.5625 15.563 26.465 15.7992 26.2875 15.9755C26.11 16.1517 25.875 16.2505 25.625 16.2505C25.375 16.2505 25.1387 16.153 24.9625 15.9755L20.9375 11.9505V24.688C20.9375 25.2055 20.5175 25.6255 20 25.6255Z" fill="#3B414D" class="primary"/>
<path d="M9.6875 31.2505C7.1025 31.2505 5 29.148 5 26.563V24.688C5 24.1705 5.42 23.7505 5.9375 23.7505C6.455 23.7505 6.875 24.1705 6.875 24.688V26.563C6.875 28.1142 8.13625 29.3755 9.6875 29.3755H30.3125C31.8638 29.3755 33.125 28.1142 33.125 26.563V24.688C33.125 24.1705 33.545 23.7505 34.0625 23.7505C34.58 23.7505 35 24.1705 35 24.688V26.563C35 29.148 32.8975 31.2505 30.3125 31.2505H9.6875Z" fill="#3B414D" class="primary"/>
</svg>
