<svg width="40" height="40" viewBox="0 0 40 40" fill="none" xmlns="http://www.w3.org/2000/svg">
<rect x="5" y="8.75049" width="30" height="20.625" fill="#EEF3F8"/>
<rect x="5" y="8.75049" width="16.875" height="13.125" fill="#41479B"/>
<rect x="21.875" y="8.75049" width="13.125" height="1.875" fill="#DC251C"/>
<rect x="21.875" y="12.5005" width="13.125" height="1.875" fill="#DC251C"/>
<rect x="21.875" y="16.2505" width="13.125" height="1.875" fill="#DC251C"/>
<rect x="21.875" y="20.0005" width="13.125" height="1.875" fill="#DC251C"/>
<rect x="5" y="23.7505" width="30" height="1.875" fill="#DC251C"/>
<rect x="5" y="27.5005" width="30" height="1.875" fill="#DC251C"/>
<rect x="6.875" y="10.6255" width="1.875" height="1.875" fill="#C5D0EC"/>
<rect x="10.625" y="10.6255" width="1.875" height="1.875" fill="#C5D0EC"/>
<rect x="14.375" y="10.6255" width="1.875" height="1.875" fill="#C5D0EC"/>
<rect x="18.125" y="10.6255" width="1.875" height="1.875" fill="#C5D0EC"/>
<rect x="6.875" y="14.3755" width="1.875" height="1.875" fill="#C5D0EC"/>
<rect x="10.625" y="14.3755" width="1.875" height="1.875" fill="#C5D0EC"/>
<rect x="14.375" y="14.3755" width="1.875" height="1.875" fill="#C5D0EC"/>
<rect x="8.75" y="16.2505" width="1.875" height="1.875" fill="#C5D0EC"/>
<rect x="12.5" y="16.2505" width="1.875" height="1.875" fill="#C5D0EC"/>
<rect x="16.25" y="16.2505" width="1.875" height="1.875" fill="#C5D0EC"/>
<rect x="8.75" y="12.5005" width="1.875" height="1.875" fill="#C5D0EC"/>
<rect x="12.5" y="12.5005" width="1.875" height="1.875" fill="#C5D0EC"/>
<rect x="16.25" y="12.5005" width="1.875" height="1.875" fill="#C5D0EC"/>
<rect x="18.125" y="14.3755" width="1.875" height="1.875" fill="#C5D0EC"/>
<rect x="6.875" y="18.1255" width="1.875" height="1.875" fill="#C5D0EC"/>
<rect x="10.625" y="18.1255" width="1.875" height="1.875" fill="#C5D0EC"/>
<rect x="14.375" y="18.1255" width="1.875" height="1.875" fill="#C5D0EC"/>
<rect x="18.125" y="18.1255" width="1.875" height="1.875" fill="#C5D0EC"/>
</svg>
