<svg width="40" height="40" viewBox="0 0 40 40" fill="none" xmlns="http://www.w3.org/2000/svg">
<path d="M8.47771 32.1873C8.35152 32.187 8.22667 32.1614 8.11054 32.112C7.99441 32.0626 7.88934 31.9905 7.80154 31.8999C7.71592 31.8112 7.64874 31.7065 7.6039 31.5917C7.55906 31.4769 7.53745 31.3544 7.54032 31.2312C7.54254 31.108 7.5692 30.9864 7.61876 30.8735C7.66832 30.7607 7.7398 30.6588 7.82904 30.5738L31.2637 8.07646C31.3522 7.99057 31.4567 7.92308 31.5714 7.87792C31.6861 7.83275 31.8087 7.81081 31.9319 7.81337C32.0551 7.81593 32.1767 7.84293 32.2894 7.89282C32.4021 7.9427 32.5038 8.01447 32.5886 8.10396C32.6743 8.19256 32.7416 8.29724 32.7867 8.41197C32.8318 8.5267 32.8538 8.64922 32.8513 8.77247C32.8489 8.89572 32.8221 9.01727 32.7725 9.13012C32.7229 9.24298 32.6515 9.34491 32.5623 9.43005L9.12763 31.9274C8.95247 32.0944 8.71972 32.1875 8.47771 32.1873Z" fill="#3B414D"/>
<path d="M19.9826 30.3126L19.8451 30.3138C18.5352 30.3138 17.2166 30.1101 15.9243 29.7101C15.7119 29.6419 15.5308 29.5003 15.4133 29.3107C15.2959 29.1211 15.2498 28.8958 15.2834 28.6753C15.3169 28.4548 15.4279 28.2534 15.5964 28.1073C15.7649 27.9612 15.98 27.8798 16.203 27.8779C16.2971 27.8776 16.3907 27.892 16.4805 27.9204C17.5904 28.2653 18.7302 28.4403 19.8663 28.4403L20.1775 28.4415C24.9932 28.4415 29.8714 24.9595 32.8323 21.7011C33.0208 21.4917 33.1249 21.2199 33.1244 20.9382C33.1239 20.6565 33.019 20.385 32.8298 20.1763C31.7114 18.9497 30.4724 17.8388 29.1315 16.8604C29.0317 16.7882 28.9473 16.6968 28.8832 16.5917C28.819 16.4866 28.7764 16.3697 28.7578 16.248C28.7303 16.0651 28.7574 15.8783 28.8356 15.7107C28.9139 15.5432 29.0398 15.4025 29.1976 15.3061C29.3554 15.2098 29.5382 15.1622 29.7229 15.1692C29.9077 15.1762 30.0863 15.2376 30.2363 15.3456C31.6804 16.3998 33.0149 17.5965 34.2196 18.9177C35.2595 20.0713 35.2595 21.8073 34.2234 22.9584C30.9913 26.5155 25.6056 30.3151 20.1788 30.3151L19.9826 30.3126Z" fill="#3B414D"/>
<path d="M9.7213 26.2643C9.51305 26.2641 9.3108 26.1946 9.14637 26.0668C7.93851 25.1282 6.81251 24.0888 5.78052 22.9597C5.27886 22.4063 5.00069 21.6863 5 20.9394C4.99931 20.1925 5.27614 19.472 5.77677 18.9177C9.00888 15.3618 14.3957 11.5635 19.8201 11.5635L20.1163 11.5648C21.1737 11.5648 22.2248 11.6923 23.2409 11.946C23.3604 11.9758 23.4729 12.0288 23.5719 12.1021C23.6709 12.1753 23.7545 12.2673 23.8179 12.3729C23.8813 12.4785 23.9233 12.5955 23.9415 12.7173C23.9597 12.8391 23.9538 12.9632 23.924 13.0827C23.8942 13.2022 23.8412 13.3147 23.7679 13.4137C23.6947 13.5127 23.6026 13.5963 23.4971 13.6597C23.3915 13.7231 23.2745 13.7651 23.1527 13.7833C23.0309 13.8015 22.9067 13.7956 22.7872 13.7658C21.9168 13.5495 21.0232 13.4403 20.1263 13.4408H19.8401C15.0119 13.4408 10.1275 16.9216 7.1666 20.1788C6.97812 20.3881 6.87402 20.66 6.87448 20.9417C6.87495 21.2233 6.97993 21.4949 7.1691 21.7036C8.12853 22.7526 9.17506 23.7184 10.2975 24.5907C10.3952 24.6659 10.477 24.7596 10.5382 24.8665C10.5994 24.9735 10.6389 25.0915 10.6542 25.2137C10.6695 25.336 10.6605 25.4601 10.6276 25.5789C10.5947 25.6976 10.5386 25.8087 10.4625 25.9056C10.3742 26.0177 10.2617 26.1083 10.1333 26.1704C10.0048 26.2326 9.86396 26.2647 9.7213 26.2643Z" fill="#3B414D"/>
<path d="M15.3106 21.8761C15.062 21.8761 14.8236 21.7774 14.6478 21.6016C14.472 21.4258 14.3732 21.1873 14.3732 20.9387C14.3732 19.4389 14.9582 18.0278 16.0205 16.9642C16.5407 16.44 17.1598 16.0242 17.8418 15.741C18.5238 15.4578 19.2553 15.3128 19.9938 15.3144C20.2525 15.3144 20.4613 15.5231 20.4625 15.7818L20.465 16.7192C20.465 16.8442 20.4163 16.963 20.3288 17.0517C20.2413 17.1404 20.1225 17.1892 19.9976 17.1892C19.5049 17.1881 19.0169 17.2847 18.5619 17.4735C18.1069 17.6623 17.6938 17.9395 17.3466 18.289C16.9974 18.6361 16.7205 19.049 16.5319 19.5038C16.3433 19.9587 16.2468 20.4464 16.248 20.9387C16.2483 21.0619 16.2243 21.184 16.1773 21.2978C16.1303 21.4117 16.0613 21.5152 15.9742 21.6023C15.8871 21.6894 15.7836 21.7584 15.6697 21.8054C15.5559 21.8524 15.4338 21.8765 15.3106 21.8761Z" fill="#3B414D"/>
<path d="M19.9988 26.563C19.9372 26.5632 19.8762 26.5512 19.8193 26.5277C19.7623 26.5042 19.7106 26.4697 19.667 26.4261C19.6235 26.3826 19.589 26.3308 19.5655 26.2739C19.542 26.2169 19.53 26.1559 19.5301 26.0943L19.5289 25.1569C19.5289 25.0332 19.5776 24.9132 19.6664 24.8257C19.7097 24.782 19.7613 24.7474 19.8182 24.7238C19.875 24.7002 19.936 24.6881 19.9976 24.6882C20.4903 24.6897 20.9785 24.5933 21.4338 24.4047C21.889 24.2161 22.3023 23.9391 22.6497 23.5896C22.9987 23.2419 23.2753 22.8285 23.4637 22.3733C23.652 21.9181 23.7484 21.4301 23.7471 20.9374C23.7471 20.6888 23.8459 20.4504 24.0217 20.2746C24.1975 20.0988 24.4359 20.0001 24.6845 20.0001C24.9331 20.0001 25.1715 20.0988 25.3473 20.2746C25.5231 20.4504 25.6219 20.6888 25.6219 20.9374C25.6241 21.6763 25.4798 22.4082 25.1972 23.0908C24.9147 23.7735 24.4995 24.3933 23.9758 24.9145C23.4549 25.4386 22.8351 25.8541 22.1525 26.1371C21.4698 26.4201 20.7378 26.5649 19.9988 26.563Z" fill="#3B414D"/>
</svg>
