<svg width="40" height="40" viewBox="0 0 40 40" fill="none" xmlns="http://www.w3.org/2000/svg">
<path d="M8.47771 32.1875C8.35152 32.1872 8.22667 32.1616 8.11054 32.1122C7.99441 32.0628 7.88934 31.9907 7.80154 31.9001C7.71592 31.8114 7.64874 31.7067 7.6039 31.5919C7.55906 31.4771 7.53745 31.3546 7.54032 31.2314C7.54254 31.1081 7.5692 30.9866 7.61876 30.8737C7.66832 30.7609 7.7398 30.659 7.82904 30.574L31.2637 8.07665C31.3522 7.99075 31.4567 7.92326 31.5714 7.8781C31.6861 7.83294 31.8087 7.811 31.9319 7.81355C32.0551 7.81611 32.1767 7.84312 32.2894 7.893C32.4021 7.94288 32.5038 8.01465 32.5886 8.10414C32.6743 8.19275 32.7416 8.29742 32.7867 8.41215C32.8318 8.52688 32.8538 8.6494 32.8513 8.77265C32.8489 8.8959 32.8221 9.01745 32.7725 9.13031C32.7229 9.24316 32.6515 9.34509 32.5623 9.43024L9.12763 31.9276C8.95247 32.0945 8.71972 32.1876 8.47771 32.1875Z" fill="#3B414D"/>
<path d="M19.9826 30.3127L19.8451 30.314C18.5352 30.314 17.2166 30.1103 15.9243 29.7103C15.7119 29.6421 15.5308 29.5005 15.4133 29.3109C15.2959 29.1213 15.2498 28.896 15.2834 28.6755C15.3169 28.455 15.4279 28.2536 15.5964 28.1075C15.7649 27.9613 15.98 27.88 16.203 27.878C16.2971 27.8778 16.3907 27.8921 16.4805 27.9205C17.5904 28.2655 18.7302 28.4405 19.8663 28.4405L20.1775 28.4417C24.9932 28.4417 29.8714 24.9596 32.8323 21.7013C33.0208 21.4919 33.1249 21.2201 33.1244 20.9384C33.1239 20.6567 33.019 20.3852 32.8298 20.1765C31.7114 18.9499 30.4724 17.839 29.1315 16.8606C29.0317 16.7884 28.9473 16.697 28.8832 16.5919C28.819 16.4868 28.7764 16.3699 28.7578 16.2482C28.7303 16.0653 28.7574 15.8784 28.8356 15.7109C28.9139 15.5434 29.0398 15.4026 29.1976 15.3063C29.3554 15.21 29.5382 15.1624 29.7229 15.1694C29.9077 15.1764 30.0863 15.2378 30.2363 15.3458C31.6804 16.4 33.0149 17.5967 34.2196 18.9179C35.2595 20.0715 35.2595 21.8075 34.2234 22.9586C30.9913 26.5157 25.6056 30.3152 20.1788 30.3152L19.9826 30.3127Z" fill="#3B414D"/>
<path d="M9.7213 26.2645C9.51305 26.2642 9.3108 26.1948 9.14637 26.067C7.93851 25.1284 6.81251 24.089 5.78052 22.9599C5.27886 22.4065 5.00069 21.6865 5 20.9396C4.99931 20.1927 5.27614 19.4721 5.77677 18.9178C9.00888 15.362 14.3957 11.5637 19.8201 11.5637L20.1163 11.565C21.1737 11.565 22.2248 11.6925 23.2409 11.9462C23.3604 11.976 23.4729 12.029 23.5719 12.1022C23.6709 12.1755 23.7545 12.2675 23.8179 12.3731C23.8813 12.4786 23.9233 12.5957 23.9415 12.7174C23.9597 12.8392 23.9538 12.9634 23.924 13.0829C23.8942 13.2024 23.8412 13.3149 23.7679 13.4138C23.6947 13.5128 23.6026 13.5964 23.4971 13.6599C23.3915 13.7233 23.2745 13.7653 23.1527 13.7835C23.0309 13.8017 22.9067 13.7957 22.7872 13.766C21.9168 13.5496 21.0232 13.4405 20.1263 13.441H19.8401C15.0119 13.441 10.1275 16.9218 7.1666 20.1789C6.97812 20.3883 6.87402 20.6601 6.87448 20.9418C6.87495 21.2235 6.97993 21.495 7.1691 21.7038C8.12853 22.7527 9.17506 23.7186 10.2975 24.5909C10.3952 24.666 10.477 24.7598 10.5382 24.8667C10.5994 24.9737 10.6389 25.0917 10.6542 25.2139C10.6695 25.3362 10.6605 25.4603 10.6276 25.579C10.5947 25.6978 10.5386 25.8088 10.4625 25.9058C10.3742 26.0179 10.2617 26.1084 10.1333 26.1706C10.0048 26.2327 9.86396 26.2648 9.7213 26.2645Z" fill="#3B414D"/>
<path d="M15.3106 21.8763C15.062 21.8763 14.8236 21.7775 14.6478 21.6017C14.472 21.426 14.3732 21.1875 14.3732 20.9389C14.3732 19.4391 14.9582 18.028 16.0205 16.9644C16.5407 16.4402 17.1598 16.0244 17.8418 15.7412C18.5238 15.458 19.2553 15.313 19.9938 15.3146C20.2525 15.3146 20.4613 15.5233 20.4625 15.782L20.465 16.7194C20.465 16.8444 20.4163 16.9631 20.3288 17.0519C20.2413 17.1406 20.1225 17.1894 19.9976 17.1894C19.5049 17.1883 19.0169 17.2849 18.5619 17.4737C18.1069 17.6625 17.6938 17.9397 17.3466 18.2892C16.9974 18.6363 16.7205 19.0492 16.5319 19.504C16.3433 19.9589 16.2468 20.4466 16.248 20.9389C16.2483 21.0621 16.2243 21.1842 16.1773 21.298C16.1303 21.4119 16.0613 21.5154 15.9742 21.6025C15.8871 21.6896 15.7836 21.7586 15.6697 21.8056C15.5559 21.8526 15.4338 21.8766 15.3106 21.8763Z" fill="#3B414D"/>
<path d="M19.9988 26.5632C19.9372 26.5634 19.8762 26.5514 19.8193 26.5279C19.7623 26.5044 19.7106 26.4699 19.667 26.4263C19.6235 26.3827 19.589 26.331 19.5655 26.2741C19.542 26.2171 19.53 26.1561 19.5301 26.0945L19.5289 25.1571C19.5289 25.0334 19.5776 24.9134 19.6664 24.8259C19.7097 24.7822 19.7613 24.7476 19.8182 24.724C19.875 24.7004 19.936 24.6883 19.9976 24.6884C20.4903 24.6899 20.9785 24.5935 21.4338 24.4049C21.889 24.2163 22.3023 23.9393 22.6497 23.5898C22.9987 23.2421 23.2753 22.8287 23.4637 22.3735C23.652 21.9183 23.7484 21.4303 23.7471 20.9376C23.7471 20.689 23.8459 20.4506 24.0217 20.2748C24.1975 20.099 24.4359 20.0002 24.6845 20.0002C24.9331 20.0002 25.1715 20.099 25.3473 20.2748C25.5231 20.4506 25.6219 20.689 25.6219 20.9376C25.6241 21.6764 25.4798 22.4084 25.1972 23.091C24.9147 23.7737 24.4995 24.3935 23.9758 24.9147C23.4549 25.4388 22.8351 25.8543 22.1525 26.1373C21.4698 26.4203 20.7378 26.565 19.9988 26.5632Z" fill="#3B414D"/>
</svg>
