<svg width="40" height="40" viewBox="0 0 40 40" fill="none" xmlns="http://www.w3.org/2000/svg">
<path d="M19.8016 29.373C14.3859 29.373 9.00766 25.5734 5.77922 22.0188C5.27816 21.4655 5.00046 20.7459 5 19.9994C4.99954 19.253 5.27634 18.533 5.77672 17.9791C9.00641 14.4232 14.3909 10.6261 19.8179 10.6261L20.0066 10.6273L20.1978 10.6261C25.6073 10.6261 30.9893 14.4232 34.2202 17.9766C35.2589 19.1303 35.2601 20.8664 34.2227 22.0175C30.9905 25.5747 25.6023 29.3743 20.1678 29.3743L19.9816 29.373H19.8016ZM19.8154 12.4997C15.0021 12.4997 10.125 15.9793 7.16658 19.2365C6.97809 19.4459 6.874 19.7177 6.87446 19.9994C6.87492 20.2811 6.97991 20.5526 7.16908 20.7614C10.1263 24.0173 15.0021 27.4982 19.8179 27.4982L19.9816 27.497L20.1516 27.4982C24.9849 27.4982 29.8707 24.0173 32.8316 20.7589C33.0201 20.5495 33.1242 20.2777 33.1237 19.996C33.1233 19.7143 33.0183 19.4428 32.8291 19.234C29.8694 15.9793 24.9899 12.5009 20.1766 12.5009L19.9816 12.5022L19.8154 12.4997Z" fill="#3B414D"/>
<path d="M19.9965 25.6221C19.2575 25.624 18.5255 25.4792 17.8428 25.1962C17.1602 24.9132 16.5404 24.4977 16.0194 23.9736C15.4954 23.4526 15.0801 22.8328 14.7975 22.1501C14.5149 21.4674 14.3708 20.7353 14.3733 19.9964C14.3753 18.5055 14.9686 17.0761 16.023 16.022C17.0774 14.9678 18.5068 14.3749 19.9978 14.3732C21.5001 14.3732 22.9125 14.9582 23.9749 16.0193C24.4988 16.5401 24.9142 17.1597 25.197 17.8422C25.4797 18.5247 25.6243 19.2565 25.6222 19.9952C25.6246 20.7348 25.48 21.4676 25.1971 22.1509C24.9141 22.8343 24.4982 23.4546 23.9737 23.9761C23.4526 24.4996 22.833 24.9146 22.1505 25.1971C21.4681 25.4797 20.7364 25.6241 19.9978 25.6221H19.9965ZM19.999 16.248C17.9317 16.248 16.2494 17.9291 16.2494 19.9964C16.2494 20.9976 16.6394 21.94 17.3468 22.6474C17.6941 22.9968 18.1072 23.2737 18.5622 23.4623C19.0173 23.6509 19.5052 23.7473 19.9978 23.7461C21.0002 23.7461 21.9413 23.3561 22.6488 22.6487C23.3562 21.9413 23.7474 20.9988 23.7474 19.9977C23.7474 18.9928 23.3575 18.0516 22.6488 17.3442C22.3014 16.9956 21.8883 16.7192 21.4335 16.5311C20.9788 16.343 20.4912 16.2468 19.999 16.248Z" fill="#3B414D"/>
</svg>
