<svg width="40" height="40" viewBox="0 0 40 40" fill="none" xmlns="http://www.w3.org/2000/svg">
<path d="M9.4887 26.5591C8.797 26.6906 8.17896 27.0747 7.75483 27.6367C7.3307 28.1987 7.13083 28.8984 7.19409 29.5996C7.25736 30.3008 7.57925 30.9534 8.09712 31.4304C8.61499 31.9075 9.2918 32.1747 9.99586 32.1803H29.9824C30.3764 32.1895 30.7677 32.1137 31.1297 31.9578C31.4916 31.8019 31.8157 31.5698 32.0797 31.2771C32.5374 30.7477 32.7861 30.0695 32.7792 29.3697C32.8124 28.702 32.5975 28.0457 32.176 27.5269C31.7545 27.008 31.1561 26.6634 30.4958 26.5591H9.4887Z" fill="#3B414D"/>
<path d="M30.2324 25.3099C30.3766 25.3102 30.5165 25.2606 30.6283 25.1696C30.74 25.0785 30.8169 24.9515 30.8457 24.8102L32.3447 17.1779C32.9974 17.1398 33.6166 16.8761 34.0963 16.4319C34.576 15.9876 34.8864 15.3904 34.9744 14.7426C35.0623 14.0947 34.9224 13.4364 34.5784 12.8803C34.2345 12.3243 33.708 11.905 33.0891 11.6943C32.4701 11.4837 31.7972 11.4947 31.1855 11.7255C30.5737 11.9562 30.0612 12.3925 29.7357 12.9595C29.4101 13.5265 29.2917 14.189 29.4008 14.8336C29.5099 15.4783 29.8396 16.065 30.3336 16.4934L27.3044 19.9498C27.2466 20.0157 27.1756 20.0687 27.0959 20.1054C27.0163 20.1421 26.9299 20.1616 26.8422 20.1627C26.7545 20.1637 26.6676 20.1463 26.5871 20.1116C26.5066 20.0768 26.4344 20.0255 26.375 19.961L21.3047 14.4285C22.0388 14.1242 22.6447 13.5748 23.0192 12.8739C23.3936 12.173 23.5135 11.3639 23.3584 10.5845C23.2033 9.80516 22.7827 9.10366 22.1684 8.59956C21.5541 8.09546 20.784 7.81995 19.9893 7.81995C19.1946 7.81995 18.4245 8.09546 17.8102 8.59956C17.1959 9.10366 16.7753 9.80516 16.6202 10.5845C16.4651 11.3639 16.585 12.173 16.9595 12.8739C17.3339 13.5748 17.9398 14.1242 18.6739 14.4285L13.6186 19.9435C13.5589 20.0086 13.486 20.0604 13.4049 20.0952C13.3237 20.1301 13.236 20.1474 13.1477 20.1459C13.0595 20.1444 12.9726 20.1243 12.8927 20.0869C12.8128 20.0494 12.7418 19.9954 12.6842 19.9285L9.69376 16.4509C10.1746 16.0125 10.4881 15.4204 10.5804 14.7763C10.6727 14.1321 10.5381 13.4759 10.1996 12.9201C9.8612 12.3643 9.34002 11.9435 8.72537 11.7297C8.11073 11.516 7.44089 11.5227 6.83064 11.7487C6.22039 11.9746 5.7077 12.4058 5.38044 12.9682C5.05318 13.5307 4.93171 14.1894 5.03685 14.8316C5.14198 15.4738 5.46718 16.0595 5.95672 16.4882C6.44625 16.9169 7.06965 17.1621 7.7201 17.1816L9.15788 24.8015C9.18493 24.9444 9.261 25.0734 9.37296 25.1662C9.48493 25.259 9.62578 25.3098 9.77121 25.3099H30.2324Z" fill="#3B414D"/>
</svg>
