<svg width="40" height="40" viewBox="0 0 40 40" fill="none" xmlns="http://www.w3.org/2000/svg">
<g clip-path="url(#clip0)">
<rect x="5.00018" y="8.75049" width="29.9997" height="22.4998" fill="#2B9F5A"/>
<path fill-rule="evenodd" clip-rule="evenodd" d="M20 11.563L7.81262 20.0004L20 28.4378L32.1874 20.0004L20 11.563Z" fill="#FFD018"/>
<path d="M25.625 20.0004C25.625 23.1069 23.1066 25.6253 20 25.6253C16.8934 25.6253 14.3751 23.1069 14.3751 20.0004C14.3751 16.8938 16.8934 14.3754 20 14.3754C23.1066 14.3754 25.625 16.8938 25.625 20.0004Z" fill="#41479B"/>
<mask id="mask0" mask-type="alpha" maskUnits="userSpaceOnUse" x="14" y="14" width="12" height="12">
<path d="M25.625 20.0004C25.625 23.1069 23.1066 25.6253 20 25.6253C16.8934 25.6253 14.3751 23.1069 14.3751 20.0004C14.3751 16.8938 16.8934 14.3754 20 14.3754C23.1066 14.3754 25.625 16.8938 25.625 20.0004Z" fill="#41479B"/>
</mask>
<g mask="url(#mask0)">
<path fill-rule="evenodd" clip-rule="evenodd" d="M13.5145 18.8243L13.4375 18.1254C13.3604 17.4265 13.3605 17.4265 13.3607 17.4265L13.3653 17.426L13.3762 17.4248L13.416 17.4207C13.4502 17.4173 13.4998 17.4126 13.5635 17.407C13.6908 17.3957 13.8746 17.3811 14.1046 17.3669C14.5643 17.3385 15.2108 17.3117 15.9628 17.3178C17.4554 17.3299 19.4102 17.4717 21.1474 18.0151C22.8725 18.5547 24.3406 19.3889 25.3724 20.082C25.89 20.4296 26.3021 20.7446 26.5866 20.9743C26.729 21.0892 26.8397 21.1831 26.916 21.2492C26.9542 21.2823 26.9837 21.3085 27.0044 21.327L27.0286 21.3489L27.0357 21.3553L27.0379 21.3573C27.038 21.3575 27.0392 21.3586 26.5624 21.8753C26.0856 22.3921 26.0857 22.3922 26.0858 22.3922L26.0826 22.3893L26.0662 22.3746C26.0509 22.3609 26.0269 22.3396 25.9946 22.3116C25.9299 22.2554 25.8319 22.1723 25.7032 22.0684C25.4458 21.8606 25.0669 21.5707 24.5884 21.2493C23.6281 20.6044 22.2837 19.844 20.7276 19.3572C19.1835 18.8742 17.3883 18.7356 15.9513 18.724C15.2384 18.7182 14.6252 18.7436 14.1913 18.7704C13.9746 18.7838 13.8031 18.7975 13.6869 18.8078C13.6288 18.8129 13.5846 18.8171 13.5554 18.82L13.5232 18.8233L13.5145 18.8243Z" fill="#F5F8FB"/>
</g>
<path d="M18.1251 22.3441C18.1251 22.603 17.9152 22.8129 17.6563 22.8129C17.3974 22.8129 17.1876 22.603 17.1876 22.3441C17.1876 22.0852 17.3974 21.8754 17.6563 21.8754C17.9152 21.8754 18.1251 22.0852 18.1251 22.3441Z" fill="#F5F8FB"/>
<path d="M20.9375 23.2816C20.9375 23.5405 20.7276 23.7504 20.4687 23.7504C20.2099 23.7504 20 23.5405 20 23.2816C20 23.0227 20.2099 22.8129 20.4687 22.8129C20.7276 22.8129 20.9375 23.0227 20.9375 23.2816Z" fill="#F5F8FB"/>
<path d="M22.8125 22.3441C22.8125 22.603 22.6026 22.8129 22.3437 22.8129C22.0849 22.8129 21.875 22.603 21.875 22.3441C21.875 22.0852 22.0849 21.8754 22.3437 21.8754C22.6026 21.8754 22.8125 22.0852 22.8125 22.3441Z" fill="#F5F8FB"/>
</g>
<defs>
<clipPath id="clip0">
<rect width="40" height="39.9996" fill="white" transform="translate(0 0.000366211)"/>
</clipPath>
</defs>
</svg>
